<svg xmlns="http://www.w3.org/2000/svg" viewBox="0 0 130 75"><defs><style>.cls-1{fill:#fff;}.cls-2{fill:#b3b3b3;stroke:#000;stroke-miterlimit:10;}</style></defs><title>cintre2</title><g id="Calque_2" data-name="Calque 2"><g id="Calque_1-2" data-name="Calque 1"><rect class="cls-1" width="130" height="75"/><path class="cls-2" d="M119.07,53.87c-.13-.07-.46-.13-.6-.19L67.87,35.15v-6c9.63-1,14.38-6.22,14.38-13C82.25,8.65,75.89,3,67.32,3c-9,0-16.55,6.15-16.55,13.43a2.56,2.56,0,0,0,2.76,2.26,3.13,3.13,0,0,0,1.24-.27,2.24,2.24,0,0,0,1.52-2c0-4.74,5.2-8.89,11.12-8.89C73,7.54,77,11.16,77,16.14s-4.78,8.61-11.3,8.61A2.41,2.41,0,0,0,63.06,27V35.9c0,.05-.1.08-.1.13L14.46,55c-7.15,2.13-9.6,7-8.82,10.7S10.35,72,15.4,72h96.33c6,0,10.68-2.57,12.25-6.87S123.51,56.32,119.07,53.87Zm-.33,10.22c-.87,2.38-3.42,3.92-7,3.92H15.4C13,68,11.35,66.89,11,65.22c-.4-1.89,1.07-4.59,5.49-5.92l50.2-19.72,49.52,18.27A5.22,5.22,0,0,1,118.74,64.09Z"/><path d="M64.19,53.79A9.2,9.2,0,0,1,63,58.91a3.89,3.89,0,0,1-3.47,1.74c-3.05,0-4.58-2.28-4.58-6.86a12.79,12.79,0,0,1,.5-3.9A4.33,4.33,0,0,1,57,47.66a4.41,4.41,0,0,1,2.64-.72,3.8,3.8,0,0,1,3.46,1.71A9.58,9.58,0,0,1,64.19,53.79Zm-2.67,0a18.94,18.94,0,0,0-.17-2.86,3.08,3.08,0,0,0-.58-1.47A1.5,1.5,0,0,0,59.61,49a1.55,1.55,0,0,0-1.21.45,3,3,0,0,0-.59,1.46,18.94,18.94,0,0,0-.17,2.86,17.58,17.58,0,0,0,.18,2.86,3.07,3.07,0,0,0,.59,1.47,1.52,1.52,0,0,0,1.17.44,1.46,1.46,0,0,0,1.16-.47,3,3,0,0,0,.6-1.5A17,17,0,0,0,61.52,53.79Z"/><path d="M65.66,60.46V58.62a8.64,8.64,0,0,1,1.48-2.23,19.2,19.2,0,0,1,2.41-2.27,12.17,12.17,0,0,0,2-1.88,2.41,2.41,0,0,0,.56-1.44,1.55,1.55,0,0,0-1.75-1.74,1.72,1.72,0,0,0-1.3.46,2.38,2.38,0,0,0-.58,1.37l-2.68-.15a4.16,4.16,0,0,1,1.39-2.83,4.73,4.73,0,0,1,3.15-1,5,5,0,0,1,3.31,1,3.44,3.44,0,0,1,1.15,2.76,3.79,3.79,0,0,1-.37,1.7,5.87,5.87,0,0,1-.94,1.39A10.44,10.44,0,0,1,72.18,55l-1.37,1.08c-.44.36-.84.71-1.2,1.07a3.5,3.5,0,0,0-.81,1.16H75v2.18Z"/></g></g></svg>