<svg xmlns="http://www.w3.org/2000/svg" viewBox="0 0 130 75"><defs><style>.cls-1{fill:#fff;}.cls-2{fill:#b3b3b3;stroke:#000;stroke-miterlimit:10;}</style></defs><title>cintre</title><g id="Calque_2" data-name="Calque 2"><g id="Calque_1-2" data-name="Calque 1"><rect class="cls-1" width="130" height="75"/><path class="cls-2" d="M119.07,53.87c-.13-.07-.46-.13-.6-.19L67.87,35.15v-6c9.63-1,14.38-6.22,14.38-13C82.25,8.65,75.89,3,67.32,3c-9,0-16.55,6.15-16.55,13.43a2.56,2.56,0,0,0,2.76,2.26,3.13,3.13,0,0,0,1.24-.27,2.24,2.24,0,0,0,1.52-2c0-4.74,5.2-8.89,11.12-8.89C73,7.54,77,11.16,77,16.14s-4.78,8.61-11.3,8.61A2.41,2.41,0,0,0,63.06,27V35.9c0,.05-.1.08-.1.13L14.46,55c-7.15,2.13-9.6,7-8.82,10.7S10.35,72,15.4,72h96.33c6,0,10.68-2.57,12.25-6.87S123.51,56.32,119.07,53.87Zm-.33,10.22c-.87,2.38-3.42,3.92-7,3.92H15.4C13,68,11.35,66.89,11,65.22c-.4-1.89,1.07-4.59,5.49-5.92l50.2-19.72,49.52,18.27A5.22,5.22,0,0,1,118.74,64.09Z"/><path d="M64.08,53.79a9.2,9.2,0,0,1-1.14,5.06,3.85,3.85,0,0,1-3.44,1.72Q55,60.57,55,53.79a12.56,12.56,0,0,1,.5-3.86A4.24,4.24,0,0,1,57,47.73,4.44,4.44,0,0,1,59.58,47,3.75,3.75,0,0,1,63,48.71,9.57,9.57,0,0,1,64.08,53.79Zm-2.63,0A17.17,17.17,0,0,0,61.27,51a3,3,0,0,0-.57-1.45,1.45,1.45,0,0,0-1.14-.44,1.53,1.53,0,0,0-1.2.45A2.9,2.9,0,0,0,57.78,51a17.15,17.15,0,0,0-.17,2.82,17,17,0,0,0,.18,2.82,2.94,2.94,0,0,0,.58,1.46,1.47,1.47,0,0,0,1.15.43A1.46,1.46,0,0,0,60.68,58a3.16,3.16,0,0,0,.59-1.48A16.69,16.69,0,0,0,61.45,53.79Z"/><path d="M66.07,60.38v-2h3.27v-9l-3.16,2V49.36l3.3-2.14H72V58.43h3v2Z"/></g></g></svg>