<svg xmlns="http://www.w3.org/2000/svg" viewBox="0 0 105.39 54.93"><title>email</title><g id="Calque_2" data-name="Calque 2"><g id="Calque_1-2" data-name="Calque 1"><path d="M20.2,23.72a1.52,1.52,0,0,1,.1.51.6.6,0,0,1,.08.29v.28a6.55,6.55,0,0,1-.76,2.78,16.21,16.21,0,0,1-2.12,3.2c-.39.43-.78.85-1.19,1.26A17.25,17.25,0,0,1,15,33.23a28.66,28.66,0,0,1-6,4.32A11.05,11.05,0,0,1,4.1,39a3.83,3.83,0,0,1-3-1.23A4.79,4.79,0,0,1,0,34.38,17.15,17.15,0,0,1,.36,31a25.77,25.77,0,0,1,1-3.56A30.44,30.44,0,0,1,5,20.52a28.74,28.74,0,0,1,5.33-5.87c.72-.57,1.46-1.13,2.23-1.65s1.53-1,2.3-1.44a28.25,28.25,0,0,1,4-1.73,11.39,11.39,0,0,1,3.53-.65,3.53,3.53,0,0,1,2,.5,1.73,1.73,0,0,1,.72,1.52,4.42,4.42,0,0,1-.43,1.69,9.39,9.39,0,0,1-1.23,2,15,15,0,0,1-1.69,1.83,16.57,16.57,0,0,1-2.05,1.62,20.3,20.3,0,0,1-1.77,1,14.5,14.5,0,0,1-2,.87,23.74,23.74,0,0,1-2.62.93,7.88,7.88,0,0,1-2.06.36,2.17,2.17,0,0,1-1.4-.43A3.14,3.14,0,0,1,9,19.69l1.26.11c.31,0,.61,0,.9,0h.65a11.64,11.64,0,0,0,6-2q2.78-1.83,3.06-4V13.5a1.41,1.41,0,0,0-.58-1.22,2.56,2.56,0,0,0-1.58-.44,6.43,6.43,0,0,0-2.12.4,10.1,10.1,0,0,0-2.2,1.11,15.54,15.54,0,0,0-2.27,1.77A20.89,20.89,0,0,0,10,17.46a30.43,30.43,0,0,0-2.23,3.31A25.59,25.59,0,0,0,6.05,24.3a24.78,24.78,0,0,0-1.44,4.28,17,17,0,0,0-.51,3.93,4,4,0,0,0,.8,2.66,2.73,2.73,0,0,0,2.23.94A6,6,0,0,0,9,35.78a10.72,10.72,0,0,0,2-.9,17.58,17.58,0,0,0,4.86-4.6,31.38,31.38,0,0,0,4-7.2A4.38,4.38,0,0,1,20.2,23.72Z"/><path d="M50,41.75c-.43.29-.85.57-1.26.83s-.83.52-1.26.76a19,19,0,0,1-1.87,1c-.62.28-1.32.57-2.09.86l-1.15.43c-.38.15-.79.29-1.22.43,0-.76.1-1.46.18-2.08s.15-1.25.25-1.88c.19-.81.41-1.65.65-2.52s.57-1.87,1-3c.2-.53.38-1,.54-1.48s.35-.9.54-1.33.21-.57.33-.86.23-.58.32-.87q.8-1.94,1.8-4.14t2.52-5.29a3.85,3.85,0,0,0,.22-.5,1.18,1.18,0,0,0,.07-.36.91.91,0,0,0-.22-.62.66.66,0,0,0-.5-.25,4.59,4.59,0,0,0-2,1.05,28.88,28.88,0,0,0-3,2.55l-.9.87a11.37,11.37,0,0,0-.9.93A42.49,42.49,0,0,0,36.64,34a57.69,57.69,0,0,0-4.25,9.54,2.12,2.12,0,0,0-.11.29,1.66,1.66,0,0,1-.1.29l-.65.14a5,5,0,0,0-.65.22,10.93,10.93,0,0,0-1.66.61l-2,1c.09-.24.17-.42.21-.54s.1-.22.15-.32l.18-.54c.07-.22.25-.66.54-1.33,1.05-2.55,1.86-4.54,2.41-6s1-2.76,1.48-4l.14-.32a3.09,3.09,0,0,0,.14-.4q.36-.93.69-2c.21-.69.47-1.47.75-2.34q1.16-3.37,1.52-4.64a7.67,7.67,0,0,0,.36-1.91,1,1,0,0,0-.26-.72.85.85,0,0,0-.68-.29c-.58,0-1.45.52-2.63,1.55a29.46,29.46,0,0,0-3.63,3.92,27.18,27.18,0,0,0-1.91,2.45c-.6.86-1.19,1.75-1.77,2.66-.33.58-.68,1.19-1,1.84l-1.12,2.05c-.28.53-.56,1.06-.82,1.59l-.83,1.65-1.41,3c-.45,1-.85,1.91-1.18,2.77a.22.22,0,0,1-.15.08h-.14v.07a1.48,1.48,0,0,0-.47.14c-.22.1-.76.29-1.62.58l-.4.14a3.54,3.54,0,0,1-.39.14.16.16,0,0,0-.11,0,.12.12,0,0,1-.11,0c-.19.09-.38.18-.57.25l-.65.25a.18.18,0,0,1,0-.11.12.12,0,0,0,0-.1.86.86,0,0,0,.14-.18.47.47,0,0,0,.08-.26q.42-1,1.08-2.52c.43-1,1-2.52,1.87-4.53q1.88-4.47,2.55-6.19c.46-1.16.86-2.14,1.19-3v-.07c.19-.43.37-.87.54-1.33s.37-1,.61-1.69a22.76,22.76,0,0,0,.8-2.38,11.14,11.14,0,0,0,.28-1.44V22a1,1,0,0,0-.28-.76A1.18,1.18,0,0,0,22,21a3,3,0,0,0-.82.14,11.07,11.07,0,0,0-1.26.51l-.44-1.16.72-.28.72-.29c.92-.44,1.9-1,3-1.55s2.47-1.45,4.24-2.56c.05.24.09.44.11.58a2.09,2.09,0,0,1,0,.43v.58a13.38,13.38,0,0,1-.76,4.07q-.75,2.34-2.91,7.66a58.57,58.57,0,0,1,8.6-9.28c2.62-2.16,4.79-3.25,6.52-3.25a1.52,1.52,0,0,1,1.18.44,1.71,1.71,0,0,1,.4,1.22,16.54,16.54,0,0,1-.86,4.07q-.87,2.85-2.67,7.23c.91-1.19,1.86-2.35,2.85-3.45s2-2.14,3-3.1a38.94,38.94,0,0,1,5.8-4.64,9.11,9.11,0,0,1,4.43-1.77,1.42,1.42,0,0,1,1,.4,1.51,1.51,0,0,1,.4,1.12v.14A4.89,4.89,0,0,1,54.82,20q-.47,1.13-2.2,4.86c-1.53,3.36-2.64,5.78-3.31,7.24s-1.2,2.75-1.58,3.85l-.15.29a.77.77,0,0,0-.07.29c-.09.19-.18.38-.25.57s-.13.39-.18.58a13.39,13.39,0,0,0-.68,2,5.44,5.44,0,0,0-.18,1.19.86.86,0,0,0,.93.93h.15a2.21,2.21,0,0,0,.75-.18,7.65,7.65,0,0,0,1.33-.75Z"/><path d="M76.73,35.6a19.68,19.68,0,0,1-4.42,2.45,43.76,43.76,0,0,1-5.73,1.87,22.08,22.08,0,0,1,1.19-4.82,77.36,77.36,0,0,1,3-7.35q-1.23,1.52-2.52,2.85c-.87.88-1.75,1.74-2.67,2.55a37.67,37.67,0,0,1-6.55,5,11,11,0,0,1-5.18,1.87,2.07,2.07,0,0,1-1.77-.82,4,4,0,0,1-.61-2.34,13.79,13.79,0,0,1,.25-2.52,17.54,17.54,0,0,1,.69-2.51q2.45-6.6,9.75-12.42a39.42,39.42,0,0,1,15.59-7.76c1.06-.23,2.11-.43,3.17-.57a24.13,24.13,0,0,1,3.17-.22,1.45,1.45,0,0,1,.86.22.76.76,0,0,1,.29.65,3.33,3.33,0,0,1-.22.86,7.35,7.35,0,0,1-.57,1.3.52.52,0,0,1-.07.25,2.75,2.75,0,0,0-.15.25c-.62-.09-1.22-.18-1.8-.25L80.77,14H79.61a24.34,24.34,0,0,0-8.74,1.47,24.15,24.15,0,0,0-7.46,4.7c-.19.15-.38.3-.57.47s-.39.35-.58.54a26.82,26.82,0,0,0-3.13,3.55,26.5,26.5,0,0,0-2.27,3.7,15.13,15.13,0,0,0-1.08,3,12.72,12.72,0,0,0-.36,2.95,3.23,3.23,0,0,0,.58,2,1.81,1.81,0,0,0,1.51.75,5.57,5.57,0,0,0,3-1.29,25.26,25.26,0,0,0,3.67-3.31,38.84,38.84,0,0,0,2.92-3.46,32.69,32.69,0,0,0,2.48-3.82c.44-.76.83-1.5,1.19-2.19s.69-1.38,1-2.05c.34-.87.64-1.74.9-2.63s.52-1.84.76-2.85a3.07,3.07,0,0,1,1.15,1.26A5.11,5.11,0,0,1,74.86,19,9,9,0,0,1,74,22.6a18.06,18.06,0,0,1-2.62,4.14c.24,0,.46,0,.68,0a5.12,5.12,0,0,0,.61-.11,9.34,9.34,0,0,0,1.15-.25c.44-.12,1-.3,1.73-.54a2.41,2.41,0,0,0-.11.25,2.16,2.16,0,0,1-.1.25c-.1.24-.23.54-.4.9s-.47,1.09-.9,2.2c-.91,2.06-1.49,3.44-1.73,4.14A5.33,5.33,0,0,0,72,35.17a1,1,0,0,0,.29.68.65.65,0,0,0,.65.25,4.29,4.29,0,0,0,1.19-.39q.67-.33,2-1.05Z"/><path d="M87.09,25.26a11.85,11.85,0,0,1-.47,2.91c-.31,1.18-.78,2.6-1.4,4.28l-1,2.55c-.4,1-.9,2.09-1.47,3.33l-2.59,5.82c-.77,1.73-1.31,3-1.62,3.92A9.39,9.39,0,0,0,78,50a.88.88,0,0,0,.36.72,1.33,1.33,0,0,0,.86.28,3.61,3.61,0,0,0,.94-.21c.43-.14.88-.31,1.36-.5l.44,1a.48.48,0,0,1-.15.11.37.37,0,0,1-.14,0c-.43.23-.94.49-1.51.75s-1.44.63-2.6,1.11c-.76.34-1.38.6-1.83.79s-.9.36-1.33.51a2.12,2.12,0,0,1-.29.11,1.15,1.15,0,0,0-.29.11.77.77,0,0,1-.29.07,1.18,1.18,0,0,0-.36.07q.07-.72.15-1.47c0-.51.09-1,.14-1.48a24.07,24.07,0,0,1,1.4-4.77q1.05-2.62,3.28-7.5c1.49-3.26,2.5-5.55,3-6.9A12.47,12.47,0,0,0,82,30a1.25,1.25,0,0,0-.25-.75.82.82,0,0,0-.69-.32,6,6,0,0,0-1.26.28,19.27,19.27,0,0,0-2.12.8l-.29-1.16c.91-.33,1.68-.62,2.3-.86l1.73-.65a.52.52,0,0,1,.18-.1.45.45,0,0,1,.18,0c.72-.29,1.48-.6,2.27-.94s1.81-.79,3.06-1.37Zm3.2-9a1.49,1.49,0,0,1,.47,1.12A2.41,2.41,0,0,1,90,19.11a2.23,2.23,0,0,1-1.65.75,1.66,1.66,0,0,1-1.16-.46,1.51,1.51,0,0,1-.5-1.12,2.36,2.36,0,0,1,.72-1.73,2.28,2.28,0,0,1,1.66-.72A1.6,1.6,0,0,1,90.29,16.3Z"/><path d="M96.17,3.82,101,1.94c1.13-.43,2.1-.84,2.92-1.22l.29-.14.29-.15L105,.25a3.18,3.18,0,0,0,.43-.25,20.08,20.08,0,0,1-1.26,6.23q-1.26,3.7-4.43,11Q97,23.35,94.88,28.69t-3.6,9.16a36.07,36.07,0,0,0-1.19,3.43,8.93,8.93,0,0,0-.4,2.13,1.6,1.6,0,0,0,.36,1.12,1.12,1.12,0,0,0,.87.4h.21a3.25,3.25,0,0,0,1.34-.58c.5-.33,1.33-1,2.48-1.87l.65.94c-.39.33-.77.66-1.15,1s-.77.61-1.16.9a25.22,25.22,0,0,1-3.45,2.23,6.14,6.14,0,0,1-2.52.86,1.76,1.76,0,0,1-1.51-.79,3.57,3.57,0,0,1-.58-2.16,15.35,15.35,0,0,1,.68-4q.69-2.39,2.56-7.22a2.52,2.52,0,0,0,.14-.33c0-.12.1-.22.15-.32v-.07c.24-.53.5-1.15.79-1.84s.74-1.82,1.37-3.36c.29-.77.55-1.42.79-1.95s.46-1,.65-1.52c.29-.67.6-1.43.93-2.27l1.44-3.57,1.16-2.67L97,13.61q1.65-4,2.34-5.91A9.44,9.44,0,0,0,100,5.18a.88.88,0,0,0-.29-.68,1.14,1.14,0,0,0-.79-.25h-.22a1.84,1.84,0,0,0-.43.07l-1.15.36a.23.23,0,0,0-.14,0,.4.4,0,0,1-.15,0,.25.25,0,0,0-.14,0l-.15,0Z"/></g></g></svg>