<svg id="Calque_1" data-name="Calque 1" xmlns="http://www.w3.org/2000/svg" viewBox="0 0 327.91 100.22"><title>gab</title><path d="M425.78,177.59Q421,201,407.16,215.42T376,229.86q-12.09,0-20-7.49t-7.88-19q0-9,5.29-14.51t13.86-5.5a19.57,19.57,0,0,1,7.88,1.54,22.71,22.71,0,0,1,7,5.08,25.17,25.17,0,0,1,1.73,1.91c.58.69,1.18,1.45,1.8,2.27a4.56,4.56,0,0,0,.47.61,1.48,1.48,0,0,1,.25.32h.07l.76,1.23q.54.85,2.7,4.17l4.46,6.91.36.58.36.5.36.58a22.29,22.29,0,0,0,1.41,2,4.78,4.78,0,0,0,1,.93,2.92,2.92,0,0,0,.54.22,2.18,2.18,0,0,0,.61.07,4.16,4.16,0,0,0,1.33-.25,13.21,13.21,0,0,0,1.77-.76l.57,1.15-.21.08a1.08,1.08,0,0,0-.36.07l-2.56,1.08-1.47.65-.08.07h-.07a12.34,12.34,0,0,1-1.15.57c-.43.2-1,.48-1.8.87-.29-.39-.54-.75-.76-1.08s-.44-.68-.68-1a.21.21,0,0,1-.07-.14q-.36-.51-.72-1.05c-.24-.36-.51-.73-.79-1.11-.39-.68-.77-1.31-1.16-1.91s-.76-1.19-1.15-1.77l-2-3.16-.94-1.59a90.38,90.38,0,0,0-6.16-8.75,32.81,32.81,0,0,0-5.65-5.58,17.44,17.44,0,0,0-4.79-2.52,16.56,16.56,0,0,0-5.14-.79,13.65,13.65,0,0,0-10.34,4.21,15.23,15.23,0,0,0-4,10.91,24.72,24.72,0,0,0,8.21,18.87Q367,227,379.19,227a32.82,32.82,0,0,0,19.3-6.12q8.72-6.12,14.61-17.64c.63-1.2,1.22-2.43,1.77-3.67s1.09-2.52,1.62-3.82a81.16,81.16,0,0,0,3.06-9.29,34.32,34.32,0,0,0,1.26-7.56h-6.48a3.06,3.06,0,0,0,.39.36,1.91,1.91,0,0,1,.33.36,4.88,4.88,0,0,1,.83,1.48,6.36,6.36,0,0,1,.25,1.91,9.62,9.62,0,0,1-.51,3.09,12.6,12.6,0,0,1-1.51,3,24.86,24.86,0,0,1-1.87,2.23,24,24,0,0,1-2.52,2.3,37.18,37.18,0,0,1-4.1,2.88,17.56,17.56,0,0,1-3.82,1.73,16.26,16.26,0,0,1-2.3.54,15.41,15.41,0,0,1-2.38.18,10.87,10.87,0,0,1-11.38-11.38q0-10.5,8.82-18.21a30.56,30.56,0,0,1,20.78-7.71h.93c.43.05.85.09,1.26.11s.85.06,1.33.11l-2.37,8.35h-1.3c.15-.67.24-1.16.29-1.47s.1-.59.14-.83v-.43a2.12,2.12,0,0,0-1.26-2.06,10.55,10.55,0,0,0-4.21-.61,23.37,23.37,0,0,0-4.71.47,20.93,20.93,0,0,0-4.36,1.4,18.3,18.3,0,0,0-8.14,7.46,21.61,21.61,0,0,0-3.09,11.34,10.89,10.89,0,0,0,2.73,7.74,9.53,9.53,0,0,0,7.28,2.91,12.34,12.34,0,0,0,8.82-3.56,11.2,11.2,0,0,0,3.7-8.32A5.19,5.19,0,0,0,411.3,181a4.68,4.68,0,0,0-2.95-1.77,4,4,0,0,0-.39-.11l-.33,0a7.43,7.43,0,0,0-1.37-.18c-.48,0-1.15,0-2,0v-1.29Z" transform="translate(-348.09 -161.67)"/><path d="M436.81,221.6a19.77,19.77,0,0,1-4.43,2.45,43.61,43.61,0,0,1-5.72,1.87,21.94,21.94,0,0,1,1.18-4.82q1.05-3.1,3-7.35-1.21,1.51-2.52,2.85c-.86.88-1.75,1.74-2.66,2.55a38.56,38.56,0,0,1-6.55,5,11,11,0,0,1-5.19,1.87,2.05,2.05,0,0,1-1.76-.82,3.9,3.9,0,0,1-.61-2.34,13,13,0,0,1,.25-2.52,17.51,17.51,0,0,1,.68-2.51q2.44-6.6,9.76-12.42a39.35,39.35,0,0,1,15.59-7.76c1.05-.23,2.11-.43,3.16-.57a24.24,24.24,0,0,1,3.17-.22,1.48,1.48,0,0,1,.87.22.76.76,0,0,1,.28.65,3.62,3.62,0,0,1-.21.86,8.23,8.23,0,0,1-.58,1.3.43.43,0,0,1-.07.25,1.48,1.48,0,0,0-.14.25l-1.8-.25-1.66-.18h-1.15a24.4,24.4,0,0,0-8.75,1.47,24.11,24.11,0,0,0-7.45,4.7c-.19.15-.39.3-.58.47s-.38.35-.57.54a26.91,26.91,0,0,0-3.14,3.55,25.5,25.5,0,0,0-2.26,3.7,15.13,15.13,0,0,0-1.08,3,12.7,12.7,0,0,0-.36,2.94,3.31,3.31,0,0,0,.57,2.05,1.83,1.83,0,0,0,1.51.75,5.59,5.59,0,0,0,3-1.29,25.79,25.79,0,0,0,3.67-3.31,37.15,37.15,0,0,0,2.91-3.46,32.79,32.79,0,0,0,2.49-3.82c.43-.76.83-1.5,1.19-2.19s.68-1.38,1-2.05c.33-.87.63-1.74.9-2.63s.51-1.84.75-2.85a3.17,3.17,0,0,1,1.16,1.26,5.11,5.11,0,0,1,.36,2.13,9.15,9.15,0,0,1-.83,3.63,18.14,18.14,0,0,1-2.63,4.14c.24,0,.47,0,.68,0a5.7,5.7,0,0,0,.62-.11,9.75,9.75,0,0,0,1.15-.25c.43-.12,1-.3,1.73-.54a1.28,1.28,0,0,0-.11.25,2.41,2.41,0,0,1-.11.25c-.1.24-.23.54-.4.9s-.46,1.09-.9,2.2c-.91,2.06-1.48,3.44-1.72,4.14a5.33,5.33,0,0,0-.36,1.62,1,1,0,0,0,.28.68.65.65,0,0,0,.65.25,4.19,4.19,0,0,0,1.19-.39q.69-.33,2-1.05Z" transform="translate(-348.09 -161.67)"/><path d="M450.83,175.93c.72-.24,1.56-.56,2.52-1s2-.85,3-1.33l.68-.29a7.59,7.59,0,0,0,.68-.36l1.59-.72q.8-.36,1.44-.72a15.62,15.62,0,0,1-.43,2.7c-.24,1-.68,2.36-1.3,4.14q-1.44,4.32-3.53,9.69c-1.39,3.57-3.05,7.63-5,12.15a42.69,42.69,0,0,1,3.32-3.14,36,36,0,0,1,3.45-2.64,25,25,0,0,1,4.93-2.67,12.3,12.3,0,0,1,4.36-.94,3.16,3.16,0,0,1,2.41.87,3.49,3.49,0,0,1,.83,2.52,12.36,12.36,0,0,1-1,4.62,24.55,24.55,0,0,1-3,5.13,39.07,39.07,0,0,1-4.47,5.12,40,40,0,0,1-5.68,4.62,44.15,44.15,0,0,1-5.51,3.29,29.38,29.38,0,0,1-5.44,2.06,31.36,31.36,0,0,1-3.2.68,20.61,20.61,0,0,1-3.21.25c1.49-3.6,2.66-6.4,3.5-8.37l2.34-5.48a.4.4,0,0,1,0-.15.67.67,0,0,1,.11-.14c.38-1,.78-1.95,1.19-3s.87-2.19,1.4-3.54q2.81-7.07,4.32-11t2.45-6.59c.43-1.25.76-2.23,1-2.95a6.72,6.72,0,0,0,.33-1.37,1,1,0,0,0-.33-.79,1.3,1.3,0,0,0-.9-.29,4.11,4.11,0,0,0-1,.15,12.4,12.4,0,0,0-1.51.5Zm-6.51,40.64a4.35,4.35,0,0,0,.61,0,7.45,7.45,0,0,0,.83,0l.75,0a15.87,15.87,0,0,0,6.66-2.57,23.85,23.85,0,0,0,5.94-5.59c.43-.58.85-1.2,1.26-1.85s.81-1.28,1.19-1.91a35.89,35.89,0,0,0,2.12-4.62,11.09,11.09,0,0,0,.83-3.76,2.5,2.5,0,0,0-.61-1.8,2.19,2.19,0,0,0-1.69-.65,7.41,7.41,0,0,0-4.07,1.55,25.17,25.17,0,0,0-4.57,4.15,48.75,48.75,0,0,0-5.55,7.62,59.45,59.45,0,0,0-4.53,9.36Z" transform="translate(-348.09 -161.67)"/><path d="M491.07,186.25l-.76-.15a3.64,3.64,0,0,0-.68-.07,1.29,1.29,0,0,0-.43-.07h-.51a7.85,7.85,0,0,0-4.68,1.88,23.25,23.25,0,0,0-5,5.7,4.86,4.86,0,0,1-.33.54,3.65,3.65,0,0,0-.32.54c-.34.54-.66,1.09-1,1.67s-.62,1.18-.9,1.8a40.18,40.18,0,0,0-2,4.95q-1,2.93-2.52,7.62c-.48.09-.94.2-1.37.32s-.86.23-1.29.32l-.87.29a6.44,6.44,0,0,1-.79.22l.07-.29c.05-.14.09-.25.11-.32A.4.4,0,0,1,468,211a2,2,0,0,1,.18-.57c.12-.29.42-1.08.9-2.39.91-2.35,1.53-4,1.87-4.9s.62-1.69.86-2.31v-.15c.15-.33.3-.73.47-1.19s.37-1.07.61-1.84q.72-2.16,1.26-3.9c.36-1.15.71-2.18,1.05-3.1.09-.38.18-.76.25-1.12a5.14,5.14,0,0,0,.11-1,1.13,1.13,0,0,0-.29-.76.84.84,0,0,0-.65-.32,3.18,3.18,0,0,0-.9.21,9.7,9.7,0,0,0-1.47.72l-.51-1.08c.53-.24,1-.48,1.48-.72l1.33-.72c.67-.34,1.3-.69,1.87-1.05s1.15-.73,1.73-1.12c.38-.29.78-.56,1.19-.83a14.94,14.94,0,0,0,1.26-.9c.05.14.08.26.11.36a1.43,1.43,0,0,1,0,.29v.5a14.29,14.29,0,0,1-.57,3.57c-.39,1.41-1,3.25-1.88,5.5a75.62,75.62,0,0,1,7.78-7.7c1.92-1.54,3.48-2.3,4.68-2.3h.36a.62.62,0,0,1,.29.07.86.86,0,0,1,.43.11l.5.25Z" transform="translate(-348.09 -161.67)"/><path d="M497.44,188.39a11.39,11.39,0,0,1-.47,2.91c-.31,1.18-.78,2.6-1.4,4.28l-1,2.55c-.41,1-.9,2.09-1.48,3.33l-2.59,5.82c-.77,1.73-1.31,3-1.62,3.92a11,11,0,0,0-.54,1.9.88.88,0,0,0,.36.72,1.35,1.35,0,0,0,.86.28,3.53,3.53,0,0,0,.94-.21c.43-.15.89-.31,1.37-.5l.43,1a.48.48,0,0,1-.15.11.32.32,0,0,1-.14,0c-.43.24-.94.5-1.51.76s-1.44.63-2.59,1.11l-1.84.79c-.46.2-.9.36-1.33.51a1.72,1.72,0,0,1-.29.11,1.66,1.66,0,0,0-.29.1.6.6,0,0,1-.29.08,1.18,1.18,0,0,0-.36.07l.15-1.47c.05-.51.09-1,.14-1.48a23.5,23.5,0,0,1,1.41-4.77q1-2.62,3.27-7.5c1.49-3.26,2.5-5.55,3-6.9a12.83,12.83,0,0,0,.86-2.8,1.19,1.19,0,0,0-.25-.75.82.82,0,0,0-.69-.32,6,6,0,0,0-1.26.28,20.07,20.07,0,0,0-2.12.8l-.29-1.16,2.31-.86,1.72-.65a.78.78,0,0,1,.18-.11l.18,0c.72-.29,1.48-.6,2.27-.94s1.81-.79,3.06-1.37Zm3.21-9a1.52,1.52,0,0,1,.46,1.12,2.41,2.41,0,0,1-.72,1.69,2.23,2.23,0,0,1-1.65.75,1.63,1.63,0,0,1-1.15-.46,1.49,1.49,0,0,1-.51-1.12,2.36,2.36,0,0,1,.72-1.73,2.28,2.28,0,0,1,1.66-.72A1.64,1.64,0,0,1,500.65,179.43Z" transform="translate(-348.09 -161.67)"/><path d="M515.41,197.54a1.3,1.3,0,0,1,.11.5.62.62,0,0,1,.07.29v.29a6.45,6.45,0,0,1-.75,2.77,16.29,16.29,0,0,1-2.13,3.2c-.38.44-.78.86-1.18,1.26a15.55,15.55,0,0,1-1.34,1.19,28.37,28.37,0,0,1-6,4.32,11.09,11.09,0,0,1-4.9,1.44,3.84,3.84,0,0,1-3-1.22,4.88,4.88,0,0,1-1.11-3.39,17.15,17.15,0,0,1,.36-3.42,24.81,24.81,0,0,1,1-3.56,30.86,30.86,0,0,1,3.6-6.88,28.93,28.93,0,0,1,5.32-5.86c.72-.58,1.47-1.13,2.24-1.66s1.53-1,2.3-1.44a28.25,28.25,0,0,1,4-1.73,11.34,11.34,0,0,1,3.53-.65,3.47,3.47,0,0,1,2,.51,1.72,1.72,0,0,1,.72,1.51,4.28,4.28,0,0,1-.44,1.69,8.93,8.93,0,0,1-1.22,2,14.32,14.32,0,0,1-1.69,1.84,16.57,16.57,0,0,1-2,1.62c-.53.33-1.12.67-1.77,1a17.18,17.18,0,0,1-2,.86,22.09,22.09,0,0,1-2.63.94,7.81,7.81,0,0,1-2.05.36,2.17,2.17,0,0,1-1.4-.44,3.11,3.11,0,0,1-.9-1.36l1.26.1c.31,0,.61,0,.9,0H507a11.72,11.72,0,0,0,6-2c1.85-1.22,2.87-2.56,3.06-4v-.36a1.43,1.43,0,0,0-.58-1.22,2.56,2.56,0,0,0-1.58-.43,6.46,6.46,0,0,0-2.13.39,10.32,10.32,0,0,0-2.19,1.12,14.94,14.94,0,0,0-2.27,1.76,20.89,20.89,0,0,0-2.12,2.34,31.12,31.12,0,0,0-2.24,3.32,26,26,0,0,0-1.72,3.52,24.59,24.59,0,0,0-1.44,4.29,16.82,16.82,0,0,0-.51,3.92,4.09,4.09,0,0,0,.79,2.67,2.79,2.79,0,0,0,2.24.93,6.11,6.11,0,0,0,1.9-.32,11.49,11.49,0,0,0,2-.9,17.78,17.78,0,0,0,4.86-4.61,31,31,0,0,0,4-7.2A4.28,4.28,0,0,1,515.41,197.54Z" transform="translate(-348.09 -161.67)"/><path d="M527.62,168.44l4.86-1.87c1.13-.43,2.1-.84,2.92-1.22l.29-.15.29-.14.43-.18a4.77,4.77,0,0,0,.43-.25,20,20,0,0,1-1.26,6.22q-1.26,3.72-4.43,11-2.65,6.13-4.82,11.48t-3.6,9.17a36.07,36.07,0,0,0-1.19,3.43,8.93,8.93,0,0,0-.4,2.13,1.62,1.62,0,0,0,.36,1.12,1.14,1.14,0,0,0,.87.39h.21a3.21,3.21,0,0,0,1.34-.57c.5-.34,1.33-1,2.48-1.87l.65.93c-.39.34-.77.66-1.15,1s-.77.62-1.16.9a24.43,24.43,0,0,1-3.45,2.24,6.3,6.3,0,0,1-2.52.86,1.76,1.76,0,0,1-1.51-.79,3.57,3.57,0,0,1-.58-2.16,15.35,15.35,0,0,1,.68-4.05c.46-1.58,1.31-4,2.56-7.21a2.52,2.52,0,0,0,.14-.33,3.26,3.26,0,0,1,.15-.32v-.08c.24-.53.5-1.14.79-1.84s.74-1.81,1.37-3.36c.29-.77.55-1.41.79-1.94s.46-1,.65-1.52c.29-.67.6-1.43.93-2.27l1.44-3.58,1.16-2.66,1.08-2.67q1.65-4,2.34-5.9a9.63,9.63,0,0,0,.68-2.52.85.85,0,0,0-.29-.68,1.14,1.14,0,0,0-.79-.26h-.22a2,2,0,0,0-.43.08c-.19,0-.57.16-1.15.36a.32.32,0,0,0-.14,0,.28.28,0,0,1-.15,0,.35.35,0,0,0-.14,0,.28.28,0,0,1-.15,0Z" transform="translate(-348.09 -161.67)"/><path d="M544.55,226h-1.23a4.68,4.68,0,0,0,.11-.5,1.28,1.28,0,0,1,.11-.36c.1-.39.17-.7.22-.94s.09-.45.14-.65v-.5a1.38,1.38,0,0,0-1-1.51,24.38,24.38,0,0,0-4.86-.29h-5.4q-.87,2.88-1.7,5.26t-1.62,4.39q-1.21,3-2.48,5.4a52.48,52.48,0,0,1-2.77,4.75c-.34.53-.7,1-1.08,1.55s-.77,1-1.15,1.55a47.4,47.4,0,0,1-14.8,13,35.63,35.63,0,0,1-17.46,4.68q-11.52,0-18.86-6.73A22.28,22.28,0,0,1,463.33,238q0-8.78,5.58-14.07t14.87-5.29a28.25,28.25,0,0,1,12.56,3.13,58.14,58.14,0,0,1,13.5,9.75l.18.18a.76.76,0,0,0,.26.18.44.44,0,0,0,.18.22,2.06,2.06,0,0,1,.25.22c.86.76,1.81,1.69,2.84,2.77s2.51,2.6,4.43,4.57a8.64,8.64,0,0,0,.5-.86,4.58,4.58,0,0,0,.36-.94,9,9,0,0,0,.72-2.2,11.77,11.77,0,0,0,.22-2.34,10.28,10.28,0,0,0-4.46-8.49q-4.47-3.39-11.74-3.75a2,2,0,0,0,.22-.39,1.73,1.73,0,0,1,.21-.4,11.51,11.51,0,0,0,.51-1.19c.14-.4.28-.87.43-1.4l24.91-.07c.1-.29.18-.55.25-.79s.13-.44.18-.58c.24-.91.49-1.76.76-2.56s.51-1.52.75-2.19a30.12,30.12,0,0,1,2.78-6.19,19.66,19.66,0,0,1,3.85-4.47c.57-.53,1.2-1,1.87-1.55s1.39-1,2.16-1.54a32.36,32.36,0,0,1,4.64-2.81,10.66,10.66,0,0,1,3.78-1.08,2.16,2.16,0,0,1,.54-.07H552l.8,0a8.28,8.28,0,0,1,1,.18,2.41,2.41,0,0,1,0,.4,4,4,0,0,1-.11.39c-.19.92-.44,2-.76,3.1s-.8,2.86-1.47,5.11h-1.23c.2-.77.33-1.33.4-1.69l.18-.9v-.58a2.09,2.09,0,0,0-.68-1.62,2.61,2.61,0,0,0-1.77-.61h-.36a10.91,10.91,0,0,0-6,2.23,13.24,13.24,0,0,0-4.28,5.26,25.47,25.47,0,0,0-1,2.66q-.58,1.74-1.8,6l-.43,1.51-.44,1.33a2.46,2.46,0,0,0-.07.33.19.19,0,0,0-.07.14l-.14.58h13.46Zm-31.75-4.82a14.15,14.15,0,0,1,6.08,4.86,11.57,11.57,0,0,1,2.27,6.8,15.69,15.69,0,0,1-.58,4,30.71,30.71,0,0,1-1.58,4.5,15.65,15.65,0,0,1-.87,1.87c-.33.62-.69,1.25-1.08,1.87q-10-11.73-19.4-18t-17.1-6.3a15.17,15.17,0,0,0-11.12,4.28A14.63,14.63,0,0,0,465.06,236a20.49,20.49,0,0,0,7.81,16.49q7.81,6.48,19.84,6.48a30.28,30.28,0,0,0,22.68-9.65q9.29-9.65,13.46-28Z" transform="translate(-348.09 -161.67)"/><path d="M546.18,243.42a1.51,1.51,0,0,1,.11.5.62.62,0,0,1,.07.29v.29a6.37,6.37,0,0,1-.76,2.77,16.21,16.21,0,0,1-2.12,3.2c-.38.43-.78.85-1.19,1.26a15.39,15.39,0,0,1-1.33,1.19,28.15,28.15,0,0,1-6,4.32,11.05,11.05,0,0,1-4.89,1.44,3.86,3.86,0,0,1-3-1.22,4.88,4.88,0,0,1-1.12-3.39,16.48,16.48,0,0,1,.37-3.42,24.74,24.74,0,0,1,1-3.56,31.49,31.49,0,0,1,3.6-6.88,29.33,29.33,0,0,1,5.33-5.87c.72-.57,1.46-1.12,2.23-1.65s1.54-1,2.31-1.44a27.77,27.77,0,0,1,4-1.73,11.34,11.34,0,0,1,3.53-.65,3.43,3.43,0,0,1,2,.51,1.72,1.72,0,0,1,.72,1.51,4.24,4.24,0,0,1-.43,1.69,9.74,9.74,0,0,1-1.22,2,15.85,15.85,0,0,1-1.69,1.84,16.66,16.66,0,0,1-2.06,1.62c-.53.33-1.11.67-1.76,1a15.67,15.67,0,0,1-2,.87,23.87,23.87,0,0,1-2.63.93,7.81,7.81,0,0,1-2.05.36,2.15,2.15,0,0,1-1.4-.43,3.07,3.07,0,0,1-.91-1.37l1.27.11c.31,0,.61,0,.9,0h.64a11.75,11.75,0,0,0,6-2q2.76-1.85,3.06-4v-.36a1.45,1.45,0,0,0-.58-1.22,2.58,2.58,0,0,0-1.58-.43,6.42,6.42,0,0,0-2.13.39,10.09,10.09,0,0,0-2.19,1.12,14.94,14.94,0,0,0-2.27,1.76,20,20,0,0,0-2.13,2.34,31.94,31.94,0,0,0-2.23,3.31A27.4,27.4,0,0,0,532,244a26.39,26.39,0,0,0-1.44,4.29,17.32,17.32,0,0,0-.5,3.92,4,4,0,0,0,.79,2.66,2.75,2.75,0,0,0,2.23.94,6.17,6.17,0,0,0,1.91-.32,11.49,11.49,0,0,0,2-.9,17.78,17.78,0,0,0,4.86-4.61,31.56,31.56,0,0,0,4-7.2A3.87,3.87,0,0,1,546.18,243.42Z" transform="translate(-348.09 -161.67)"/><path d="M557.36,213.46l4.86-1.87c1.13-.43,2.1-.84,2.92-1.22l.29-.15.28-.14a4.07,4.07,0,0,0,.44-.18c.14-.07.28-.16.43-.25a20.13,20.13,0,0,1-1.26,6.23q-1.26,3.7-4.43,11-2.67,6.13-4.82,11.47t-3.6,9.17a36.07,36.07,0,0,0-1.19,3.43,8.45,8.45,0,0,0-.4,2.13,1.62,1.62,0,0,0,.36,1.12,1.15,1.15,0,0,0,.87.4h.21a3.17,3.17,0,0,0,1.33-.58c.51-.34,1.34-1,2.49-1.87l.65.93c-.39.34-.77.66-1.16,1s-.76.61-1.15.9a25.22,25.22,0,0,1-3.45,2.23,6.3,6.3,0,0,1-2.52.86,1.79,1.79,0,0,1-1.52-.79,3.64,3.64,0,0,1-.57-2.16,15.28,15.28,0,0,1,.68-4q.69-2.39,2.56-7.22c.05-.1.09-.21.14-.33a3.26,3.26,0,0,1,.15-.32v-.07c.24-.53.5-1.15.79-1.85s.74-1.81,1.37-3.35c.28-.77.55-1.42.79-2s.45-1,.65-1.52c.28-.67.6-1.43.93-2.27l1.44-3.58,1.15-2.66,1.08-2.66q1.67-4,2.34-5.91a9.38,9.38,0,0,0,.69-2.52.86.86,0,0,0-.29-.68,1.15,1.15,0,0,0-.79-.25h-.22a1.84,1.84,0,0,0-.43.07c-.19.05-.58.17-1.15.36l-.15,0a.23.23,0,0,1-.14,0,.23.23,0,0,0-.14,0,.4.4,0,0,1-.15,0Z" transform="translate(-348.09 -161.67)"/><path d="M585.62,205.85c1.73-.63,3.26-1.22,4.61-1.77s2.59-1.11,3.74-1.69a6.63,6.63,0,0,1,.8-.4,7.26,7.26,0,0,0,.79-.39v.18a.29.29,0,0,1-.07.18,11.56,11.56,0,0,1-.36,2c-.2.72-.53,1.71-1,3l-.76,2q-.47,1.26-1.11,2.91l-.94,2.16-.86,2.24-.87,2.16-.29.86-.36.86-.36.8a3.72,3.72,0,0,1,1.73,1.22,4.27,4.27,0,0,1,.58,2.23,8.18,8.18,0,0,0-1-.25l-1.26-.25a3.12,3.12,0,0,1-.54,0,4.63,4.63,0,0,0-.54,0,.63.63,0,0,0-.07.21c-.53,1.39-1.58,4.11-3.17,8.14L582.74,236q-1.87,4.76-2.52,6.63a10,10,0,0,0-.65,2.52,1,1,0,0,0,.29.72.91.91,0,0,0,.65.29,3.23,3.23,0,0,0,1.3-.33,21.77,21.77,0,0,0,1.94-1,.67.67,0,0,1,.14-.11l.22-.11.65.87a26.68,26.68,0,0,1-4,2.19,47,47,0,0,1-5.11,1.91,7.35,7.35,0,0,0-.8.18,7.14,7.14,0,0,1-.79.18c.24-.86.44-1.61.61-2.23s.33-1.2.47-1.73a2.92,2.92,0,0,0,.22-.54c0-.17.09-.35.14-.54.29-.82.62-1.69,1-2.63s.91-2.24,1.58-3.92c.24-.67.5-1.31.76-1.91s.49-1.19.68-1.76l1.3-3.39,1.37-3.45,1.29-3.39a1,1,0,0,1,.11-.29l.25-.5h-.64a23.93,23.93,0,0,0-14,6.19q-6.48,5.63-7.35,12.24c0,.24,0,.49,0,.76a7.33,7.33,0,0,0,0,.83,3.57,3.57,0,0,0,.58,2.16,1.86,1.86,0,0,0,1.58.79,5.63,5.63,0,0,0,2.81-1A18.62,18.62,0,0,0,570,243a31.74,31.74,0,0,0,3.13-3.71,35.48,35.48,0,0,0,2.77-4.5,9.15,9.15,0,0,1,.47-.94,9,9,0,0,0,.47-.93c.38-.82.73-1.67,1-2.56s.64-1.86,1-2.91a4.18,4.18,0,0,1,.33.79c.07.24.13.46.18.65a5.44,5.44,0,0,0,0,.57,3.77,3.77,0,0,1,0,.58,11.1,11.1,0,0,1-1.15,4.57,25,25,0,0,1-3.24,5.08Q574,241,572.7,242.24t-2.7,2.49c-.29.24-.63.5-1,.79l-1.15.86c-.29.19-.57.39-.83.58a5.38,5.38,0,0,1-.83.5c-.29.19-.56.39-.83.58a5.8,5.8,0,0,1-.82.5,11.7,11.7,0,0,1-1.95,1,4.61,4.61,0,0,1-1.65.33h-.58a2.26,2.26,0,0,1-1.94-.87,3.94,3.94,0,0,1-.65-2.44,13.27,13.27,0,0,1,.75-4.14,21.73,21.73,0,0,1,2.2-4.58,29.7,29.7,0,0,1,2.34-3.42,31.36,31.36,0,0,1,2.92-3.2,38.24,38.24,0,0,1,9-6.77,33.35,33.35,0,0,1,10-3.45c.34-.87.57-1.44.69-1.73s.22-.55.32-.79a4.62,4.62,0,0,1,.25-.69c.12-.26.3-.73.54-1.4q1.88-4.91,2.34-6.16a10.83,10.83,0,0,0,.54-1.76v-.65a1.31,1.31,0,0,0-.39-1,1.62,1.62,0,0,0-1.12-.36h-.4a1.46,1.46,0,0,0-.39.07l-.54.18-.69.26Z" transform="translate(-348.09 -161.67)"/><path d="M622,238.53l-1.26.83c-.41.27-.83.52-1.26.76a19.16,19.16,0,0,1-1.88,1c-.62.28-1.32.57-2.08.86l-1.16.43c-.38.15-.79.29-1.22.43.05-.76.11-1.46.18-2.08s.16-1.25.25-1.88c.19-.81.41-1.65.65-2.52s.58-1.87,1-3l.54-1.48c.17-.45.35-.9.54-1.33s.2-.57.32-.86.23-.58.33-.87q.78-1.94,1.8-4.14t2.52-5.29c.09-.19.16-.36.21-.5a1.18,1.18,0,0,0,.07-.36.9.9,0,0,0-.21-.61.64.64,0,0,0-.51-.26,4.57,4.57,0,0,0-2,1,30.2,30.2,0,0,0-3,2.55q-.42.44-.9.87t-.9.93a42.49,42.49,0,0,0-5.4,7.74,57.64,57.64,0,0,0-4.24,9.54,1.31,1.31,0,0,0-.11.29,1.72,1.72,0,0,1-.11.29l-.65.14a5,5,0,0,0-.65.22,10.84,10.84,0,0,0-1.65.61c-.58.27-1.25.59-2,1l.22-.54c.05-.12.09-.22.14-.32s.11-.32.18-.54.25-.66.54-1.33c1.06-2.55,1.86-4.54,2.42-6s1-2.76,1.47-4a1.92,1.92,0,0,0,.14-.32c.05-.12.1-.25.15-.4.24-.62.47-1.28.68-2s.47-1.47.76-2.34q1.15-3.37,1.51-4.64a7.67,7.67,0,0,0,.36-1.91,1,1,0,0,0-.25-.72.88.88,0,0,0-.69-.29,5.09,5.09,0,0,0-2.62,1.55,29.48,29.48,0,0,0-3.64,3.92,29.12,29.12,0,0,0-1.91,2.45c-.6.87-1.19,1.75-1.76,2.67-.34.57-.68,1.18-1,1.83s-.73,1.33-1.11,2.05c-.29.53-.57,1.06-.83,1.59s-.54,1.08-.83,1.65c-.48,1-1,2-1.4,3s-.85,1.91-1.19,2.77a.23.23,0,0,1-.14.08h-.15v.07a1.44,1.44,0,0,0-.46.14c-.22.1-.76.29-1.63.58l-.39.14-.4.15a.13.13,0,0,0-.1,0,.15.15,0,0,1-.11,0c-.2.09-.39.18-.58.25l-.65.25a.18.18,0,0,1,0-.11.15.15,0,0,0,0-.1l.15-.18a.46.46,0,0,0,.07-.26l1.08-2.52c.43-1,1.06-2.52,1.87-4.53q1.88-4.47,2.56-6.19c.45-1.16.85-2.14,1.19-3v-.07c.19-.43.37-.87.54-1.33s.37-1,.61-1.69a22.25,22.25,0,0,0,.79-2.38,13.53,13.53,0,0,0,.29-1.44v-.21a1,1,0,0,0-.29-.76,1.15,1.15,0,0,0-.79-.25,3.06,3.06,0,0,0-.83.14,12.79,12.79,0,0,0-1.26.51l-.43-1.16.72-.28.72-.29c.91-.43,1.89-.95,2.95-1.55s2.47-1.45,4.25-2.56c.05.24.08.44.11.58a3.11,3.11,0,0,1,0,.43v.58a13.65,13.65,0,0,1-.75,4.07q-.76,2.34-2.92,7.66a58.57,58.57,0,0,1,8.61-9.28q3.91-3.24,6.51-3.24a1.54,1.54,0,0,1,1.19.43,1.75,1.75,0,0,1,.39,1.22,16.07,16.07,0,0,1-.86,4.07c-.58,1.9-1.46,4.31-2.66,7.24.91-1.2,1.86-2.36,2.84-3.46s2-2.14,3-3.1a38.9,38.9,0,0,1,5.79-4.64,9.11,9.11,0,0,1,4.43-1.76,1.43,1.43,0,0,1,1,.39,1.54,1.54,0,0,1,.39,1.12v.14a4.67,4.67,0,0,1-.47,1.69q-.46,1.13-2.19,4.86l-3.31,7.24c-.68,1.46-1.2,2.75-1.59,3.85l-.14.29a.62.62,0,0,0-.07.29,4.7,4.7,0,0,0-.25.57,4.89,4.89,0,0,0-.19.58,15.18,15.18,0,0,0-.68,2,5.44,5.44,0,0,0-.18,1.19.91.91,0,0,0,.25.68.93.93,0,0,0,.69.25h.14a2.31,2.31,0,0,0,.76-.18,8,8,0,0,0,1.33-.75Z" transform="translate(-348.09 -161.67)"/><path d="M649.07,232.7a19.77,19.77,0,0,1-4.43,2.45,43.28,43.28,0,0,1-5.73,1.87,22.68,22.68,0,0,1,1.19-4.82,78.44,78.44,0,0,1,3-7.35q-1.23,1.52-2.52,2.85c-.86.89-1.75,1.74-2.66,2.55a37.23,37.23,0,0,1-6.56,5,11,11,0,0,1-5.18,1.88,2,2,0,0,1-1.76-.83,3.86,3.86,0,0,1-.62-2.34,13.07,13.07,0,0,1,.26-2.52,17.87,17.87,0,0,1,.68-2.51q2.44-6.6,9.76-12.42a39.16,39.16,0,0,1,15.58-7.75c1.06-.24,2.12-.43,3.17-.58a24.11,24.11,0,0,1,3.17-.21,1.45,1.45,0,0,1,.86.21.75.75,0,0,1,.29.65,3.62,3.62,0,0,1-.21.86,7.84,7.84,0,0,1-.58,1.3.41.41,0,0,1-.07.25,2.75,2.75,0,0,0-.15.25c-.62-.09-1.22-.18-1.8-.25l-1.65-.18H652a24.4,24.4,0,0,0-8.75,1.47,24.11,24.11,0,0,0-7.45,4.7c-.2.15-.39.3-.58.47l-.58.54a26.82,26.82,0,0,0-3.13,3.55,26.5,26.5,0,0,0-2.27,3.7,15.13,15.13,0,0,0-1.08,3,12.72,12.72,0,0,0-.36,3,3.3,3.3,0,0,0,.58,2,1.8,1.8,0,0,0,1.51.76,5.6,5.6,0,0,0,2.95-1.3,25.23,25.23,0,0,0,3.68-3.31,38.76,38.76,0,0,0,2.91-3.46,33.55,33.55,0,0,0,2.49-3.81c.43-.77.82-1.5,1.18-2.2s.69-1.38,1-2.05c.33-.87.63-1.74.9-2.63s.51-1.84.75-2.84a3,3,0,0,1,1.15,1.26,5,5,0,0,1,.36,2.12,9.21,9.21,0,0,1-.82,3.64,19,19,0,0,1-2.63,4.14c.24,0,.47,0,.68,0a3.68,3.68,0,0,0,.61-.11,9.87,9.87,0,0,0,1.16-.25c.43-.12,1-.3,1.72-.54,0,.1-.08.18-.1.25a2.41,2.41,0,0,1-.11.25c-.1.24-.23.54-.4.9s-.47,1.1-.9,2.2c-.91,2.06-1.49,3.44-1.73,4.14a5.45,5.45,0,0,0-.36,1.62,1,1,0,0,0,.29.68.68.68,0,0,0,.65.26,4.26,4.26,0,0,0,1.19-.4c.45-.22,1.11-.56,2-1Z" transform="translate(-348.09 -161.67)"/><path d="M670.45,240.45a24,24,0,0,1-4.6,2.59,26.64,26.64,0,0,1-5.4,1.59,4,4,0,0,1,0-.47c0-.17.06-.35.11-.54a25.34,25.34,0,0,1,.86-3.24c.39-1.15.94-2.62,1.66-4.39.53-1.35,1.15-2.75,1.87-4.22s1.49-3,2.31-4.64l.79-1.44.72-1.51.79-1.44c.43-.87.73-1.5.9-1.91a2.7,2.7,0,0,0,.25-1,1.05,1.05,0,0,0-.21-.69.76.76,0,0,0-.58-.25,6.58,6.58,0,0,0-3,1.55,46.59,46.59,0,0,0-4.47,3.85c-.62.63-1.24,1.27-1.87,2s-1.22,1.34-1.8,2a49.16,49.16,0,0,0-4.89,6.84,73.91,73.91,0,0,0-4.11,8,1.55,1.55,0,0,0-.29,0,1.62,1.62,0,0,0-.28.11c-.53.14-1.11.32-1.73.54s-1.39.51-2.3.9a1.62,1.62,0,0,0,.25-.4c.07-.17.13-.32.18-.47s.2-.49.32-.75.23-.52.33-.76c.76-1.68,1.58-3.54,2.44-5.58s2-4.69,3.31-8c1.16-2.84,1.92-4.83,2.31-6a9.26,9.26,0,0,0,.57-2.66,1.4,1.4,0,0,0-.25-.9.89.89,0,0,0-.75-.33h-.22a2.7,2.7,0,0,0-.76.15l-1.69.5-.21-1.15a6.75,6.75,0,0,0,.68-.18l.61-.18,2.45-.79a21.72,21.72,0,0,0,2.31-.87c.52-.19,1.06-.41,1.62-.65l1.69-.72a1.59,1.59,0,0,1,.07.36v.29a19.18,19.18,0,0,1-1.37,5.33q-1.36,3.81-3.74,9a93,93,0,0,1,11.19-11q4.78-3.78,7.67-3.78A1.62,1.62,0,0,1,676,217a8.81,8.81,0,0,1-.83,3.13q-.82,2-3.78,7.67c-.29.57-.62,1.22-1,1.94s-.74,1.47-1.08,2.23c0,.1-.09.18-.14.26a1.83,1.83,0,0,0-.15.25c-.38.82-.78,1.63-1.18,2.45s-.76,1.56-1.05,2.23a10.46,10.46,0,0,0-.72,1.62,3.91,3.91,0,0,0-.21,1,1,1,0,0,0,.25.72.86.86,0,0,0,.68.29,2.89,2.89,0,0,0,.83-.18c.36-.12.73-.25,1.12-.4a5.45,5.45,0,0,0,.57-.32,6.7,6.7,0,0,0,.58-.4Z" transform="translate(-348.09 -161.67)"/></svg>