<svg id="Calque_1" data-name="Calque 1" xmlns="http://www.w3.org/2000/svg" viewBox="0 0 606.57 407.47"><defs><style>.cls-1{fill:#9ebfbf;}.cls-2{fill:#959fd4;}</style></defs><title>gabriel6</title><rect class="cls-1" width="606.57" height="407.47"/><path class="cls-2" d="M389.18,1635.1c14.56,1.33,19.46,23.47,39.67,18.87-8.32,3.86-12.18,14.71-12.18,25.26,0,8.77,2.08,18.57,8.91,24.67-5.64-1-13.37-6.1-16.94-11.29-2.23,3.71-12,11.73-28.38,11.73-29.87,0-35.81-30.46-52-55.13,13.52-20.5,25-54.53,52-54.53,20.8,0,23,13.22,29.72,14.41,0-6.54,3.86-10.55,9.51-12.33-3.27,3.86-3.86,8.76-1.63,12.33h-4.17a36.31,36.31,0,0,0,4.46,28.83c-6.09-4.61-10.1-9.51-11.89-15.6-3.26-11.44-10.1-24.52-25.7-24.52-19.92,0-26,19.61-26,51.41,0,32,7.28,52.16,25.71,52.16,16.35,0,24.07-14.86,24.07-27.34,0-13.67-4.46-36-16.05-36.71-6.39-.44-13.22,4.91-12.33,14.57.59,6.09,9.21,3.71,11.15,7.28,1.48,2.82-1.64,5.65-4,4.76a15.53,15.53,0,0,1,2.68,8.17,8.71,8.71,0,0,1-8.92,8.77,6.33,6.33,0,0,1-6.68-6.54,6.05,6.05,0,0,0,6.24,5.35,6.28,6.28,0,0,0,6.53-6.39c0-6-8.76-11.3-9.36-21.85S381,1634.35,389.18,1635.1Z" transform="translate(-326.6 -1502.2)"/><path class="cls-2" d="M532.34,1728c-3.57-2.23-6.24-2.53-12.19-2.53H485.53c-13.08,0-19.62,3.86-19.62,7.28,0,3.12,5.35,5.8,15.9,5.2-15.9,5.35-23.48-.59-23.48-5.2,0-4.16,7-10.4,21.55-9.51,7.13.45,12,.75,12-10.25v-20.51H457.29c.6,14.86-2.67,26.6-16.49,31.36,12.93-7.58,14.71-29.28,14.71-43.54l.15-12.64c.15-12.33,5-32.69,20.8-32.69v-11.14c-22.14,15-23.62,29.12-23.62,58.4,0,12.48-2.23,24.67-7.58,32.54-10.4,15.46-24.67,11.15-27.94,10.4-3.71-.89-6.69.9-6.69,4.16,0,4.17,3.57,5.8,9.07,6.39-5.65,2.68-16.79-.14-16.79-8.76,0-7,9.95-8.47,15-16.2-1,8.32,3,12,8.33,12,7.58,0,17.83-8,17.83-21.4,0-3.27-1.19-5.5-3.72-5.5-2.23,0-3.86,1.49-6.09,1.49-3.86,0-6.39-2.83-6.39-11.45,0-22.43,19.76-49.48,43.84-62.26H445.85c0,6.39-7.28,2.38-11.59,2.38a16,16,0,0,0-9.66,4,18.83,18.83,0,0,1,16-10.1c2.08,0,3.57.59,4.31,1.48h67.76c-.74-2.23-.15-6.09,2.38-6.09,2.23,0,4.75,4,8.77,4a8.14,8.14,0,0,0,2.52-.45c-1.78,3.42-5.94,8.18-9.36,8.18a3.53,3.53,0,0,1-3.12-2.38c-5.94,7.13-7.13,15.16-7.13,51.56,0,30,1.48,46.07,10,46.07,2.53,0,4.61-1.93,7-1.93C527.28,1720.41,532,1724.57,532.34,1728Zm-40.42-47.7H457.15c-.15,2.82-.15,6.24,0,10h34.77Zm0-36.56c0-13.82,0-18.57,4.46-20.06H478.1v22c-11-4.16-20.06,3.12-21,21.1h34.77Z" transform="translate(-326.6 -1502.2)"/><path class="cls-2" d="M611.81,1635.11c0,21.25-18,31.65-38.34,31.65-21,0-23.78-12.92-47.85-11.88-7.13.29-11.14.89-11.14,2.82,0,5,22.88-3,24.07,7.58-3.86-4.16-22,1.63-26.3-4.16-2.53-3.42-.45-7,5.5-8.32,14.41-3.27,16,3.71,16-31.66v-6.24c0-16.34-1.48-26.6-5.34-30.46-4.76-4.76-12.34-2.82-12.34-11.29,0-8.18,12.78-8.62,18.13-11.3,3.27-1.63,6.84-3.86,5.35-8.32a10.18,10.18,0,0,1,2.53,6.54c0,4.75-3.87,7-8.62,8.17-6.84,1.64-15.16,0-15.16,5.5,0,5.65,10.25,6.39,19.17,1.19,16.2-9.51,19.61-18.13,37.15-18.13,14,0,31.65,9.66,31.65,26.75,0,11.14-7.28,21.4-21.69,26.6C605.12,1611.93,611.81,1623.82,611.81,1635.11Zm-47.55-34.47c-.3-10.26,10.85-10.7,6.83-16.05-2.67-3.57,1.19-5.95,0-8.47,7.88,4.9,7,17.68,1.79,20.36.29-4.31-6.69-2.53-6.25,4.16.3,5.49,6.1,8.17,10.11,8.17,7.13,0,14.41-8,14.41-21.4,0-18.43-9.8-27.64-20.35-27.64-11.3,0-23.63,10.7-23.63,33v22.44c0,35.81,11,48.59,26,48.59,12.93,0,21.11-13.37,21.11-26.45,0-13.37-3.27-20.36-14.57-23.92C572.88,1611.19,564.56,1609.25,564.26,1600.64Z" transform="translate(-326.6 -1502.2)"/><path class="cls-2" d="M596.57,1700.5c.3-3.41,5-7.57,8.62-7.57,4.16,0,7,5.79,14-2.38,3.56-4.16,5.35-12,5.35-41.76,0-16.49-1.49-28.08-5.35-32-4.76-4.75-14.57-2.08-14.57-11.29s15-8.62,20.36-11.29c3.27-1.64,6.84-3.87,5.35-8.33a10.18,10.18,0,0,1,2.53,6.54c0,4.76-3.87,7-8.62,8.18-6.84,1.63-17.39-.89-17.39,5.49s12.49,6.39,22.89,1.19c14.41-7.13,18.42-15.9,33.73-15.9s32.1,10.55,32.1,25.56c0,10.7-4.91,20.06-15.31,23,10.4,3.27,22.44,11.29,22.44,37.89-8.62-2.53-15.45,3.27-15.45,10.25,0,5.5,3.56,11.29,11.14,11.29,5.2,0,12.19-4.45,10.85-13.67,3.12,10.26-4.76,17.24-12.19,17.24s-16-6.09-16-17.83c0-8,3.72-13.82,3.72-22,0-27.64-34.92-23.18-34.92-6,0,4.46,2.82,7.43,7,7.43-3.27-2.37-1.93-9.8,4.31-9.8,6.84,0,9.07,13.37-2.82,13.37-8.47,0-11.59-5.2-11.59-10.7,0-14.26,15.16-18.13,23.77-25.26,4.91-4,7.14-11,7.14-16.5,0-9.8-4.61-21.1-16.8-21.1-12.48,0-21.39,12.63-21.39,25.56v65.53c0,8.33,5,9.37,13.67,10,5.94.45,8,4.9,5.5,8.32-4.31,5.8-19,.15-21.55,3.57,2.23-9.36,19.32-1.93,19.32-7,0-1.93-2.38-2.67-10.55-2.67h-37C602.81,1698,600.14,1698.28,596.57,1700.5Z" transform="translate(-326.6 -1502.2)"/><path class="cls-2" d="M696.14,1639.21c0,5,20.36-1.79,22.59,7.58-2.53-3.42-20.51,1.63-24.82-4.17-2.52-3.41-.44-7,5.5-8.32,10.4-2.23,21.55-9.66,21.55-40.71v-6.24c0-16.35-1.49-26.6-5.35-30.47-4.76-4.75-12.34-2.82-12.34-11.29,0-8.17,12.78-8.62,18.13-11.29,3.27-1.64,6.84-3.87,5.35-8.32a10.14,10.14,0,0,1,2.53,6.53c0,4.76-3.86,7-8.62,8.18-6.84,1.63-15.16,0-15.16,5.49,0,5.65,10.26,6.39,20.66,1.19,9.51-4.75,12.93-11.88,22.88-14.26,0-6.39,8.77-2.08,12.49-2.08,2.52,0,5.79-1.79,8.76-4.31-5.35,10-18,11.89-20.36,8.62a29.14,29.14,0,0,0-14.11,25v27.34c0,37.15,1.48,46.51,11.59,46.51,3.86,0,4.31-2.67,7.13-2.67,5.5,0,12.19,4.31,14.71,12.63-6.54-5.64-10.4-7.58-19.17-7.58H714.57C698.52,1636.53,696.14,1637.28,696.14,1639.21Z" transform="translate(-326.6 -1502.2)"/><path class="cls-2" d="M791.34,1630.06c.15,31.06,8.91,50.08,22.73,50.08,17.09,0,28.09-17.09,27.49-32.69,2.08,13.37,4.76,17.53,9.51,20.35s4.91,9.07,7.88,12.93c-7.43,0-13.08-7.87-16.94-16.64,1.34,14.26,8.47,13.52,9.36,19.17.45,2.67.15,4.75,2.23,7-10.7-3.56-12.48-16.79-12.93-23.63-4,10.26-13.82,16.65-26.6,16.65-26.45,0-32.84-30-49-54.69,17.69-26.89,22-54.68,49.93-54.68,11.15,0,21.7,6.09,27.35,17.53,6.83-.44,4.16-16.05,11.88-16.05a8.91,8.91,0,0,1,3.57.9c-5,0-1.19,5.2-5,6.39-4.76,1.48-4,9.36-9.36,11,2.82.89,6.24-2.08,7.28-5.64s4.9-5.35,8.32-5.35a8.74,8.74,0,0,1,3.42.74c-4,1.19-4.46,2.67-5,4.16s-1.05,2.68-4.17,4.16c-6.39,2.82-7,7.43-7.43,11.89-.44,3.71-1,7.28-4.16,10.1a36.21,36.21,0,0,0,.9-7.87c0-16.5-13.38-29-26-29-18.87,0-25,25.71-25,49.48h4.16c15.9,0,23.18-5.2,28.82-22.88-1.33,13.22-1.33,34.77,0,51.12-5.64-19.32-12.92-24.52-28.82-24.52Z" transform="translate(-326.6 -1502.2)"/><path class="cls-2" d="M841,1747.32c0,5,20.36-1.78,22.59,7.58-2.53-3.42-20.51,1.63-24.82-4.16-2.53-3.42-.44-6.84,5.5-8.32,14.12-3.57,21.55-8,21.55-40.72v-6.24c0-16.35-1.49-26.6-5.35-30.47-4.76-4.75-12.34-2.82-12.34-11.29,0-8.17,12.78-8.62,18.13-11.29,3.27-1.64,6.84-3.86,5.35-8.32a10.16,10.16,0,0,1,2.53,6.54c0,4.75-3.87,7-8.62,8.17-6.84,1.63-15.16,0-15.16,5.5s10.25,6.39,19.17,1.18c11.15-6.38,18.72-15.75,27.05-15.75,3.41,0,6.83,1.64,11,5.8a42.75,42.75,0,0,0-9.81-1.34c-13.52,0-18.57,9.07-18.57,24.22v27.34c0,41.17,5.65,46.52,22.88,46.52,7.88,0,11-3.57,7.88-11.44-5.05-12.78,3.86-26,20.21-20.21-25.71-.9-11.15,27.19,1.34,34H859.44C843.39,1744.64,841,1745.39,841,1747.32Z" transform="translate(-326.6 -1502.2)"/><path class="cls-2" d="M357.05,1836.4,330.79,1824l1.35-2.86,9,.73,34.13-72.56-6.29-6.46,1.35-2.86,56.81,26.72-5.7,23.27-4.13.1-.51-21.23-30.55-14.38-14.37,30.56,20.53,9.65,8.31-7.75,2.86,1.35-11.68,24.82L389,1811.8l.67-11.35-20.53-9.66-17.07,36.28,6.3,6.46Z" transform="translate(-326.6 -1502.2)"/><path class="cls-2" d="M503,1855.21l-58.37,30.69-1.47-2.8,6-6.73-37.33-71-8.94,1.13-1.48-2.81L457,1774.5l15.13,18.57-2.41,3.35L452.48,1784l-29.88,15.72,15.72,29.88,20.07-10.56-1.17-11.3,2.8-1.47,12.77,24.28-2.8,1.47-8.65-7.37-20.08,10.56,18.67,35.48L491.68,1854l-.53-26,4.12-.09Z" transform="translate(-326.6 -1502.2)"/><path class="cls-2" d="M542.38,1845.53l-56-26,1.33-2.87,9,.68,33.73-72.75-6.33-6.42,1.33-2.88,26.33,12.21-1.34,2.87-9-.68-33.73,72.75,28.72,13.32,20.29-16.18,2.58,3.22Z" transform="translate(-326.6 -1502.2)"/><path class="cls-2" d="M630.19,1764.18c17.48,26.38,8,50.35-9.54,62l-31.67,21-1.74-2.64,5.28-7.3-44.29-66.84-8.79,2-1.74-2.64,31.66-21C587,1737.13,612.7,1737.79,630.19,1764.18Zm-71.85-.5,44.3,66.85,14.51-9.62c10.56-7,18.36-24.82,2-49.45s-35.78-24.39-46.33-17.39Z" transform="translate(-326.6 -1502.2)"/><path class="cls-2" d="M647.86,1835.84l-23.05-7.59.66-2,9.34-1.37,24.75-75.17-6.37-7.65.66-2,16,5.28,7.65,83.05L734,1766.46l16,5.28-.66,2-9.34,1.37L715,1851.28l6.7,6.65-.66,2-27.56-9.07.66-2,9.34-1.37,19-57.62-50.52,53.9-4.51-1.48-6.6-72.72-19,57.63,6.7,6.65Z" transform="translate(-326.6 -1502.2)"/><path class="cls-2" d="M766.26,1843.84l-23.16,7.23-1-3,7.12-5.54,6.26-77.38-5.3-6.36,4.5-8.59,4-1.26,57.49,72.7,9,.51,1,3-28.71,8.95-.94-3,7.11-5.53-14.09-17.71-31.73,9.89-1.52,22.58,9,.51Zm-5.2-71.6-2.58,38.66,26.94-8.4Z" transform="translate(-326.6 -1502.2)"/><path class="cls-2" d="M835.92,1851.3l-22.22-12.15,1.52-2.78,9.43.35,37.47-68.5-5.38-7.75,1.52-2.78,16.66,9.11,5.21,82.83,30.13-55.08-5.38-7.75,1.52-2.78,22.21,12.15-1.52,2.78-9.43-.35-41,75-7.41-4-4.78-88-32.4,59.24,5.38,7.76Z" transform="translate(-326.6 -1502.2)"/></svg>