<svg id="Calque_1" data-name="Calque 1" xmlns="http://www.w3.org/2000/svg" viewBox="0 0 1860.86 636.71"><title>gabriel5</title><path d="M62.81,193.93c0,52.83-6.47,94.33-14.7,94.33s-14.7-42.44-14.7-94.33S39.88,99.6,48.11,99.6,62.81,142.05,62.81,193.93Zm0,198.1c0,52.82-6.47,94.32-14.7,94.32S33.41,443.9,33.41,392s6.47-94.33,14.7-94.33S62.81,340.14,62.81,392Zm0,179.22c0,41.5-6.47,75.46-14.7,75.46s-14.7-34-14.7-75.46,6.47-75.47,14.7-75.47S62.81,529.74,62.81,571.25ZM283.31,71.31c0,12.26-52.33,23.58-117.6,23.58S48.11,83.57,48.11,71.31c0-13.21,52.33-23.58,117.6-23.58S283.31,59,283.31,71.31Zm0,589.55c0,12.26-52.33,23.58-117.6,23.58s-117.6-11.32-117.6-23.58c0-13.21,52.33-23.58,117.6-23.58S283.31,648.59,283.31,660.86ZM291,401.45c0,12.27-35.28,23.59-79.38,23.59s-79.38-11.32-79.38-23.59c0-13.2,35.28-23.57,79.38-23.57S291,389.19,291,401.45Zm12.94,136.78c0,65.09-6.47,117.91-14.7,117.91s-14.7-52.82-14.7-117.91,6.47-117.91,14.7-117.91S303.89,473.15,303.89,538.23Z" transform="translate(-33.41 -47.73)"/><path d="M371.48,193.93c0,52.83-6.47,94.33-14.7,94.33s-14.7-42.44-14.7-94.33,6.47-94.33,14.7-94.33S371.48,142.05,371.48,193.93Zm0,198.1c0,52.82-6.47,94.32-14.7,94.32s-14.7-42.45-14.7-94.32,6.47-94.33,14.7-94.33S371.48,340.14,371.48,392Zm0,198.08c0,52.82-6.47,94.33-14.7,94.33s-14.7-42.45-14.7-94.33,6.47-94.33,14.7-94.33S371.48,538.23,371.48,590.11ZM592,71.31c0,12.26-52.33,23.58-117.6,23.58s-117.6-11.32-117.6-23.58c0-13.21,52.33-23.58,117.6-23.58S592,59,592,71.31Zm-14.7,330.14c0,12.27-44.69,23.59-100,23.59-55.86,0-100-11.32-100-23.59,0-13.2,44.69-23.57,100-23.57S577.28,389.19,577.28,401.45Zm35.28-207.52c0,52.83-6.47,94.33-14.7,94.33s-14.7-42.44-14.7-94.33,6.47-94.33,14.7-94.33S612.56,142.05,612.56,193.93Zm0,198.1c0,52.82-6.47,94.32-14.7,94.32s-14.7-42.45-14.7-94.32,6.47-94.33,14.7-94.33S612.56,340.14,612.56,392Zm0,198.08c0,52.82-6.47,94.33-14.7,94.33s-14.7-42.45-14.7-94.33,6.47-94.33,14.7-94.33S612.56,538.23,612.56,590.11Z" transform="translate(-33.41 -47.73)"/><path d="M680.15,193.93c0,52.83-6.46,94.33-14.7,94.33s-14.7-42.44-14.7-94.33,6.47-94.33,14.7-94.33S680.15,142.05,680.15,193.93Zm0,198.1c0,52.82-6.46,94.32-14.7,94.32s-14.7-42.45-14.7-94.32,6.47-94.33,14.7-94.33S680.15,340.14,680.15,392Zm0,198.08c0,52.82-6.46,94.33-14.7,94.33s-14.7-42.45-14.7-94.33,6.47-94.33,14.7-94.33S680.15,538.23,680.15,590.11Zm220.5-518.8c0,12.26-52.33,23.58-117.6,23.58s-117.6-11.32-117.6-23.58c0-13.21,52.34-23.58,117.6-23.58S900.65,59,900.65,71.31ZM886,401.45C886,413.72,841.26,425,786,425c-55.86,0-100-11.32-100-23.59,0-13.2,44.69-23.57,100-23.57S886,389.19,886,401.45Zm0,259.41c0,12.26-44.69,23.58-100,23.58-55.86,0-100-11.32-100-23.58,0-13.21,44.69-23.58,100-23.58S886,648.59,886,660.86Zm35.28-410.33c0,84-6.47,150.92-14.7,150.92s-14.7-67.91-14.7-150.92S898.3,99.6,906.53,99.6,921.23,167.52,921.23,250.53Zm0,277.32c0,60.37-6.47,109.43-14.7,109.43s-14.7-49.06-14.7-109.43,6.47-109.41,14.7-109.41S921.23,467.48,921.23,527.85Z" transform="translate(-33.41 -47.73)"/><path d="M988.82,193.93c0,52.83-6.46,94.33-14.7,94.33s-14.7-42.44-14.7-94.33,6.47-94.33,14.7-94.33S988.82,142.05,988.82,193.93Zm0,198.1c0,52.82-6.46,94.32-14.7,94.32s-14.7-42.45-14.7-94.32,6.47-94.33,14.7-94.33S988.82,340.14,988.82,392Zm0,0c0,52.82-6.46,94.32-14.7,94.32s-14.7-42.45-14.7-94.32,6.47-94.33,14.7-94.33S988.82,340.14,988.82,392Zm0,198.08c0,52.82-6.46,94.33-14.7,94.33s-14.7-42.45-14.7-94.33,6.47-94.33,14.7-94.33S988.82,538.23,988.82,590.11Zm0,0c0,52.82-6.46,94.33-14.7,94.33s-14.7-42.45-14.7-94.33,6.47-94.33,14.7-94.33S988.82,538.23,988.82,590.11Zm220.5-518.8c0,12.26-52.33,23.58-117.6,23.58s-117.6-11.32-117.6-23.58c0-13.21,52.34-23.58,117.6-23.58S1209.32,59,1209.32,71.31Zm-14.7,330.14c0,12.27-44.69,23.59-100,23.59-55.86,0-100-11.32-100-23.59,0-13.2,44.69-23.57,100-23.57S1194.62,389.19,1194.62,401.45Zm-47,73.58c0,24.53-6.47,44.34-14.7,44.34s-14.7-19.81-14.7-44.34c0-25.47,6.47-45.28,14.7-45.28S1147.58,449.56,1147.58,475Zm63.5,63.2c0,12.26-18.22,23.58-41.16,23.58s-41.16-11.32-41.16-23.58c0-13.2,18.23-23.58,41.16-23.58S1211.08,526,1211.08,538.23Zm18.82-344.3c0,52.83-6.47,94.33-14.7,94.33s-14.7-42.44-14.7-94.33S1207,99.6,1215.2,99.6,1229.9,142.05,1229.9,193.93Zm0,155.65c0,29.24-6.47,51.87-14.7,51.87s-14.7-23.57-14.7-51.87,6.47-51.88,14.7-51.88S1229.9,321.28,1229.9,349.58Zm0,265.05c0,34.91-6.47,63.21-14.7,63.21s-14.7-28.3-14.7-63.21c0-34,6.47-62.25,14.7-62.25S1229.9,580.68,1229.9,614.63Z" transform="translate(-33.41 -47.73)"/><path d="M1297.5,175.07c0,65.08-6.47,117.91-14.7,117.91s-14.71-52.83-14.71-117.91,6.48-117.91,14.71-117.91S1297.5,110,1297.5,175.07Zm0,217c0,52.82-6.47,94.32-14.7,94.32s-14.71-42.45-14.71-94.32,6.48-94.33,14.71-94.33S1297.5,340.14,1297.5,392Zm0,198.08c0,52.82-6.47,94.33-14.7,94.33s-14.71-42.45-14.71-94.33,6.48-94.33,14.71-94.33S1297.5,538.23,1297.5,590.11Z" transform="translate(-33.41 -47.73)"/><path d="M1365.1,193.93c0,52.83-6.46,94.33-14.7,94.33s-14.7-42.44-14.7-94.33,6.47-94.33,14.7-94.33S1365.1,142.05,1365.1,193.93Zm0,198.1c0,52.82-6.46,94.32-14.7,94.32s-14.7-42.45-14.7-94.32,6.47-94.33,14.7-94.33S1365.1,340.14,1365.1,392Zm0,198.08c0,52.82-6.46,94.33-14.7,94.33s-14.7-42.45-14.7-94.33,6.47-94.33,14.7-94.33S1365.1,538.23,1365.1,590.11Zm220.5-518.8c0,12.26-52.33,23.58-117.6,23.58s-117.6-11.32-117.6-23.58c0-13.21,52.34-23.58,117.6-23.58S1585.6,59,1585.6,71.31Zm0,330.14C1585.6,413.72,1538,425,1478,425c-59.39,0-107-11.32-107-23.59,0-13.2,47.62-23.57,107-23.57S1585.6,389.19,1585.6,401.45Zm0,259.41c0,12.26-47.62,23.58-107.6,23.58-59.39,0-107-11.32-107-23.58,0-13.21,47.62-23.58,107-23.58S1585.6,648.59,1585.6,660.86Z" transform="translate(-33.41 -47.73)"/><path d="M1653.19,179.79c0,60.74-6.47,108.47-14.7,108.47s-14.7-48.81-14.7-108.47,6.47-108.48,14.7-108.48S1653.19,120.12,1653.19,179.79Zm0,212.24c0,52.82-6.47,94.32-14.7,94.32s-14.7-42.45-14.7-94.32,6.47-94.33,14.7-94.33S1653.19,340.14,1653.19,392Zm0,178.27c0,40.56-6.47,73.58-14.7,73.58s-14.7-33-14.7-73.58c0-41.5,6.47-74.52,14.7-74.52S1653.19,528.8,1653.19,570.3Zm241.08,90.56c0,12.26-60,23.58-135.24,23.58s-135.24-11.32-135.24-23.58c0-13.21,60-23.58,135.24-23.58C1833.71,637.28,1894.27,648.59,1894.27,660.86Z" transform="translate(-33.41 -47.73)"/></svg>