<svg xmlns="http://www.w3.org/2000/svg" xmlns:xlink="http://www.w3.org/1999/xlink" viewBox="0 0 273.92 456.54"><defs><style>.cls-1{fill:url(#Dégradé_sans_nom_186);}.cls-2{fill:url(#Dégradé_sans_nom_186-2);}</style><radialGradient id="Dégradé_sans_nom_186" cx="145.53" cy="73.25" r="14.58" gradientUnits="userSpaceOnUse"><stop offset="0" stop-color="#d2b8ee"/><stop offset="0.2" stop-color="#ffc7fa"/><stop offset="0.49" stop-color="#ffd9af"/><stop offset="0.75" stop-color="#c2e4cf"/><stop offset="1" stop-color="#94b3ff"/></radialGradient><radialGradient id="Dégradé_sans_nom_186-2" cx="134.85" cy="220.23" r="133.85" xlink:href="#Dégradé_sans_nom_186"/></defs><title>GABFELD</title><g id="Calque_2" data-name="Calque 2"><g id="Calque_1-2" data-name="Calque 1"><ellipse cx="136.96" cy="228.27" rx="136.96" ry="228.27"/><polygon class="cls-1" points="143.26 93.66 148.47 57.08 148.47 56.41 145.9 52.83 145.7 53.05 142.59 85.19 143.06 93.66 143.26 93.66"/><path class="cls-2" d="M228.35,302c0-19.2-4.47-24.33-8.8-24.33-.74,0-2.9,10.48-7.1,23.43-.27-13.83-3.78-23.43-7.3-23.43-.39,0-2.5,11.08-4.72,19.87-.69-12.39-4.31-23.21-8.44-23.21-2.54,1.95-7,8.88-11.13,16.58-1.55-9.38-5.07-11.9-8.32-11.9-.74,0-2.7,10.27-6.56,22.54-.2-18.29-4.87-22.54-9.13-22.54-.74,0-2.64,10-6.43,22.09-.13-14.28-3.72-22.09-7.3-22.09-.28,0-1.41,5.55-2.83,11.89.1-28.25.28-54,.56-70l-.4-1.12-11.64,17.63.61,4.68,1.29-1.79c2.43,5.37,2.5,15.18,2.77,40.16v.9L116,310.64c-2.14,3.6-3.83,9.18-4.58,19.33-.27-35.87,0-71.26.18-109.92l-.54-.45-7.78,12.05c.74,18.75,1,34.58,1,49.31a79.11,79.11,0,0,1-2,17.56c-1.74-8.22-4.6-18.68-6-18.68-1,0-4.26,4.47-7.51,9.38H73.19V246.38c1-2.24,2-2.67,2.91-2.67,1.82,0,4.06,4.9,5.81,11.37l.55-.22,5.34-17.4v-1.34c-2.84-7.81-7.24-11.82-9.67-11.82-.31,0-2.79,5.07-5.44,10.69.18-2.62.32-5.38.32-8.47,0-1.67-.06-3.3-.12-4.93,3-5.41,7.27-13.09,10.14-17.83a100.07,100.07,0,0,0,2.23,20.09c2.5-2.9,5.75-10,7.24-14l-.07-4.25c-1.42-2.89-2.37-6.25-2.37-14.06,0-6.41.37-36.13.4-44.49,1,2.14,1.89,5.47,1.89,10.8v44.84c2,5.37,5.07,11.61,8.92,19.87,5.75-5.59,11.91-16.74,15.08-23.43,1.49-5.35,4.06-14.51,4.06-32.35a213.83,213.83,0,0,0-1.28-24c1.61.72,2.92,3.42,2.92,13.33v63.15l.28.44L130.1,218c-.27-22.75-.33-44.62-.27-67.38v-5.8c1.35-3.8,1.35-3.8,4.2,5.13.18.49,2-4.16,3.59-8.69,1.43,1.44,2.56,3.8,2.67,12.15.13,18.3.13,40-.14,65.15l.48.9,7.57-5.59c0-4.48-.06-9.16-.08-13.88,2.18,10.39,5.54,17.21,9.38,17.21,2.43,0,7.64-10.27,11.09-16.07l-.21-6.69c-1.35.89-4.93,2-6.22,1.79-3.72-.67-5.81-5.58-7-12.5,4.41-11.71,11.17-30.75,13.75-39.4,1.31,4.58,2.92,11.15,2.92,24.07,0,13.39-.34,26.55-.34,39.94,0,5.13,3.12,12.27,4.74,12.27.88,0,3.58-8,5.48-12.27v-4.25c-2.3-3.56-2.37-6.25-2.44-10.7-.74-45.53-.34-88.8-.13-137.22l-.55-.45-7.77,12.05c.74,18.75,1,34.58,1,49.31a80.19,80.19,0,0,1-2.3,18.74c-1.38-8.14-5.23-23.49-6.94-23.49-1.89,0-13.05,17.41-14.47,21.87,0,.09-.06.26-.09.36-.74-14.13-3.58-21.15-7.52-17.51l-2,8.87c-1.33-4.39-2.94-8.95-3.17-8.32-1.76,4.91-4.06,12.94-5.75,18.07-.94-7.35-4-14.49-7-18.07-.45-.63-2.37,8.91-4.51,17.46-1.86-10.38-4.82-17.46-9-17.46l-8.93,22.76.61-82.55-.54-.89-7.84,11.6v54.88c.05,4.26-1.06,9.4-2.29,15.12-1.09-11-4.41-20-8.18-20-2.06,1.59-5.38,6.45-8.77,12.33-11-3.25-11.35-5.57-16.67-14.12-2.84,2.9-9.67,20.3-12.92,30.57a160.86,160.86,0,0,0-2.37,26.1c0,22.75,4,32.57,9.54,37-2.5,5.37-6.15,14.28-7.58,18.53-1.69,30.11,5.55,39.93,11.09,42.6,3.85-1.9,7.86-5.42,11.44-9.78a227.61,227.61,0,0,1-3.13,38.79v1.57c1.55,3.8,3.11,6,3.11,15.84v66l.4.67,7.17-6.47V308.63h7.37c-.74,6.24-1.28,16.29-1.28,31,0,24.33,5.27,45.08,12,45.08,2.43,0,7.64-10.26,11.09-16.07l-.2-6.69c-1.36.89-4.94,2-6.23,1.79-3.72-.67-5.81-5.58-7-12.5,4.33-11.49,10.9-30,13.59-38.88a89,89,0,0,1,1.86,19.92c0,13.39-.34,26.55-.34,39.94,0,5.13,3.11,12.27,4.73,12.27.88,0,3.58-8,5.48-12.27v-.5c2,7.07,4.87,11.92,8.8,13,3.38-6.47,7-14.73,10.28-21.2v1.34c-.07,10,1.49,19.64,4.6,19.64.92,0,3-9.22,4.77-14.57v10.65l.27.43,7.78-1.55c-.28-23.43-.34-45.74-.28-69.18v-.21c.88-2.68,2.24-5.81,3.59-5.81s3.38,2,3.65,8.26c.27,6.47.48,46,.2,67.82l.28.45,8-1.33c-.2-23.21-.2-46-.2-69.18.88-2.67,2.3-6,3.72-6,1.22,0,3.52,2,3.65,8.26.14,6.47.47,45.52.2,67.39l8.32-.45v-.06c3-5.35,8-14.46,11.27-19.81a100,100,0,0,0,2.23,20.08c2.5-2.89,5.75-10,7.24-14.05l-.07-4.24c-1.42-2.89-2.37-6.25-2.37-14.06,0-6.13.34-33.52.4-43.25,2.1.1,4.11,1.33,4.11,13.58v61.58l.27.44,7.77-1.55c-.27-20.75-.33-38.6-.27-67.39.82-2.67,2.71-7.81,4.47-7.81,1.55,0,3.65,1.79,3.65,9.82V379l.27.45,7.71-.67C228.35,353.12,228.35,327.68,228.35,302ZM156.41,130.9c3.12,0,4.74,11.37,4.74,16.73,0,10.25-3.59,21.19-7,28.33-.47-6-.61-12.71-.61-19.63C153.57,146.73,153.91,130.9,156.41,130.9Zm-55.75,15.3c1.22-2,2.64-4.23,4.33-4.23,4.47,0,7.71,10.48,7.71,28.55,0,16.07-1.83,29.9-5.68,29.9-3.18,0-6.9-6.25-6.9-21.42C100.12,169.4,99.85,156,100.66,146.2ZM83,195.74c-1.22,3.34-2.64,6-4,6-2.64,0-4.6-5.57-4.6-12.94,0-6.47,3.45-16.74,8.65-26.77C83.09,172.75,83,186.59,83,195.74ZM69,154c1.42-1.34,4.12-1.56,5.47-1.78L73.9,138c1.3-1.9,2.59-3.16,3.85-3.16,3.79,0,5.34,7.81,5.34,13.16v3.36c-4.77,11.76-12,31-15.89,42.88a27.1,27.1,0,0,0-5.15-7.42C64.69,177,67,163.6,69,154Zm-21.38,12.5a107.13,107.13,0,0,1,1.9-21c5.14-13.16,12.17.67,12.17,18.74a83.25,83.25,0,0,1-2.77,22.54C52.79,194.4,47.64,183.68,47.64,166.51ZM59.48,258c-4,0-8.72-7.81-8.72-26.79a80.11,80.11,0,0,1,3.17-21.85c6.7-5.13,11.7,5.57,12,22.3C66.11,245.93,63.67,258,59.48,258Zm28.45,85.44c-.47-6-.61-12.71-.61-19.63,0-9.6.34-25.43,2.84-25.43,3.12,0,4.74,11.37,4.74,16.73C94.9,325.35,91.32,336.29,87.93,343.43Zm23.86,14.9c.24,2.21.52,4.35.86,6.38A20.87,20.87,0,0,1,111.79,358.33Zm21.56-13.78c-1.49,12.49-4.13,18.74-6.9,18.74-3.65,0-7.51-9.38-7.51-27.22,0-17.62,3.38-29.89,7.58-29.89,2.16,0,6.55,2.89,6.89,22.53C133.41,333.61,133.35,339,133.35,344.55Zm6.82,7.36c0-14.91,0-30.58.07-45.91,1.36,1.09,2.41,4.16,2.41,13v45.3C140.76,362.85,140.17,359.09,140.17,351.91Zm53-.36c-1.22,3.35-2.64,6-4,6-2.64,0-4.6-5.57-4.6-12.94,0-6.47,3.45-16.74,8.66-26.77C193.21,328.56,193.14,342.41,193.14,351.55Zm.07-44.39c-3.31,8.14-7.77,19.85-11.52,30.25q0-17.32,0-34.71c0-1.67,0-3.19-.12-4.65,2.14-4.17,4.26-7.41,6.31-7.41,3.79,0,5.35,7.81,5.35,13.16Z"/></g></g></svg>