<svg id="Calque_1" data-name="Calque 1" xmlns="http://www.w3.org/2000/svg" xmlns:xlink="http://www.w3.org/1999/xlink" viewBox="0 0 1805 530.85"><defs><style>.cls-1{fill:url(#Dégradé_sans_nom_28);}.cls-2{fill:url(#Dégradé_sans_nom_28-2);}.cls-3{fill:url(#Dégradé_sans_nom_28-3);}.cls-4{fill:url(#Dégradé_sans_nom_28-4);}.cls-5{fill:url(#Dégradé_sans_nom_28-5);}.cls-6{fill:url(#Dégradé_sans_nom_28-6);}.cls-7{fill:url(#Dégradé_sans_nom_28-7);}</style><linearGradient id="Dégradé_sans_nom_28" x1="46.68" y1="211.68" x2="406.75" y2="571.75" gradientUnits="userSpaceOnUse"><stop offset="0" stop-color="#ff6a6e"/><stop offset="0.26" stop-color="#9aff55"/><stop offset="0.48" stop-color="#6ac2ff"/><stop offset="0.73" stop-color="#7f80ff"/><stop offset="0.93" stop-color="#ff94f3"/></linearGradient><linearGradient id="Dégradé_sans_nom_28-2" x1="349.9" y1="255.24" x2="687.92" y2="593.26" xlink:href="#Dégradé_sans_nom_28"/><linearGradient id="Dégradé_sans_nom_28-3" x1="605.23" y1="196.2" x2="955.95" y2="546.92" xlink:href="#Dégradé_sans_nom_28"/><linearGradient id="Dégradé_sans_nom_28-4" x1="892.41" y1="191.87" x2="1275.12" y2="574.57" xlink:href="#Dégradé_sans_nom_28"/><linearGradient id="Dégradé_sans_nom_28-5" x1="1163.26" y1="230.38" x2="1444.08" y2="511.2" xlink:href="#Dégradé_sans_nom_28"/><linearGradient id="Dégradé_sans_nom_28-6" x1="1310.78" y1="183.37" x2="1685.89" y2="558.47" xlink:href="#Dégradé_sans_nom_28"/><linearGradient id="Dégradé_sans_nom_28-7" x1="1546.61" y1="230.38" x2="1899.76" y2="583.53" xlink:href="#Dégradé_sans_nom_28"/></defs><title>gabriel4</title><path class="cls-1" d="M310.74,516q-14.64,56.18-41.69,88.21t-64.26,32q-46.14,0-78.4-23.44T75.9,531.58Q57.68,473.86,57.67,374.71q0-99.9,18.73-159.27t52.72-84.69q34-25.38,83.11-25.38,45.16,0,76.55,26.14t47.76,74.94q16.38,48.84,17.86,116.74H289.9q-5.72-31.26-23.32-50.38t-54.35-19.13q-32.25,0-51.85,12.11T131.6,304.45q-9.18,26.54-9.18,70.26,0,39,9.55,64t30.4,37.07q20.85,12.11,54.83,12.1,35.22,0,57.69-14.45A119.64,119.64,0,0,0,312,435.56l14.89-46.82Q325.37,459.8,310.74,516Zm47.14-71.83H225.67v-82H357.88Zm0-82V620.61H309.25q0-40.59,6.58-112t16.25-146.37Z" transform="translate(-57.67 -105.37)"/><path class="cls-2" d="M484.17,121h69l107.4,499.64H592.35L500.29,173.29h37L446,620.61H377.73ZM433.31,427.79H603V544.88H433.31Z" transform="translate(-57.67 -105.37)"/><path class="cls-3" d="M742.45,121V620.61h-62V121Zm94.28,0,2,146.79H703.25V121Zm2,212.35,10.42,74.94H703.25V333.37Zm10.42,140.53V620.61H708.21V473.85ZM836.73,121q32.76,0,53.22,12.89T920.47,176q10,29.25,10,77.66,0,53.91-13.28,79.64t-36.34,33.2q-23.08,7.38-64,7.4l21.82-40.55q13.14,0,19-7.81c3.89-5.18,5.82-13.54,5.82-25s-1.93-19.79-5.82-25-10.22-7.78-19-7.78ZM816.88,367.66l20.6-.76q36-.75,55.7,4.29t32.49,29.66q12.76,24.6,12.77,78.47,0,71-23.56,106.16t-65.75,35.13V473.85q13.14,0,19-7.81T874,441q0-17.19-5.83-25c-3.89-5.18-10.22-7.81-19-7.81Z" transform="translate(-57.67 -105.37)"/><path class="cls-4" d="M1025.3,121V620.61h-62V121Zm129.77,0V277.13H1023.81V121Zm0,228.74-9.69,130.37H1023.81V349.71Zm-10.4,78.08q35.24,0,52.73,6.64T1222,459q7.08,18,7.07,54.63v107h-62V537.07q0-25-3-36.28t-12.15-16q-9.18-4.73-29.52-4.7ZM1155.07,121q36.71,0,58.18,40.21t21.42,131.54q0,68.73-12.53,101.11t-30.39,39.81q-17.85,7.44-46.4,7.43l9.69-91.36q8.18,0,12.9-8.19t4.7-29.29q0-19.49-4.7-27.32t-12.9-7.78Z" transform="translate(-57.67 -105.37)"/><path class="cls-5" d="M1334.67,121V620.61h-62V121Z" transform="translate(-57.67 -105.37)"/><path class="cls-6" d="M1435.17,121V620.61h-62V121Zm188.07,0V269.31h-192V121ZM1589,331.76v78.05H1431.2V331.76Zm34.74,140.54V620.61H1431.2V472.3Z" transform="translate(-57.67 -105.37)"/><path class="cls-7" d="M1718,121V620.61h-62V121ZM1862.67,472.3V620.61H1680.55V472.3Z" transform="translate(-57.67 -105.37)"/></svg>