<svg xmlns="http://www.w3.org/2000/svg" viewBox="0 0 1008.04 54.35"><defs><style>.cls-1{fill:none;}</style></defs><title>gabriel3_1</title><g id="Calque_2" data-name="Calque 2"><g id="Calque_1-2" data-name="Calque 1"><rect class="cls-1" x="0.21" y="0.05" width="1007.83" height="54.27"/><path d="M36.38,2.81Q44,6.86,45.67,17H38.74q-1.23-5.65-5.13-8.24A17.3,17.3,0,0,0,23.8,6.15,15.28,15.28,0,0,0,12,11.53q-4.8,5.39-4.8,16,0,9.21,4,15t12.92,5.78a16.31,16.31,0,0,0,11.36-4.06q4.48-4.06,4.6-13.13H23.84v-5.8H46.51V53H42l-1.69-6.64a26.06,26.06,0,0,1-6.19,5.41,22.93,22.93,0,0,1-11.51,2.6A22.22,22.22,0,0,1,7.09,48.41Q0,41,0,28T6.93,7.31Q13.52,0,24,0A25.89,25.89,0,0,1,36.38,2.81Z"/><path d="M77.34,30.19a3.41,3.41,0,0,0,2.92-1.82,5.66,5.66,0,0,0,.42-2.44,5.17,5.17,0,0,0-2.29-4.71,12.37,12.37,0,0,0-6.58-1.46q-4.95,0-7,2.68a9,9,0,0,0-1.51,4.42h-5.9q.16-7,4.51-9.71A18.47,18.47,0,0,1,72,14.41q6.63,0,10.78,2.54c2.74,1.68,4.11,4.31,4.11,7.87V46.51a2.74,2.74,0,0,0,.4,1.58,2,2,0,0,0,1.71.6c.28,0,.59,0,.94,0s.73-.09,1.13-.16v4.68a17.53,17.53,0,0,1-2.25.52,16.42,16.42,0,0,1-2.11.11,5.21,5.21,0,0,1-4.75-2.32A9.2,9.2,0,0,1,80.82,48a16,16,0,0,1-5.55,4.39,17.1,17.1,0,0,1-8,1.87,11.87,11.87,0,0,1-8.56-3.18,10.53,10.53,0,0,1-3.32-8q0-5.23,3.27-8.12a15.5,15.5,0,0,1,8.57-3.54ZM64,47.29a7.47,7.47,0,0,0,4.75,1.58,14.42,14.42,0,0,0,6.46-1.55,8.69,8.69,0,0,0,5.28-8.39V33.84a10.65,10.65,0,0,1-3,1.24,25.1,25.1,0,0,1-3.58.7l-3.83.49A15,15,0,0,0,65,37.71,5.59,5.59,0,0,0,62,43,5.18,5.18,0,0,0,64,47.29Z"/><path d="M96.68,1.16h6.15V19.9a13.91,13.91,0,0,1,11.26-5.56,14.76,14.76,0,0,1,11.45,4.84q4.39,4.83,4.4,14.25,0,8.94-4.34,14.84a14.11,14.11,0,0,1-12,5.91,12.4,12.4,0,0,1-7.27-2.08,17.53,17.53,0,0,1-3.77-3.94V53H96.68Zm24.2,43.35q2.55-4.08,2.55-10.76a17.64,17.64,0,0,0-2.55-9.84A8.43,8.43,0,0,0,113.34,20a10.54,10.54,0,0,0-7.6,3.2q-3.26,3.21-3.26,10.55a23.28,23.28,0,0,0,1.34,8.61q2.5,6.22,9.35,6.23A8.5,8.5,0,0,0,120.88,44.51Z"/><path d="M137.43,15.33h6v6.5a14.45,14.45,0,0,1,3.62-4.62,9.36,9.36,0,0,1,6.64-2.73l.6,0,1.44.14v6.68a8.67,8.67,0,0,0-1-.14c-.32,0-.67,0-1,0a9,9,0,0,0-7.35,3.08,10.74,10.74,0,0,0-2.57,7.08V53h-6.32Z"/><path d="M161.23,1.34h6.43V8.51h-6.43Zm0,14.16h6.43V53h-6.43Z"/><path d="M200.48,16.37a14.2,14.2,0,0,1,5.69,4.86,16.89,16.89,0,0,1,2.52,6.65,43.93,43.93,0,0,1,.56,8.3H181.86a16.29,16.29,0,0,0,2.69,9.21c1.67,2.32,4.27,3.48,7.78,3.48a10,10,0,0,0,7.85-3.29,11.27,11.27,0,0,0,2.32-4.41h6.22a13.13,13.13,0,0,1-1.63,4.62A16.77,16.77,0,0,1,204,50a14.6,14.6,0,0,1-7.08,3.79,21.13,21.13,0,0,1-5.13.57,15.73,15.73,0,0,1-11.85-5.12q-4.85-5.12-4.85-14.32T180,20.14a16.1,16.1,0,0,1,12.79-5.66A16.92,16.92,0,0,1,200.48,16.37Zm2.27,14.78A16.6,16.6,0,0,0,201,24.57Q198.39,20,192.36,20a9.5,9.5,0,0,0-7.25,3.15,11.93,11.93,0,0,0-3.11,8Z"/><path d="M217.44,1.34h6.33V53h-6.33Z"/><path d="M504,1.25h35.82V7.58H511V23.26h25.35v6.15H511V52.89h-7Z"/><path d="M569.76,16.28a14.24,14.24,0,0,1,5.7,4.87A16.92,16.92,0,0,1,578,27.79a44,44,0,0,1,.56,8.3H551.14a16.35,16.35,0,0,0,2.69,9.22c1.67,2.31,4.27,3.47,7.78,3.47a10,10,0,0,0,7.85-3.28,11.25,11.25,0,0,0,2.32-4.42H578a13.13,13.13,0,0,1-1.63,4.62,16.77,16.77,0,0,1-3.1,4.17,14.7,14.7,0,0,1-7.08,3.8,21.61,21.61,0,0,1-5.13.56,15.69,15.69,0,0,1-11.84-5.12q-4.86-5.11-4.86-14.32t4.89-14.73A16.07,16.07,0,0,1,562,14.4,16.91,16.91,0,0,1,569.76,16.28ZM572,31.06a16.55,16.55,0,0,0-1.78-6.57q-2.58-4.57-8.61-4.57a9.49,9.49,0,0,0-7.25,3.14,11.94,11.94,0,0,0-3.1,8Z"/><path d="M586.72,1.25h6.33V52.89h-6.33Z"/><path d="M623.23,16.4a17,17,0,0,1,3.82,3.69v-19h6.08V52.89h-5.7V47.65a13.65,13.65,0,0,1-5.22,5,14.85,14.85,0,0,1-6.89,1.55,14,14,0,0,1-10.86-5.29q-4.59-5.3-4.59-14.08a24.38,24.38,0,0,1,4.19-14.26,13.68,13.68,0,0,1,12-6A13.29,13.29,0,0,1,623.23,16.4ZM609.1,44.63c1.71,2.72,4.43,4.08,8.19,4.08a8.62,8.62,0,0,0,7.19-3.78q2.81-3.78,2.81-10.85c0-4.75-1-8.28-2.9-10.56a9,9,0,0,0-7.17-3.43,9.44,9.44,0,0,0-7.71,3.66q-3,3.66-3,10.76A18.74,18.74,0,0,0,609.1,44.63Z"/><path d="M642.59,15.24h6.25v5.34a20.91,20.91,0,0,1,4.08-4A12.26,12.26,0,0,1,660,14.4a11.18,11.18,0,0,1,7.25,2.21,11.78,11.78,0,0,1,2.81,3.73,13.55,13.55,0,0,1,5-4.48,13.7,13.7,0,0,1,6.39-1.46q7.61,0,10.34,5.48a18,18,0,0,1,1.48,8V52.89h-6.58V26.74q0-3.76-1.88-5.17a7.42,7.42,0,0,0-4.59-1.41,9.07,9.07,0,0,0-6.41,2.5C672,24.32,671.1,27.1,671.1,31v21.9h-6.44V28.32a12.75,12.75,0,0,0-.91-5.59q-1.44-2.64-5.38-2.64a9.29,9.29,0,0,0-6.52,2.78q-2.94,2.77-2.94,10.05v20h-6.32Z"/><path d="M722.74,30.11a3.44,3.44,0,0,0,2.92-1.83,5.58,5.58,0,0,0,.42-2.43,5.17,5.17,0,0,0-2.3-4.72,12.3,12.3,0,0,0-6.57-1.46q-5,0-7,2.69a8.81,8.81,0,0,0-1.51,4.41h-5.91q.18-7,4.52-9.71a18.47,18.47,0,0,1,10.06-2.73q6.63,0,10.78,2.53c2.73,1.68,4.1,4.31,4.1,7.87v21.7a2.78,2.78,0,0,0,.41,1.58,2,2,0,0,0,1.7.59,8.19,8.19,0,0,0,.95-.05c.35,0,.73-.09,1.13-.16v4.68a18.37,18.37,0,0,1-2.25.53,16.74,16.74,0,0,1-2.11.1,5.21,5.21,0,0,1-4.75-2.32,9,9,0,0,1-1.09-3.48,16.2,16.2,0,0,1-5.55,4.4,17.24,17.24,0,0,1-8,1.86A11.85,11.85,0,0,1,704.13,51,10.54,10.54,0,0,1,700.8,43q0-5.23,3.27-8.11a15.53,15.53,0,0,1,8.58-3.55ZM709.42,47.2a7.44,7.44,0,0,0,4.74,1.58,14.55,14.55,0,0,0,6.47-1.54,8.7,8.7,0,0,0,5.28-8.39V33.76a11,11,0,0,1-3,1.23,26.5,26.5,0,0,1-3.57.71l-3.83.49a14.55,14.55,0,0,0-5.17,1.44,5.58,5.58,0,0,0-2.94,5.26A5.18,5.18,0,0,0,709.42,47.2Z"/><path d="M742.61,15.24h6v5.34a16.87,16.87,0,0,1,5.66-4.74,15.07,15.07,0,0,1,6.64-1.44c5.35,0,9,1.86,10.83,5.59,1,2,1.55,5,1.55,8.75V52.89h-6.44V29.16a12.82,12.82,0,0,0-1-5.55q-1.68-3.52-6.11-3.52a12.26,12.26,0,0,0-3.69.46,9.54,9.54,0,0,0-4.58,3.09,9.29,9.29,0,0,0-2.05,3.85,25.69,25.69,0,0,0-.48,5.68V52.89h-6.32Z"/></g></g></svg>