<svg xmlns="http://www.w3.org/2000/svg" viewBox="0 0 292.32 174.41"><title>gabriel6</title><g id="Calque_2" data-name="Calque 2"><g id="Calque_1-2" data-name="Calque 1"><path d="M29.52,52.88C36.58,53.52,39,64.25,48.75,62c-4,1.87-5.91,7.13-5.91,12.24,0,4.25,1,9,4.32,11.95A14.87,14.87,0,0,1,39,80.74c-1.08,1.8-5.84,5.69-13.76,5.69C10.73,86.43,7.85,71.67,0,59.72c6.55-9.94,12.1-26.43,25.2-26.43,10.08,0,11.16,6.41,14.4,7a6,6,0,0,1,4.61-6,5.11,5.11,0,0,0-.79,6h-2a17.58,17.58,0,0,0,2.16,14c-3-2.23-4.89-4.6-5.76-7.56C36.22,41.14,32.91,34.8,25.35,34.8c-9.65,0-12.61,9.51-12.61,24.92S16.27,85,25.2,85c7.92,0,11.67-7.2,11.67-13.25,0-6.62-2.16-17.42-7.78-17.78-3.1-.22-6.41,2.37-6,7,.29,3,4.47,1.8,5.4,3.53a1.66,1.66,0,0,1-1.94,2.31,7.57,7.57,0,0,1,1.3,4,4.22,4.22,0,0,1-4.32,4.24,3.06,3.06,0,0,1-3.24-3.16,2.92,2.92,0,0,0,3,2.59,3,3,0,0,0,3.17-3.1c0-2.88-4.25-5.47-4.54-10.58S25.56,52.52,29.52,52.88Z"/><path d="M98.89,97.89c-1.72-1.08-3-1.23-5.9-1.23H76.21c-6.34,0-9.5,1.88-9.5,3.53s2.59,2.81,7.7,2.52c-7.7,2.59-11.38-.29-11.38-2.52,0-2,3.39-5,10.45-4.61,3.45.22,5.83.36,5.83-5V80.68H62.53c.29,7.2-1.3,12.89-8,15.19,6.26-3.67,7.13-14.18,7.13-21.1l.07-6.12c.07-6,2.45-15.84,10.08-15.84v-5.4c-10.73,7.27-11.45,14.12-11.45,28.3,0,6.05-1.08,12-3.67,15.77-5,7.49-12,5.4-13.54,5-1.8-.43-3.24.43-3.24,2,0,2,1.73,2.8,4.39,3.09-2.73,1.3-8.13-.07-8.13-4.25,0-3.38,4.82-4.1,7.27-7.85-.51,4,1.44,5.84,4,5.84,3.67,0,8.64-3.89,8.64-10.37,0-1.59-.57-2.67-1.8-2.67s-1.87.72-3,.72c-1.87,0-3.1-1.36-3.1-5.54,0-10.87,9.58-24,21.24-30.17H57c0,3.1-3.53,1.15-5.62,1.15a7.72,7.72,0,0,0-4.68,1.95,9.11,9.11,0,0,1,7.78-4.9,2.68,2.68,0,0,1,2.08.72H89.39c-.36-1.08-.07-2.95,1.15-2.95s2.3,1.94,4.25,1.94A3.8,3.8,0,0,0,96,45c-.86,1.66-2.88,4-4.53,4A1.71,1.71,0,0,1,90,47.84c-2.88,3.46-3.45,7.35-3.45,25,0,14.54.72,22.32,4.82,22.32,1.23,0,2.23-.93,3.39-.93C96.44,94.22,98.75,96.23,98.89,97.89ZM79.31,74.77H62.46c-.07,1.37-.07,3,0,4.83H79.31Zm0-17.71c0-6.7,0-9,2.16-9.72H72.61V58c-5.33-2-9.72,1.51-10.15,10.22H79.31Z"/><path d="M137.4,52.88c0,10.3-8.71,15.34-18.57,15.34-10.16,0-11.53-6.26-23.19-5.76-3.46.14-5.4.43-5.4,1.37,0,2.45,11.09-1.44,11.66,3.67-1.87-2-10.65.79-12.74-2-1.23-1.66-.22-3.39,2.66-4,7-1.58,7.78,1.8,7.78-15.34v-3c0-7.92-.72-12.89-2.59-14.76C94.7,26,91,27,91,22.86s6.19-4.18,8.79-5.48c1.58-.79,3.31-1.87,2.59-4a5,5,0,0,1,1.22,3.17c0,2.3-1.87,3.38-4.17,4-3.32.79-7.35,0-7.35,2.67s5,3.09,9.29.57c7.85-4.61,9.5-8.78,18-8.78,6.77,0,15.34,4.68,15.34,13,0,5.4-3.53,10.37-10.51,12.89C134.16,41.65,137.4,47.41,137.4,52.88Zm-23-16.7c-.14-5,5.26-5.19,3.31-7.78-1.29-1.73.58-2.88,0-4.1,3.82,2.37,3.39,8.57.87,9.86.14-2.09-3.24-1.22-3,2,.15,2.66,3,4,4.9,4,3.46,0,7-3.89,7-10.37,0-8.93-4.75-13.39-9.86-13.39-5.47,0-11.45,5.18-11.45,16V43.24c0,17.35,5.33,23.54,12.6,23.54,6.27,0,10.23-6.48,10.23-12.82s-1.59-9.86-7.06-11.59C118.54,41.29,114.51,40.35,114.36,36.18Z"/><path d="M130,84.57c.14-1.65,2.45-3.67,4.17-3.67,2,0,3.39,2.81,6.77-1.15,1.73-2,2.6-5.84,2.6-20.24,0-8-.72-13.61-2.6-15.48-2.3-2.3-7.05-1-7.05-5.47s7.27-4.18,9.86-5.47c1.59-.8,3.31-1.88,2.59-4a4.92,4.92,0,0,1,1.23,3.17c0,2.31-1.87,3.39-4.18,4-3.31.8-8.42-.43-8.42,2.67s6,3.09,11.09.57c7-3.45,8.92-7.7,16.34-7.7S178,36.83,178,44.1c0,5.19-2.37,9.72-7.41,11.17,5,1.58,10.87,5.47,10.87,18.36-4.18-1.23-7.49,1.58-7.49,5a5.22,5.22,0,0,0,5.4,5.47,5.47,5.47,0,0,0,5.26-6.63,6.26,6.26,0,0,1-5.91,8.36c-3.67,0-7.77-3-7.77-8.65,0-3.88,1.8-6.69,1.8-10.65,0-13.4-16.92-11.23-16.92-2.88a3.31,3.31,0,0,0,3.38,3.6c-1.58-1.15-.94-4.75,2.09-4.75,3.31,0,4.39,6.48-1.37,6.48-4.1,0-5.62-2.52-5.62-5.19,0-6.91,7.35-8.78,11.53-12.24a10.71,10.71,0,0,0,3.45-8c0-4.76-2.23-10.23-8.14-10.23s-10.36,6.12-10.36,12.39V77.44c0,4,2.44,4.54,6.62,4.83,2.88.21,3.89,2.37,2.66,4-2.08,2.81-9.21.07-10.44,1.73,1.08-4.54,9.36-.94,9.36-3.39,0-.93-1.15-1.29-5.11-1.29H135.92C133,83.35,131.75,83.49,130,84.57Z"/><path d="M178.27,54.87c0,2.45,9.86-.87,10.94,3.67-1.22-1.66-9.93.79-12-2-1.23-1.65-.22-3.38,2.66-4,5-1.08,10.44-4.68,10.44-19.73v-3c0-7.92-.72-12.89-2.59-14.76-2.3-2.31-6-1.37-6-5.48s6.2-4.17,8.79-5.47c1.58-.79,3.31-1.87,2.59-4a4.88,4.88,0,0,1,1.22,3.17c0,2.3-1.87,3.38-4.17,4-3.31.79-7.35,0-7.35,2.66s5,3.1,10,.58c4.61-2.31,6.27-5.76,11.09-6.91,0-3.1,4.25-1,6-1A7.58,7.58,0,0,0,214.2.36c-2.59,4.82-8.71,5.76-9.87,4.18a14.12,14.12,0,0,0-6.84,12.09V29.88c0,18,.72,22.54,5.62,22.54,1.87,0,2.09-1.3,3.46-1.3,2.66,0,5.9,2.09,7.12,6.12-3.16-2.73-5-3.67-9.28-3.67H187.2C179.42,53.57,178.27,53.93,178.27,54.87Z"/><path d="M224.4,50.44c.07,15,4.32,24.26,11,24.26,8.28,0,13.61-8.28,13.32-15.84,1,6.48,2.31,8.5,4.61,9.87s2.38,4.39,3.82,6.26c-3.6,0-6.34-3.82-8.21-8.06.65,6.91,4.1,6.55,4.54,9.28.21,1.3.07,2.31,1.08,3.39-5.19-1.73-6-8.14-6.27-11.45-1.94,5-6.69,8.06-12.89,8.06-12.81,0-15.91-14.54-23.76-26.49,8.57-13,10.66-26.5,24.19-26.5a14.65,14.65,0,0,1,13.25,8.49c3.32-.21,2-7.77,5.76-7.77a4.29,4.29,0,0,1,1.73.43c-2.45,0-.57,2.52-2.45,3.1-2.3.72-1.94,4.53-4.53,5.32,1.37.44,3-1,3.53-2.73a4.06,4.06,0,0,1,4-2.59,4.18,4.18,0,0,1,1.65.36c-1.94.57-2.16,1.29-2.44,2s-.51,1.3-2,2c-3.1,1.37-3.38,3.6-3.6,5.76-.22,1.8-.5,3.53-2,4.9a17.71,17.71,0,0,0,.44-3.82c0-8-6.48-14-12.61-14-9.14,0-12.09,12.45-12.09,24h2c7.71,0,11.24-2.52,14-11.09a157.23,157.23,0,0,0,0,24.77c-2.73-9.36-6.26-11.88-14-11.88Z"/><path d="M248.47,107.26c0,2.44,9.86-.87,10.94,3.67-1.22-1.66-9.94.79-12-2-1.23-1.65-.22-3.31,2.66-4,6.84-1.73,10.44-3.89,10.44-19.73v-3c0-7.93-.72-12.89-2.59-14.77-2.31-2.3-6-1.36-6-5.47s6.19-4.17,8.79-5.47c1.58-.79,3.31-1.87,2.59-4a4.94,4.94,0,0,1,1.22,3.17c0,2.3-1.87,3.38-4.17,4-3.32.79-7.35,0-7.35,2.66s5,3.1,9.29.58c5.4-3.1,9.07-7.64,13.11-7.64,1.65,0,3.31.8,5.32,2.81a20.79,20.79,0,0,0-4.75-.65c-6.55,0-9,4.4-9,11.74V82.27c0,20,2.74,22.54,11.09,22.54,3.82,0,5.33-1.73,3.82-5.55-2.45-6.19,1.87-12.6,9.79-9.79-12.46-.43-5.4,13.18.65,16.49H257.39C249.62,106,248.47,106.32,248.47,107.26Z"/><path d="M14,150.42l-12.72-6,.65-1.38,4.36.35,16.54-35.16-3.05-3.13.66-1.39,27.52,13L45.15,128l-2,0-.24-10.28-14.81-7-7,14.81,9.94,4.68,4-3.76,1.39.65-5.66,12-1.39-.65.33-5.5-10-4.68L11.56,145.9l3,3.13Z"/><path d="M84.69,159.54,56.41,174.41l-.71-1.36,2.9-3.26L40.52,135.4l-4.34.55-.71-1.36,26.92-14.16,7.33,9-1.16,1.62-8.36-6-14.48,7.61,7.61,14.48L63.06,142l-.57-5.48,1.36-.71L70,147.6l-1.36.71-4.19-3.57-9.73,5.12,9.05,17.19L79.19,159l-.26-12.57,2,0Z"/><path d="M103.76,154.85,76.63,142.27l.64-1.39,4.36.32L98,106l-3.07-3.11.65-1.39,12.75,5.91-.64,1.39-4.36-.33L87,143.68l13.92,6.45,9.83-7.84,1.25,1.56Z"/><path d="M146.31,115.42c8.47,12.79,3.9,24.41-4.62,30.05l-15.35,10.17-.84-1.28,2.56-3.54-21.47-32.39-4.25,1-.85-1.28L116.83,108C125.36,102.32,137.84,102.64,146.31,115.42Zm-34.81-.24L133,147.58l7-4.66c5.12-3.39,8.9-12,1-24s-17.34-11.81-22.45-8.43Z"/><path d="M154.87,150.15l-11.17-3.68.32-1,4.53-.66,12-36.42-3.09-3.71.32-1,7.77,2.56,3.71,40.24,27.37-30,7.77,2.56-.32,1-4.52.66L187.4,157.63l3.24,3.22-.32,1L177,157.43l.32-1,4.52-.66,9.2-27.92L166.53,154l-2.19-.72L161.14,118,152,146l3.24,3.22Z"/><path d="M212.25,154,201,157.53l-.46-1.47,3.45-2.68,3-37.5-2.56-3.08,2.18-4.16,2-.61,27.86,35.23,4.36.25.46,1.46-13.91,4.34-.46-1.47,3.45-2.68-6.83-8.58-15.37,4.8-.74,10.94,4.36.24Zm-2.52-34.7-1.26,18.74L221.53,134Z"/><path d="M246,157.64l-10.77-5.89.74-1.34,4.57.17,18.15-33.2-2.6-3.75.73-1.35,8.08,4.42,2.52,40.13L282,130.14l-2.61-3.76.74-1.34,10.76,5.89-.73,1.34-4.57-.17-19.88,36.34-3.58-2-2.32-42.65-15.7,28.71,2.6,3.76Z"/></g></g></svg>