<svg xmlns="http://www.w3.org/2000/svg" viewBox="0 0 320.76 92.9"><defs><style>.cls-1{fill:#fff;}</style></defs><title>gabriel1</title><g id="Calque_2" data-name="Calque 2"><g id="Calque_1-2" data-name="Calque 1"><path d="M312.42,16.23a23,23,0,0,0-3.14-.54,28,28,0,0,0-2.95-.17,20.82,20.82,0,0,0-6.6,1.05,10.9,10.9,0,0,0-2.42-.46l.23-1A11,11,0,0,0,290,2.07c-1.09-.32-2.45-.63-4.27-1a37,37,0,0,0-6.58-.56A26.12,26.12,0,0,0,267.74,3a21.43,21.43,0,0,0-9.26,8.5,22.25,22.25,0,0,0-2.33,5.53,11.06,11.06,0,0,0-2.09,1.26V14a11,11,0,0,0-11-11H232.65a11,11,0,0,0-5.88,1.71l-1.63,1A10.92,10.92,0,0,0,217.9,3H207a11,11,0,0,0-11,11v3a33.16,33.16,0,0,0-19.2-.06c0-.16,0-.31,0-.46a16.2,16.2,0,0,0-5.22-11.93,17.16,17.16,0,0,0-23.34,0,16.11,16.11,0,0,0-5.22,11.79,11.26,11.26,0,0,0-2.55-.3H130a11,11,0,0,0-6.58,2.2,25.71,25.71,0,0,0-11.58-2.71h-.5V14a11,11,0,0,0-11-11H89.39a11,11,0,0,0-11,11v2.65a36.31,36.31,0,0,0-8.83-1.07,33.27,33.27,0,0,0-12.34,2.2c-.43.17-.84.35-1.25.54a11,11,0,0,0-6.62-2.23H38.54a11,11,0,0,0-3.82.68,24.67,24.67,0,0,0-7.82-1.19,25.85,25.85,0,0,0-13.7,3.85A26.43,26.43,0,0,0,3.28,30.69,36.24,36.24,0,0,0,0,46.64,34.85,34.85,0,0,0,3.3,62.35q.33.66.69,1.29a10.92,10.92,0,0,0-2.54,9.63A22.89,22.89,0,0,0,6.9,83.87a26.12,26.12,0,0,0,10.25,6.86,36.41,36.41,0,0,0,13,2.17,38.23,38.23,0,0,0,14-2.46A25.74,25.74,0,0,0,55.79,81.6a22.93,22.93,0,0,0,2.36-4.1,29.6,29.6,0,0,0,6,.6,26.52,26.52,0,0,0,8.4-1.28,10.88,10.88,0,0,0,3.39.53H86.23a11.75,11.75,0,0,0,1.58-.12,11.75,11.75,0,0,0,1.58.12h10.74a11,11,0,0,0,3.64-.61,24.67,24.67,0,0,0,8,1.25,25.69,25.69,0,0,0,11.72-2.75A10.93,10.93,0,0,0,130,77.35h10.9a10.91,10.91,0,0,0,6.8-2.36,11,11,0,0,0,6.81,2.36h10.89a11,11,0,0,0,6.9-2.43,32.23,32.23,0,0,0,14.5,3.2,33.89,33.89,0,0,0,12.69-2.29c.4-.16.8-.34,1.2-.52a11,11,0,0,0,6.37,2H217.9a11,11,0,0,0,7-2.56A11,11,0,0,0,232,77.36h11.07a11,11,0,0,0,4.76-1.1,17.12,17.12,0,0,0,14.41.33,11,11,0,0,0,4,.77h10.87a10.94,10.94,0,0,0,4.4-.93,11,11,0,0,0,4.41.93h10.89a11,11,0,0,0,11-11v-19a11.56,11.56,0,0,0,1.94.17,11,11,0,0,0,11-11V26.9A11,11,0,0,0,312.42,16.23Z"/><path class="cls-1" d="M38.54,33.68h-.41A15.51,15.51,0,0,0,36,30.44a11,11,0,0,0-3.59-2.76,12.35,12.35,0,0,0-5.53-1.11A14.84,14.84,0,0,0,19,28.8a15.57,15.57,0,0,0-5.79,6.69A25.44,25.44,0,0,0,11,46.64a24,24,0,0,0,2.13,10.78,14.49,14.49,0,0,0,5.76,6.31,15.88,15.88,0,0,0,8,2.06,14,14,0,0,0,5.37-.92A10.6,10.6,0,0,0,36,62.49a10.47,10.47,0,0,0,2.15-3.09h.46v7.18q0,4-2.32,5.77a9.52,9.52,0,0,1-5.86,1.73,11.33,11.33,0,0,1-4-.63,7.31,7.31,0,0,1-2.65-1.65,6.47,6.47,0,0,1-1.45-2.2L12.2,71a12.1,12.1,0,0,0,2.89,5.57,15.23,15.23,0,0,0,6,3.93,25.4,25.4,0,0,0,9.06,1.44,27.21,27.21,0,0,0,10-1.7,14.86,14.86,0,0,0,6.79-5.08,13.9,13.9,0,0,0,2.45-8.38V27.08H38.54Zm-.89,18.83a8.22,8.22,0,0,1-2.81,3.78,7.41,7.41,0,0,1-4.46,1.32,7.44,7.44,0,0,1-4.51-1.34,8.37,8.37,0,0,1-2.79-3.81,16.19,16.19,0,0,1-1-5.87,17,17,0,0,1,.95-5.91,8.93,8.93,0,0,1,2.78-4,7.14,7.14,0,0,1,4.53-1.44,7.16,7.16,0,0,1,4.47,1.4,8.78,8.78,0,0,1,2.82,4,16.68,16.68,0,0,1,1,6A15.88,15.88,0,0,1,37.65,52.51Z"/><path class="cls-1" d="M81.18,29.72a16.36,16.36,0,0,0-5.35-2.38,25.28,25.28,0,0,0-6.27-.77A22.14,22.14,0,0,0,61.29,28a14.64,14.64,0,0,0-5.82,4,13.76,13.76,0,0,0-3,6.2l10.08.82a6,6,0,0,1,2.3-3.24,7.67,7.67,0,0,1,4.68-1.29,6.36,6.36,0,0,1,4.3,1.33,4.71,4.71,0,0,1,1.52,3.76v.15a2.14,2.14,0,0,1-.94,1.9,7.81,7.81,0,0,1-3,1c-1.4.22-3.24.44-5.53.68a36,36,0,0,0-5.56,1,16.11,16.11,0,0,0-4.72,2.05,9.72,9.72,0,0,0-3.27,3.58,11.44,11.44,0,0,0-1.2,5.5,11.61,11.61,0,0,0,1.7,6.48,10.58,10.58,0,0,0,4.64,3.91,16.19,16.19,0,0,0,6.7,1.32,15.51,15.51,0,0,0,5.14-.78,11.48,11.48,0,0,0,3.81-2.18,10.82,10.82,0,0,0,2.53-3.23h.31v5.44H86.23V39.87a12.54,12.54,0,0,0-1.36-6A11.55,11.55,0,0,0,81.18,29.72Zm-5.77,22.6a6.75,6.75,0,0,1-1,3.71,7.41,7.41,0,0,1-2.89,2.59,9,9,0,0,1-4.24,1,7,7,0,0,1-4.13-1.16A3.92,3.92,0,0,1,61.48,55a4.1,4.1,0,0,1,.79-2.57,5.44,5.44,0,0,1,2.22-1.65,13.59,13.59,0,0,1,3.35-.9l2-.29c.73-.11,1.46-.24,2.2-.38s1.39-.31,2-.49a5.59,5.59,0,0,0,1.39-.6Z"/><path class="cls-1" d="M119.72,28.81a14.86,14.86,0,0,0-7.93-2.24,12.23,12.23,0,0,0-5.51,1.11,11.1,11.1,0,0,0-3.58,2.76,14.2,14.2,0,0,0-2.08,3.24h-.33V14H89.39V66.35h10.74V60.07h.49a13.06,13.06,0,0,0,2.15,3.23A10.92,10.92,0,0,0,106.38,66a12.67,12.67,0,0,0,5.39,1,14.72,14.72,0,0,0,8.09-2.31,15.7,15.7,0,0,0,5.72-6.83,26,26,0,0,0,2.11-11.08,25.71,25.71,0,0,0-2.17-11.24A15.62,15.62,0,0,0,119.72,28.81Zm-4.11,24a9.09,9.09,0,0,1-2.8,4.09,7.62,7.62,0,0,1-9,0A8.87,8.87,0,0,1,101,52.83a17.45,17.45,0,0,1-1-6.11,17.26,17.26,0,0,1,1-6.09,8.74,8.74,0,0,1,2.8-4,7.15,7.15,0,0,1,4.48-1.4,7,7,0,0,1,4.53,1.46,8.84,8.84,0,0,1,2.79,4,17.34,17.34,0,0,1,.94,6A17.58,17.58,0,0,1,115.61,52.77Z"/><path class="cls-1" d="M150.36,26.52a9.54,9.54,0,0,0-5.83,1.88,10.22,10.22,0,0,0-3.61,5.53h-.41V27.08H130V66.35h10.9V44.14a8.24,8.24,0,0,1,1.08-4.25,7.73,7.73,0,0,1,3-2.87,8.72,8.72,0,0,1,4.28-1,18.92,18.92,0,0,1,2.48.18,13.5,13.5,0,0,1,2.12.41V26.9a12.4,12.4,0,0,0-1.66-.28A16,16,0,0,0,150.36,26.52Z"/><rect class="cls-1" x="154.46" y="27.08" width="10.89" height="39.27"/><path class="cls-1" d="M159.93,11a5.87,5.87,0,0,0-4.14,1.62,5.23,5.23,0,0,0,0,7.79,6.17,6.17,0,0,0,8.32,0,5.2,5.2,0,0,0,1.73-3.9,5.13,5.13,0,0,0-1.73-3.89A5.91,5.91,0,0,0,159.93,11Z"/><path class="cls-1" d="M199.45,31.53a16.45,16.45,0,0,0-5.88-3.72,20.72,20.72,0,0,0-7.25-1.24,19.2,19.2,0,0,0-10.06,2.56,17.32,17.32,0,0,0-6.64,7.13,23.07,23.07,0,0,0-2.35,10.64,23.19,23.19,0,0,0,2.35,10.75,16.69,16.69,0,0,0,6.72,7,20.74,20.74,0,0,0,10.41,2.47,23,23,0,0,0,8.58-1.49,15.8,15.8,0,0,0,6.09-4.2,13.76,13.76,0,0,0,3.13-6.32l-10.07-.67A6.76,6.76,0,0,1,192.84,57a7,7,0,0,1-2.58,1.53,10.38,10.38,0,0,1-3.33.51,9.29,9.29,0,0,1-4.73-1.15,7.85,7.85,0,0,1-3.08-3.27,11,11,0,0,1-1.08-5v0h-6.42V42.76h6.43a8.51,8.51,0,0,1,1.09-3.88,8.1,8.1,0,0,1,3-3,8.4,8.4,0,0,1,4.39-1.14,8.26,8.26,0,0,1,4.18,1,7.42,7.42,0,0,1,2.82,2.85,8.27,8.27,0,0,1,1,4.17H178.05c0,.11,0,.23,0,.35v6.4h26.74v-3a24.74,24.74,0,0,0-1.41-8.75A16.79,16.79,0,0,0,199.45,31.53Z"/><rect class="cls-1" x="207.01" y="13.99" width="10.89" height="52.36"/><polygon class="cls-1" points="219.69 22.2 219.69 32.02 231.68 24.5 231.99 24.5 231.99 66.36 243.06 66.36 243.06 13.99 232.65 13.99 219.69 22.2"/><path class="cls-1" d="M255.4,54.8a5.93,5.93,0,0,0-4.33,1.79,5.83,5.83,0,0,0-1.8,4.29A6.15,6.15,0,0,0,255.4,67a5.81,5.81,0,0,0,3-.83A6.46,6.46,0,0,0,260.68,64a5.93,5.93,0,0,0-1-7.37A6,6,0,0,0,255.4,54.8Z"/><rect class="cls-1" x="260.7" y="27.08" width="5.55" height="8.18"/><path class="cls-1" d="M278.06,21.34a4.23,4.23,0,0,1,3.35-1.11,10.05,10.05,0,0,1,1.91.18,15.88,15.88,0,0,1,1.57.38l1.94-8.18c-.68-.2-1.71-.43-3.1-.69a25.06,25.06,0,0,0-4.59-.38,15.14,15.14,0,0,0-6.62,1.4,10.58,10.58,0,0,0-4.59,4.22,13.64,13.64,0,0,0-1.68,7.08v2.84h10.87V24.45A4.66,4.66,0,0,1,278.06,21.34Z"/><rect class="cls-1" x="266.25" y="35.26" width="10.87" height="31.09"/><rect x="266.25" y="27.08" width="10.87" height="8.18"/><path class="cls-1" d="M306.33,26.52a9.54,9.54,0,0,0-5.83,1.88,10.21,10.21,0,0,0-3.6,5.53h-.41V27.08H285.93V66.36h10.89V44.14a8.15,8.15,0,0,1,1.09-4.25,7.63,7.63,0,0,1,3-2.87,8.79,8.79,0,0,1,4.29-1,19,19,0,0,1,2.48.18,13.5,13.5,0,0,1,2.12.41V26.9a12.69,12.69,0,0,0-1.66-.28A16,16,0,0,0,306.33,26.52Z"/><rect class="cls-1" x="277.12" y="27.08" width="10.87" height="8.18"/></g></g></svg>