<svg id="Calque_1" data-name="Calque 1" xmlns="http://www.w3.org/2000/svg" viewBox="0 0 1841.69 502.43"><title>GABRIEL2</title><path d="M192.29,37.57c34.92,0,75,14.78,107.88,44.34l-8.85,60.4-10.44,5.78c-18.23-25.71-56.28-45.62-88.59-45.62-71.93,0-103.19,53.33-103.19,184.38,0,135.57,26.57,188.25,91.71,188.25,56.82,0,85-47.52,85-145.85H168.31v-63h148V529.72H287.14l-10.42-57.83C258.47,513.66,218.88,540,175.61,540c-94.87,0-142.3-79.67-142.3-253.15C33.31,115.31,81.27,37.57,192.29,37.57Z" transform="translate(-33.31 -37.57)"/><path d="M641.73,529.72H576.06l-18.23-96.36-5.22-22.5L414,412.14l-5.2,21.22-17.71,96.36H331.61l26.59-96.36,71.93-289.14,19.8-96.37h73l18.76,96.37,73,289.14ZM537.5,347.9,483.29,119.81l-54.2,229.37Z" transform="translate(-33.31 -37.57)"/><path d="M937.39,385.15c0,89.33-51.6,144.57-136.56,144.57h-136l3.65-96.36V141l-3.65-93.18H801.36c71.4,0,116.22,55.25,116.22,136.2,0,41.12-14.07,73.27-40.13,93.18C915,297.13,937.39,333.75,937.39,385.15ZM722.15,110.81V250.23h62.53c54.72,0,76.62-19.9,76.62-66.18,0-48.18-22.93-73.24-75.58-73.24Zm159,274.34c0-49.46-24.49-72-79.21-72H722.15V466.76h78.68C852.43,466.76,881.1,435.92,881.1,385.15Z" transform="translate(-33.31 -37.57)"/><path d="M1254.43,529.72h-79.21l-48.47-96.36-26.08-45h-74v45l5.2,96.36H969.35L973,433.36V141l-3.65-93.18h137.08c73.48,0,124,57.84,124,169.63,0,79-29.73,134.27-73.5,158l33.89,57.84ZM1026.68,325.41h63.07c58.37,0,84.43-32.12,84.43-107.93,0-75.17-25.55-106.67-83.39-106.67h-64.11Z" transform="translate(-33.31 -37.57)"/><path d="M1278.07,433.36V141l-3.65-93.18h60.45L1331.75,141V433.36l3.12,96.36h-60.45Z" transform="translate(-33.31 -37.57)"/><path d="M1614.79,466.76l-7.81,63h-221.5l3.65-96.36V141l-3.65-93.18h225.15l-7.83,63h-160V250.23h143.84l-8.33,63H1442.81V466.76Z" transform="translate(-33.31 -37.57)"/><path d="M1875,466.76l-7.81,63h-221.5l3.65-96.36V141l-3.65-93.18h60.45L1703,141V433.36l1,33.4Z" transform="translate(-33.31 -37.57)"/></svg>