<svg id="Calque_1" data-name="Calque 1" xmlns="http://www.w3.org/2000/svg" viewBox="0 0 606.57 407.47"><defs><style>.cls-1{fill:#0e0e11;}.cls-2{fill:#282731;}</style></defs><title>gabriel6</title><rect class="cls-1" width="606.57" height="407.47"/><path class="cls-2" d="M719.53,469.31c14.56,1.34,19.46,23.48,39.67,18.87-8.32,3.87-12.18,14.71-12.18,25.27,0,8.76,2.08,18.57,8.91,24.66-5.64-1-13.37-6.09-16.94-11.29-2.22,3.71-12,11.74-28.38,11.74-29.87,0-35.81-30.46-52-55.13,13.52-20.51,25-54.54,52-54.54,20.81,0,23,13.23,29.72,14.42,0-6.54,3.87-10.55,9.51-12.34-3.27,3.87-3.86,8.77-1.63,12.34h-4.16a36.26,36.26,0,0,0,4.45,28.82c-6.09-4.6-10.1-9.51-11.88-15.6C733.35,445.09,726.51,432,710.91,432c-19.91,0-26,19.62-26,51.42s7.28,52.16,25.71,52.16c16.35,0,24.08-14.86,24.08-27.35,0-13.67-4.46-36-16.05-36.7-6.39-.45-13.23,4.9-12.34,14.56.6,6.1,9.22,3.72,11.15,7.28,1.48,2.83-1.64,5.65-4,4.76a15.55,15.55,0,0,1,2.68,8.17,8.71,8.71,0,0,1-8.92,8.77,6.34,6.34,0,0,1-6.68-6.54,6,6,0,0,0,6.24,5.35,6.28,6.28,0,0,0,6.54-6.39c0-5.94-8.77-11.29-9.37-21.84S711.35,468.57,719.53,469.31Z" transform="translate(-656.95 -336.42)"/><path class="cls-2" d="M862.69,562.2c-3.57-2.23-6.24-2.52-12.19-2.52H815.88c-13.08,0-19.62,3.86-19.62,7.28,0,3.12,5.35,5.79,15.9,5.2-15.9,5.35-23.47-.6-23.47-5.2,0-4.16,7-10.4,21.54-9.51,7.14.44,12,.74,12-10.26v-20.5H787.65c.59,14.86-2.68,26.59-16.5,31.35,12.93-7.58,14.71-29.27,14.71-43.54l.15-12.63c.15-12.33,5-32.69,20.81-32.69V458c-22.15,15-23.63,29.13-23.63,58.4,0,12.49-2.23,24.67-7.58,32.55-10.4,15.45-24.67,11.14-27.94,10.4-3.71-.89-6.68.89-6.68,4.16,0,4.16,3.56,5.79,9.06,6.39-5.65,2.67-16.79-.15-16.79-8.77,0-7,10-8.47,15-16.2-1,8.32,3,12,8.32,12,7.58,0,17.83-8,17.83-21.4,0-3.27-1.19-5.5-3.71-5.5-2.23,0-3.87,1.49-6.1,1.49-3.86,0-6.39-2.82-6.39-11.44,0-22.44,19.77-49.49,43.84-62.27H776.2c0,6.4-7.28,2.38-11.59,2.38a16,16,0,0,0-9.66,4,18.82,18.82,0,0,1,16-10.11c2.08,0,3.57.59,4.31,1.49h67.76c-.74-2.23-.15-6.1,2.38-6.1,2.23,0,4.76,4,8.77,4a8.25,8.25,0,0,0,2.53-.45c-1.79,3.42-6,8.17-9.37,8.17a3.52,3.52,0,0,1-3.12-2.38c-5.94,7.14-7.13,15.16-7.13,51.57,0,30,1.49,46.07,10,46.07,2.52,0,4.6-1.94,7-1.94C857.64,554.62,862.39,558.78,862.69,562.2Zm-40.42-47.7H787.5c-.15,2.82-.15,6.24,0,10h34.77Zm0-36.55c0-13.82,0-18.58,4.46-20.07H808.45v22c-11-4.16-20.06,3.12-21,21.1h34.77Z" transform="translate(-656.95 -336.42)"/><path class="cls-2" d="M942.16,469.33c0,21.25-18,31.65-38.34,31.65-21,0-23.77-12.93-47.85-11.89-7.13.3-11.14.89-11.14,2.82,0,5.06,22.88-3,24.07,7.58-3.86-4.16-22,1.64-26.3-4.16-2.53-3.42-.45-7,5.5-8.32,14.41-3.27,16,3.71,16-31.65v-6.24c0-16.35-1.49-26.6-5.35-30.47-4.76-4.75-12.34-2.82-12.34-11.29,0-8.17,12.78-8.62,18.13-11.29,3.27-1.64,6.84-3.87,5.35-8.33a10.18,10.18,0,0,1,2.53,6.54c0,4.76-3.87,7-8.62,8.18-6.84,1.63-15.16,0-15.16,5.49,0,5.65,10.26,6.4,19.17,1.19C884.06,399.63,887.48,391,905,391c14,0,31.65,9.66,31.65,26.75,0,11.15-7.28,21.4-21.69,26.6C935.47,446.15,942.16,458,942.16,469.33Zm-47.55-34.48c-.3-10.25,10.85-10.7,6.84-16.05-2.68-3.56,1.18-5.94,0-8.47,7.87,4.91,7,17.69,1.78,20.36.3-4.31-6.69-2.53-6.24,4.16.29,5.5,6.09,8.17,10.1,8.17,7.14,0,14.42-8,14.42-21.39,0-18.43-9.81-27.64-20.36-27.64-11.3,0-23.63,10.7-23.63,33v22.43c0,35.82,11,48.6,26,48.6,12.92,0,21.1-13.38,21.1-26.46,0-13.37-3.27-20.35-14.57-23.92C903.23,445.4,894.91,443.47,894.61,434.85Z" transform="translate(-656.95 -336.42)"/><path class="cls-2" d="M926.92,534.72c.3-3.42,5.05-7.58,8.62-7.58,4.16,0,7,5.8,14-2.38,3.56-4.16,5.35-12,5.35-41.75,0-16.5-1.49-28.09-5.35-31.95C944.75,446.3,935,449,935,439.76c0-9.06,15-8.61,20.35-11.29,3.27-1.63,6.84-3.86,5.35-8.32a10.13,10.13,0,0,1,2.53,6.54c0,4.75-3.86,7-8.62,8.17-6.83,1.64-17.39-.89-17.39,5.5s12.49,6.39,22.89,1.19c14.41-7.13,18.43-15.9,33.73-15.9,15.46,0,32.1,10.55,32.1,25.56,0,10.7-4.9,20.06-15.31,23,10.41,3.27,22.44,11.29,22.44,37.89-8.62-2.52-15.45,3.27-15.45,10.26,0,5.49,3.56,11.29,11.14,11.29,5.2,0,12.19-4.46,10.85-13.67,3.12,10.25-4.76,17.24-12.18,17.24-7.58,0-16.05-6.1-16.05-17.84,0-8,3.71-13.81,3.71-22,0-27.64-34.92-23.18-34.92-5.94,0,4.46,2.82,7.43,7,7.43-3.27-2.38-1.93-9.81,4.31-9.81,6.84,0,9.07,13.37-2.82,13.37-8.47,0-11.59-5.2-11.59-10.7,0-14.26,15.16-18.12,23.78-25.26,4.9-4,7.13-11,7.13-16.49,0-9.81-4.61-21.1-16.79-21.1-12.49,0-21.4,12.63-21.4,25.56V520c0,8.32,5,9.36,13.67,10,5.94.45,8,4.91,5.5,8.33-4.31,5.79-19,.15-21.55,3.56,2.23-9.36,19.32-1.93,19.32-7,0-1.93-2.38-2.68-10.55-2.68h-37C933.16,532.19,930.49,532.49,926.92,534.72Z" transform="translate(-656.95 -336.42)"/><path class="cls-2" d="M1026.49,473.42c0,5.05,20.36-1.78,22.59,7.58-2.53-3.42-20.51,1.64-24.82-4.16-2.52-3.42-.44-7,5.5-8.32,10.4-2.23,21.55-9.66,21.55-40.72v-6.24c0-16.35-1.49-26.6-5.35-30.46-4.76-4.76-12.33-2.83-12.33-11.3,0-8.17,12.78-8.61,18.12-11.29,3.27-1.63,6.84-3.86,5.35-8.32a10.11,10.11,0,0,1,2.53,6.54c0,4.75-3.86,7-8.62,8.17-6.83,1.63-15.16,0-15.16,5.5s10.26,6.39,20.66,1.19c9.51-4.76,12.93-11.89,22.89-14.27,0-6.39,8.76-2.08,12.48-2.08,2.52,0,5.79-1.78,8.76-4.31-5.34,10-18,11.89-20.35,8.62a29.13,29.13,0,0,0-14.12,25v27.35c0,37.15,1.49,46.51,11.59,46.51,3.86,0,4.31-2.68,7.13-2.68,5.5,0,12.19,4.31,14.71,12.63-6.53-5.64-10.4-7.57-19.16-7.57h-35.52C1028.87,470.75,1026.49,471.49,1026.49,473.42Z" transform="translate(-656.95 -336.42)"/><path class="cls-2" d="M1121.69,464.28c.15,31.05,8.91,50.07,22.73,50.07,17.09,0,28.09-17.09,27.5-32.69,2.08,13.38,4.75,17.53,9.51,20.36,4.6,2.67,4.9,9.06,7.87,12.93-7.43,0-13.07-7.88-16.94-16.65,1.34,14.27,8.47,13.53,9.36,19.17.45,2.68.15,4.76,2.23,7-10.7-3.57-12.48-16.79-12.93-23.63-4,10.25-13.82,16.64-26.6,16.64-26.45,0-32.84-30-49-54.68,17.68-26.9,22-54.69,49.93-54.69,11.14,0,21.69,6.1,27.34,17.54,6.83-.45,4.16-16.05,11.89-16.05a9,9,0,0,1,3.56.89c-5,0-1.19,5.2-5,6.39-4.76,1.49-4,9.36-9.36,11,2.82.89,6.24-2.08,7.28-5.65s4.9-5.35,8.32-5.35a8.92,8.92,0,0,1,3.42.74c-4,1.19-4.46,2.68-5,4.17-.45,1.33-1,2.67-4.16,4.16-6.39,2.82-7,7.43-7.43,11.88-.45,3.72-1,7.29-4.16,10.11a36.9,36.9,0,0,0,.89-7.88c0-16.49-13.38-29-26-29-18.87,0-25,25.7-25,49.48H1126c15.9,0,23.18-5.2,28.83-22.89-1.34,13.23-1.34,34.78,0,51.12-5.65-19.32-12.93-24.51-28.83-24.51Z" transform="translate(-656.95 -336.42)"/><path class="cls-2" d="M1171.36,581.53c0,5.06,20.36-1.78,22.59,7.58-2.53-3.41-20.51,1.64-24.82-4.16-2.52-3.42-.44-6.83,5.5-8.32,14.12-3.57,21.55-8,21.55-40.72v-6.24c0-16.34-1.49-26.6-5.35-30.46-4.76-4.76-12.34-2.82-12.34-11.29,0-8.18,12.78-8.62,18.13-11.3,3.27-1.63,6.84-3.86,5.35-8.32a10.13,10.13,0,0,1,2.53,6.54c0,4.75-3.86,7-8.62,8.17-6.83,1.64-15.16,0-15.16,5.5,0,5.65,10.26,6.39,19.17,1.19,11.15-6.39,18.73-15.75,27-15.75,3.42,0,6.83,1.63,11,5.79a42.67,42.67,0,0,0-9.8-1.33c-13.53,0-18.58,9.06-18.58,24.22V530c0,41.16,5.65,46.51,22.89,46.51,7.87,0,11-3.56,7.87-11.44-5-12.78,3.87-26,20.21-20.21-25.71-.89-11.14,27.19,1.34,34h-72.07C1173.74,578.86,1171.36,579.6,1171.36,581.53Z" transform="translate(-656.95 -336.42)"/><path class="cls-2" d="M687.4,670.61l-26.26-12.35,1.35-2.87,9,.73,34.14-72.56-6.29-6.45,1.34-2.87L757.48,601l-5.7,23.26-4.13.1-.5-21.23L716.6,588.73l-14.38,30.55,20.53,9.66,8.31-7.75,2.86,1.35-11.68,24.82L719.38,646l.67-11.34L699.53,625l-17.07,36.28,6.29,6.46Z" transform="translate(-656.95 -336.42)"/><path class="cls-2" d="M833.38,689.42,775,720.12l-1.47-2.8,6-6.73-37.33-71-8.94,1.13-1.47-2.8,55.56-29.22,15.13,18.57-2.41,3.35-17.24-12.39L753,634l15.72,29.89,20.08-10.56L787.57,642l2.8-1.48,12.77,24.28-2.8,1.48-8.65-7.38-20.07,10.56,18.66,35.49L822,688.24l-.53-26,4.13-.08Z" transform="translate(-656.95 -336.42)"/><path class="cls-2" d="M872.73,679.75l-56-26,1.34-2.87,9,.67,33.73-72.75-6.33-6.42,1.33-2.87,26.33,12.2-1.33,2.87-9-.68L838.06,656.7,866.78,670l20.29-16.18,2.58,3.23Z" transform="translate(-656.95 -336.42)"/><path class="cls-2" d="M960.54,598.39c17.48,26.39,8.05,50.36-9.54,62l-31.66,21-1.75-2.64,5.29-7.3-44.3-66.85-8.78,2L868.05,604l31.66-21C917.3,571.35,943.05,572,960.54,598.39Zm-71.84-.49L933,664.74l14.51-9.61c10.56-7,18.36-24.83,2-49.45s-35.78-24.39-46.33-17.4Z" transform="translate(-656.95 -336.42)"/><path class="cls-2" d="M978.21,670.06l-23.05-7.59.66-2,9.34-1.37,24.75-75.16-6.37-7.65.66-2,16,5.28,7.64,83.06,56.5-61.94,16,5.28-.66,2-9.34,1.37-25.08,76.16,6.7,6.65-.66,2-27.56-9.08.66-2,9.34-1.37,19-57.63L1002.26,678l-4.51-1.49-6.6-72.71-19,57.62,6.7,6.65Z" transform="translate(-656.95 -336.42)"/><path class="cls-2" d="M1096.62,678.06l-23.17,7.22-1-3,7.12-5.53,6.26-77.39-5.3-6.36,4.51-8.59,4-1.26,57.5,72.71,9,.5.94,3-28.71,9-.94-3,7.11-5.54-14.09-17.71L1088.2,652l-1.53,22.58,9,.51Zm-5.21-71.6-2.58,38.66,26.94-8.41Z" transform="translate(-656.95 -336.42)"/><path class="cls-2" d="M1166.27,685.52l-22.22-12.15,1.52-2.78,9.43.35,37.47-68.51-5.38-7.75,1.52-2.78,16.66,9.12,5.21,82.82,30.13-55.08-5.38-7.75,1.52-2.78L1259,630.39l-1.52,2.77-9.43-.35-41,75-7.4-4-4.79-88L1162.41,675l5.38,7.75Z" transform="translate(-656.95 -336.42)"/></svg>