<svg id="Calque_1" data-name="Calque 1" xmlns="http://www.w3.org/2000/svg" viewBox="0 0 418 414.27"><defs><style>.cls-1{fill:#717171;}</style></defs><title>stars</title><polygon class="cls-1" points="209 0 202.35 20.46 180 20.46 180.56 20.75 180.47 20.73 198.1 33.54 191.37 54.27 209 41.46 226.63 54.27 219.9 33.54 237.53 20.73 237.44 20.75 238 20.46 215.65 20.46 209 0"/><polygon class="cls-1" points="215.65 380.46 209 360 202.35 380.46 180 380.46 180.56 380.75 180.47 380.73 198.1 393.54 191.37 414.27 209 401.46 226.63 414.27 219.9 393.54 237.53 380.73 237.44 380.75 238 380.46 215.65 380.46"/><polygon class="cls-1" points="29 221.46 46.63 234.27 39.9 213.54 57.53 200.73 57.44 200.75 58 200.47 35.65 200.47 29 180 22.35 200.47 0 200.47 0.56 200.75 0.47 200.73 18.1 213.54 11.37 234.27 29 221.46"/><polygon class="cls-1" points="119 24.11 112.39 44.47 90 44.47 90.91 44.92 90.47 44.84 108.1 57.66 101.37 78.39 119 65.57 136.63 78.39 129.9 57.66 147.53 44.84 147.09 44.92 148 44.47 125.61 44.47 119 24.11"/><polygon class="cls-1" points="53.12 90 46.47 110.47 25 110.47 26 110.97 24.58 110.73 42.22 123.54 35.48 144.27 53.12 131.46 70.75 144.27 64.01 123.54 81.65 110.73 81.38 110.77 82 110.47 59.77 110.47 53.12 90"/><polygon class="cls-1" points="59.77 290.46 53.12 270 46.47 290.46 25 290.46 26 290.96 24.58 290.73 42.22 303.54 35.48 324.27 53.12 311.46 70.75 324.27 64.01 303.54 81.65 290.73 81.38 290.77 82 290.46 59.77 290.46"/><polygon class="cls-1" points="148 356.46 125.69 356.46 119 335.88 112.31 356.46 90 356.46 90.84 356.89 108.1 369.43 101.37 390.15 119 377.34 136.63 390.15 129.9 369.43 147.16 356.89 148 356.46"/><polygon class="cls-1" points="417.44 200.75 418 200.47 395.65 200.47 389 180 382.35 200.47 360 200.47 360.56 200.75 360.47 200.73 378.1 213.54 371.37 234.27 389 221.46 406.63 234.27 399.9 213.54 417.53 200.73 417.44 200.75"/><polygon class="cls-1" points="299 24.11 292.39 44.47 270 44.47 270.9 44.92 270.47 44.84 288.1 57.66 281.37 78.39 299 65.57 316.63 78.39 309.9 57.66 327.53 44.84 327.1 44.92 328 44.47 305.61 44.47 299 24.11"/><polygon class="cls-1" points="336.62 110.77 336.35 110.73 353.99 123.54 347.25 144.27 364.88 131.46 382.52 144.27 375.78 123.54 393.42 110.73 392 110.97 393 110.47 371.53 110.47 364.88 90 358.24 110.47 336 110.47 336.62 110.77"/><polygon class="cls-1" points="392 290.96 393 290.46 371.53 290.46 364.88 270 358.24 290.46 336 290.46 336.62 290.77 336.35 290.73 353.99 303.54 347.25 324.27 364.88 311.46 382.52 324.27 375.78 303.54 393.42 290.73 392 290.96"/><polygon class="cls-1" points="328 356.46 305.69 356.46 299 335.88 292.31 356.46 270 356.46 270.85 356.89 288.1 369.43 281.37 390.15 299 377.34 316.63 390.15 309.9 369.43 327.15 356.89 328 356.46"/></svg>