<svg xmlns="http://www.w3.org/2000/svg" viewBox="0 0 71.55 56.72"><title>tmb</title><g id="Calque_2" data-name="Calque 2"><g id="Calque_1-2" data-name="Calque 1"><path d="M19.51,10.94h-5c-.33.77-.78,1.77-1.33,3s-1.4,3.16-2.55,5.8c-.39.91-.88,2-1.48,3.31s-1.24,2.74-1.91,4.32Q5.7,30.81,5.18,32.22a7.21,7.21,0,0,0-.5,2.2,1.65,1.65,0,0,0,.43,1.18,1.47,1.47,0,0,0,1.15.47,5,5,0,0,0,1.62-.39,23.82,23.82,0,0,0,2.2-1,4.47,4.47,0,0,1,.65-.39,4.18,4.18,0,0,0,.65-.4l.5.87A21.08,21.08,0,0,1,10,36c-.69.4-1.38.78-2.05,1.11A20,20,0,0,1,5,38.27a8.82,8.82,0,0,1-2.38.39,3,3,0,0,1-1.94-.57A1.85,1.85,0,0,1,0,36.58,5.61,5.61,0,0,1,.25,35.1c.17-.6.4-1.28.69-2.05q.21-.59.75-1.8L3,28.37,5.4,22.75,6.62,20Q8.06,16.78,9,14.51c.64-1.51,1-2.44,1.11-2.77l.15-.29.07-.22.14-.29H5.9l.51-1.08a14.56,14.56,0,0,0,3.38-.28,3.51,3.51,0,0,0,2-1.73,11,11,0,0,0,1-1.77c.31-.69.66-1.54,1-2.55a1.33,1.33,0,0,0,.43.07h.29a7.33,7.33,0,0,0,.83,0c.26,0,.54-.06.83-.1A3.26,3.26,0,0,0,17,3.35c.26-.07.54-.13.82-.18a.46.46,0,0,1-.07.21.4.4,0,0,1,0,.15.25.25,0,0,0,0,.14c-.14.29-.3.64-.47,1s-.42,1-.75,1.83l-.36.79c-.29.68-.47,1.12-.54,1.34a5.65,5.65,0,0,0-.18.54.38.38,0,0,0-.11.21,3.42,3.42,0,0,1-.18.43h5Z"/><path d="M40.67,52.4l-1.26.82c-.4.27-.82.52-1.26.76a19,19,0,0,1-1.87,1c-.62.29-1.32.57-2.09.86L33,56.28c-.38.15-.79.29-1.22.44,0-.77.11-1.47.18-2.09s.15-1.25.25-1.87c.19-.82.41-1.66.65-2.52s.57-1.88,1-3c.19-.52.37-1,.54-1.47s.34-.9.54-1.34c.09-.28.2-.57.32-.86s.23-.58.32-.86q.79-1.95,1.8-4.14c.68-1.47,1.52-3.23,2.52-5.3a3.85,3.85,0,0,0,.22-.5,1.08,1.08,0,0,0,.07-.36.92.92,0,0,0-.21-.61.66.66,0,0,0-.51-.25,4.51,4.51,0,0,0-2,1,29.31,29.31,0,0,0-3,2.56l-.9.86a11.52,11.52,0,0,0-.9.94,41.8,41.8,0,0,0-5.4,7.74A57,57,0,0,0,23,54.2a1.57,1.57,0,0,0-.1.28,2.49,2.49,0,0,1-.11.29l-.65.15a4.81,4.81,0,0,0-.65.21,11.56,11.56,0,0,0-1.65.61c-.58.27-1.25.59-2,1,.09-.24.17-.42.22-.54a2.52,2.52,0,0,1,.14-.33l.18-.54c.07-.21.25-.66.54-1.33,1.05-2.54,1.86-4.54,2.41-6s1.05-2.76,1.48-4l.14-.32c.05-.12.1-.25.15-.4.23-.62.46-1.28.68-2s.47-1.47.76-2.34c.76-2.25,1.27-3.8,1.51-4.64a7.67,7.67,0,0,0,.36-1.91,1.09,1.09,0,0,0-.25-.72.88.88,0,0,0-.69-.29A5.14,5.14,0,0,0,22.85,33a29.64,29.64,0,0,0-3.63,3.93,27,27,0,0,0-1.91,2.44c-.6.87-1.19,1.76-1.76,2.67-.34.57-.69,1.19-1.05,1.83s-.73,1.34-1.11,2.06c-.29.52-.57,1-.83,1.58l-.83,1.66c-.48,1-1,2-1.4,3s-.86,1.91-1.19,2.78A.26.26,0,0,1,9,55H8.85v.07a1.48,1.48,0,0,0-.47.14c-.21.1-.75.29-1.62.58l-.39.14-.4.15a.16.16,0,0,0-.11,0,.12.12,0,0,1-.11,0,4.7,4.7,0,0,1-.57.25l-.65.25a.12.12,0,0,1,0-.1.18.18,0,0,0,0-.11,1.43,1.43,0,0,0,.15-.18A.52.52,0,0,0,4.82,56L5.9,53.48Q6.55,52,7.77,48.94q1.88-4.47,2.56-6.19c.45-1.15.85-2.14,1.18-3v-.08c.19-.43.37-.87.54-1.33s.37-1,.62-1.69a24.8,24.8,0,0,0,.79-2.38,13.53,13.53,0,0,0,.29-1.44v-.21a1,1,0,0,0-.29-.76,1.17,1.17,0,0,0-.79-.25,3,3,0,0,0-.83.14,11.87,11.87,0,0,0-1.26.51l-.43-1.15.72-.29.72-.29c.91-.43,1.89-.95,2.95-1.55s2.47-1.45,4.25-2.55c0,.24.08.43.1.57a2.15,2.15,0,0,1,0,.43v.58a13.38,13.38,0,0,1-.76,4.07c-.5,1.56-1.47,4.11-2.91,7.67a58.26,58.26,0,0,1,8.6-9.29q3.93-3.24,6.52-3.24a1.55,1.55,0,0,1,1.19.43A1.77,1.77,0,0,1,32,28.92,16.46,16.46,0,0,1,31.1,33q-.87,2.85-2.67,7.24,1.37-1.8,2.85-3.46t3-3.09A38.51,38.51,0,0,1,40.06,29a9.18,9.18,0,0,1,4.43-1.76,1.41,1.41,0,0,1,1,.39,1.51,1.51,0,0,1,.4,1.12v.14a5,5,0,0,1-.47,1.7q-.47,1.11-2.19,4.86c-1.54,3.36-2.64,5.77-3.32,7.23s-1.2,2.75-1.58,3.85l-.14.29a.63.63,0,0,0-.08.29,6,6,0,0,0-.25.58q-.1.28-.18.57a13.8,13.8,0,0,0-.68,2,5.53,5.53,0,0,0-.18,1.19.89.89,0,0,0,.25.68.93.93,0,0,0,.68.26h.15a2.21,2.21,0,0,0,.75-.18A7.22,7.22,0,0,0,40,51.46Z"/><path d="M52.54,4.39c.72-.24,1.56-.56,2.52-1s2-.85,3-1.33c.24-.1.47-.19.68-.29a7.59,7.59,0,0,0,.68-.36L61,.72q.8-.36,1.44-.72a15.33,15.33,0,0,1-.43,2.7c-.24,1-.68,2.36-1.3,4.14q-1.44,4.32-3.53,9.69t-5,12.15a44.54,44.54,0,0,1,3.31-3.14A34.31,34.31,0,0,1,59,22.91,24.59,24.59,0,0,1,64,20.23a12.31,12.31,0,0,1,4.36-.93,3.16,3.16,0,0,1,2.41.86,3.53,3.53,0,0,1,.83,2.52,12.28,12.28,0,0,1-1,4.62,23.88,23.88,0,0,1-3,5.13,39.73,39.73,0,0,1-4.46,5.12,40.69,40.69,0,0,1-5.69,4.62,43.44,43.44,0,0,1-5.51,3.29,28.69,28.69,0,0,1-5.44,2.06,26.77,26.77,0,0,1-3.2.68,20.6,20.6,0,0,1-3.2.26c1.48-3.61,2.65-6.4,3.49-8.38l2.34-5.48a.4.4,0,0,1,0-.15,1.1,1.1,0,0,1,.11-.14c.38-1,.78-2,1.19-3s.87-2.19,1.4-3.54c1.87-4.71,3.32-8.38,4.32-11s1.83-4.81,2.45-6.59c.43-1.24.76-2.23,1-3a6.58,6.58,0,0,0,.33-1.37,1,1,0,0,0-.33-.79,1.3,1.3,0,0,0-.9-.29,4,4,0,0,0-1,.15,12.45,12.45,0,0,0-1.52.5ZM46,45l.61,0c.29,0,.56,0,.83,0a6.51,6.51,0,0,1,.75,0,15.85,15.85,0,0,0,6.66-2.56,23.9,23.9,0,0,0,5.94-5.6c.44-.58.85-1.19,1.26-1.84s.81-1.29,1.19-1.92a36,36,0,0,0,2.13-4.62,11.28,11.28,0,0,0,.82-3.76,2.5,2.5,0,0,0-.61-1.8,2.19,2.19,0,0,0-1.69-.65,7.49,7.49,0,0,0-4.07,1.55A25.55,25.55,0,0,0,55.28,28a47.75,47.75,0,0,0-5.54,7.63,58.52,58.52,0,0,0-4.54,9.35Z"/></g></g></svg>