<svg xmlns="http://www.w3.org/2000/svg" viewBox="0 0 60.66 51.01"><title>tw</title><g id="Calque_2" data-name="Calque 2"><g id="Calque_1-2" data-name="Calque 1"><path d="M19.51,7.78h-5c-.33.76-.78,1.76-1.33,3s-1.4,3.16-2.55,5.8c-.39.91-.88,2-1.48,3.31s-1.24,2.74-1.91,4.32Q5.7,27.66,5.18,29.05a7.21,7.21,0,0,0-.5,2.2,1.67,1.67,0,0,0,.43,1.19,1.49,1.49,0,0,0,1.15.46,5,5,0,0,0,1.62-.39,23.61,23.61,0,0,0,2.2-1,3.76,3.76,0,0,1,.65-.4,4.18,4.18,0,0,0,.65-.4l.5.87A21.08,21.08,0,0,1,10,32.87c-.69.41-1.38.78-2.05,1.11A18.86,18.86,0,0,1,5,35.1a8.49,8.49,0,0,1-2.38.4,3,3,0,0,1-1.94-.58A1.84,1.84,0,0,1,0,33.41a5.61,5.61,0,0,1,.25-1.48c.17-.6.4-1.28.69-2.05q.21-.57.75-1.8c.36-.82.78-1.77,1.26-2.88L5.4,19.58l1.22-2.73Q8.06,13.61,9,11.34c.64-1.51,1-2.43,1.11-2.77l.15-.29.07-.22.14-.28H5.9L6.41,6.7a14.44,14.44,0,0,0,3.38-.29,3.47,3.47,0,0,0,2-1.73,11.3,11.3,0,0,0,1-1.76c.31-.7.66-1.55,1-2.56a1.33,1.33,0,0,0,.43.07h.29c.29,0,.57,0,.83,0s.54-.06.83-.11A3.26,3.26,0,0,0,17,.18c.26-.07.54-.13.82-.18a.53.53,0,0,1-.07.22.39.39,0,0,1,0,.14.27.27,0,0,0,0,.14c-.14.29-.3.64-.47,1.05l-.75,1.83-.36.8c-.29.67-.47,1.11-.54,1.33a5.65,5.65,0,0,0-.18.54.42.42,0,0,0-.11.21,4.13,4.13,0,0,1-.18.44h5Z"/><path d="M47.52,22.5A38.81,38.81,0,0,1,44,30.08a38.9,38.9,0,0,1-5.26,6.78c-.57.63-1.31,1.36-2.19,2.19s-1.84,1.72-2.85,2.63a1.23,1.23,0,0,0-.29.21,1.08,1.08,0,0,1-.28.22l-.29.25a2.15,2.15,0,0,0-.29.25l-1.37,1.15L29.8,44.84,28.44,46a2.37,2.37,0,0,0-.36.29,2.84,2.84,0,0,1-.36.29c-.39.33-.84.74-1.37,1.22s-1.56,1.39-3.1,2.73q0,.08-.18.18c-.12.07-.27.18-.47.32.29-1.24.54-2.4.76-3.45s.42-2.11.61-3.17a1,1,0,0,1,0-.29,1.43,1.43,0,0,0,0-.29c.2-.86.37-1.74.54-2.63s.35-1.85.54-2.91c.39-2.4.73-4.47,1.05-6.19s.49-2.76.54-3.1a.29.29,0,0,0,.07-.22.58.58,0,0,1,.07-.28,4.93,4.93,0,0,0,.15-.61c0-.27.09-.52.14-.76a3.17,3.17,0,0,1-.32.39,4.12,4.12,0,0,0-.33.4,2.29,2.29,0,0,1-.18.29,2.29,2.29,0,0,0-.18.29,9.47,9.47,0,0,0-.68,1.08c-.22.38-.47.89-.76,1.51q-1.8,3.52-3.56,6.41t-3.57,5.25a39.92,39.92,0,0,1-4.06,4.76A23.27,23.27,0,0,1,9.28,50.8q1.08-2.59,1.8-4.42c.48-1.22.89-2.41,1.23-3.55l.29-1.08c.09-.38.19-.77.28-1.15s.2-.68.29-1,.19-.73.29-1.12q.72-3.22,1.12-5.67A26,26,0,0,0,15,28.89a6.07,6.07,0,0,0-.39-2.48,1.27,1.27,0,0,0-1.19-.82,2,2,0,0,0-.87.25,8.18,8.18,0,0,0-1.29.9l-.58-1c1.11-.72,2-1.3,2.63-1.76s1.23-.87,1.76-1.26l.18-.14a1,1,0,0,0,.18-.14c.15-.1.29-.21.44-.33s.28-.22.43-.32a4.8,4.8,0,0,1,2.23,2,6.76,6.76,0,0,1,.72,3.31,25.66,25.66,0,0,1-.43,4.25,44.44,44.44,0,0,1-1.23,5.18,1.43,1.43,0,0,1,0,.29,1.72,1.72,0,0,1-.11.29.11.11,0,0,1,0,.1.2.2,0,0,0,0,.11c-.15.63-.36,1.36-.65,2.2s-.79,2.32-1.51,4.43l.61-.87c.17-.24.32-.45.47-.64.05,0,.08,0,.11-.08a.32.32,0,0,0,0-.14c.34-.48.78-1.2,1.33-2.16s1.58-2.81,3.06-5.55a46.48,46.48,0,0,1,5.4-8.06,24.67,24.67,0,0,1,5.84-5l-5.12,24a2.32,2.32,0,0,1,.44-.36,1.79,1.79,0,0,0,.28-.22c.1-.09.58-.49,1.44-1.19l3.1-2.48A52.63,52.63,0,0,0,37.87,36a28,28,0,0,0,3.74-4.9,15.75,15.75,0,0,0,1.19-2.45,20.75,20.75,0,0,0,.76-2.44H37.8a7.89,7.89,0,0,0-1.8.14,1.84,1.84,0,0,0-1,.72c-.15.24-.31.54-.51.9l-.72,1.4a.53.53,0,0,1-.07.22c0,.1-.12.21-.21.36H32.25l3.31-7.49Z"/><path d="M60.16,20.84h-5l-1.33,3Q53,25.66,51.3,29.62c-.38.91-.88,2-1.48,3.31s-1.23,2.74-1.9,4.32q-1.59,3.47-2.09,4.86a7,7,0,0,0-.51,2.2,1.68,1.68,0,0,0,.44,1.19,1.48,1.48,0,0,0,1.15.47,5.17,5.17,0,0,0,1.62-.4,23.49,23.49,0,0,0,2.19-1,4.18,4.18,0,0,1,.65-.4,4.47,4.47,0,0,0,.65-.39l.5.86a20.87,20.87,0,0,1-1.9,1.26c-.7.41-1.38.78-2.06,1.12a18.37,18.37,0,0,1-2.88,1.11,8.49,8.49,0,0,1-2.37.4,3,3,0,0,1-2-.58,1.83,1.83,0,0,1-.72-1.51A5.83,5.83,0,0,1,40.9,45c.16-.6.39-1.28.68-2.05.14-.38.4-1,.76-1.8s.78-1.77,1.26-2.88L46,32.65l1.23-2.74q1.44-3.24,2.41-5.51c.65-1.51,1-2.43,1.12-2.77l.14-.29.07-.21.15-.29H46.55l.5-1.08a14.47,14.47,0,0,0,3.39-.29,3.45,3.45,0,0,0,1.94-1.73,10.85,10.85,0,0,0,1-1.76c.31-.7.66-1.55,1-2.56a1.25,1.25,0,0,0,.43.07h.29c.28,0,.56,0,.82,0s.54-.06.83-.11a3.26,3.26,0,0,0,.83-.11c.26-.07.54-.13.83-.18a.75.75,0,0,1-.07.22.33.33,0,0,1,0,.14.28.28,0,0,0,0,.15c-.14.28-.3.63-.46,1l-.76,1.84-.36.79c-.29.67-.47,1.11-.54,1.33s-.13.4-.18.54a.5.5,0,0,0-.11.22,2,2,0,0,1-.18.43h5Z"/></g></g></svg>