<?xml version="1.0" standalone="no"?>
<!DOCTYPE svg PUBLIC "-//W3C//DTD SVG 1.1//EN" "http://www.w3.org/Graphics/SVG/1.1/DTD/svg11.dtd" >
<svg xmlns="http://www.w3.org/2000/svg" xmlns:xlink="http://www.w3.org/1999/xlink" version="1.1">
<metadata>
Created by FontForge 20170924 at Sun May 13 14:50:35 2012
 By www-data
Created by Frank ADEBIAYE with FontForge 2.0 (http://fontforge.sf.net)
</metadata>
<defs>
<font id="Babacar" horiz-adv-x="156" >
  <font-face 
    font-family="Babacar"
    font-weight="500"
    font-stretch="normal"
    units-per-em="1000"
    panose-1="2 0 6 3 0 0 0 0 0 0"
    ascent="725"
    descent="-275"
    x-height="334"
    cap-height="539"
    bbox="10 -201 630 676"
    underline-thickness="50"
    underline-position="-150"
    unicode-range="U+0020-FE60"
  />
<missing-glyph horiz-adv-x="500" 
d="M50 0v483h400v-483h-400zM100 50h300v383h-300v-383z" />
    <glyph glyph-name="uniFC0C" unicode="&#xfc0c;" horiz-adv-x="114" arabic-form="isolated" 
d="M102 397v-46h-31v78zM12 397l31 32v-78h-31v46zM42 302l30 32v-334h-30v302zM42 302z" />
    <glyph glyph-name="uniFC0D" unicode="&#xfc0d;" horiz-adv-x="228" arabic-form="isolated" 
d="M43 454q0 -135 71 -24q71 -111 71 24l31 -74q-12 -98 -93 20l-9 14q-73 -112 -94 -65q-5 11 -8 31zM99 302l30 32v-334h-30v302zM99 302z" />
    <glyph glyph-name="uniFC0E" unicode="&#xfc0e;" horiz-adv-x="258" arabic-form="isolated" 
d="M221 470q19 1 25 -45l-31 -74q0 69 -18 74q-17 5 -53 -50q-3 -5 -17 -27t-24 -36.5t-23.5 -32t-25.5 -25.5t-20 -6q-17 4 -22 45l31 74q0 -58 13 -71q17 -17 58 47q4 6 13.5 21t17.5 27.5t19 28t20 26t19 17.5t18 7zM114 302l30 32v-334h-30v302zM114 302z" />
    <glyph glyph-name="uniFC0F" unicode="&#xfc0f;" horiz-adv-x="157" arabic-form="isolated" 
d="M28 469q71 -111 71 24l30 -74q-12 -98 -92 20q-5 7 -9 14v16zM12 230q2 2 5 7q78 119 108 121q20 1 20 -46v-184l-6 -9q-10 -15 -16.5 -24t-18.5 -26.5t-21.5 -28.5t-20.5 -22t-20 -15.5t-15 -2.5q-15 5 -15 46v0v184zM114 238q0 17 -3 31t-9 24t-14 10q-19 3 -45 -41
v-143q0 -64 16 -73q18 -9 55 49v143zM114 238z" />
    <glyph glyph-name="uniFC10" unicode="&#xfc10;" horiz-adv-x="157" arabic-form="isolated" 
d="M129 469v-16q-73 -112 -94 -65q-5 11 -7 31l30 74q0 -135 71 -24zM12 230q2 2 5 7q78 119 108 121q20 1 20 -46v-184l-6 -9q-10 -15 -16.5 -24t-18.5 -26.5t-21.5 -28.5t-20.5 -22t-20 -15.5t-15 -2.5q-15 5 -15 46v0v184zM114 238q0 17 -3 31t-9 24t-14 10
q-19 3 -45 -41v-143q0 -64 16 -73q18 -9 55 49v143zM114 238z" />
    <glyph glyph-name="uniFC11" unicode="&#xfc11;" horiz-adv-x="157" arabic-form="isolated" 
d="M124 419v-46h-31v78zM33 419l31 32v-78h-31v46zM12 230q2 2 5 7q78 119 108 121q20 1 20 -46v-184l-6 -9q-10 -15 -16.5 -24t-18.5 -26.5t-21.5 -28.5t-20.5 -22t-20 -15.5t-15 -2.5q-15 5 -15 46v0v184zM114 238q0 17 -3 31t-9 24t-14 10q-19 3 -45 -41v-143
q0 -64 16 -73q18 -9 55 49v143zM114 238z" />
    <glyph glyph-name="uniFC12" unicode="&#xfc12;" horiz-adv-x="228" arabic-form="isolated" 
d="M43 476q0 -135 71 -24q71 -111 71 24l31 -74q-12 -98 -93 20q-4 7 -9 14q-73 -112 -94 -65q-5 12 -8 31zM48 230q1 2 4 7q79 119 109 121q19 1 19 -46v-184q-1 -3 -5 -9q-16 -23 -27 -38.5t-29 -39t-33 -34t-24 -7.5q-14 5 -14 46v0v184zM150 238q-1 26 -7.5 45t-19.5 20
q-19 3 -45 -41v-143q0 -34 4.5 -51.5t12.5 -21.5q17 -9 55 49v143zM150 238z" />
    <glyph glyph-name="uniFC13" unicode="&#xfc13;" horiz-adv-x="258" arabic-form="isolated" 
d="M221 494q19 0 25 -46l-31 -74q0 69 -18 74q-17 6 -53 -50q-3 -5 -17 -26.5t-24 -36.5t-23.5 -32.5t-25.5 -25.5t-20 -6q-17 4 -22 45l31 74q0 -58 13 -71q17 -17 58 47q4 6 13.5 21t17.5 27.5t19 28t20 26t19 18t18 7.5zM63 230q1 2 4 7q79 119 109 121q19 1 19 -46v-184
q-1 -3 -5 -9q-16 -23 -27 -38.5t-29 -39t-33 -34t-24 -7.5q-14 5 -14 46v0v184zM165 238q-1 8 -1.5 16t-2 15t-3.5 13t-5 10.5t-6.5 7.5t-8.5 3q-19 3 -45 -41v-143q0 -64 17 -73t55 49v143zM165 238z" />
    <glyph glyph-name="uniFC14" unicode="&#xfc14;" horiz-adv-x="157" arabic-form="isolated" 
d="M28 470q71 -111 71 24l30 -74q-12 -98 -92 20q-5 7 -9 14v16zM12 357h31v-237q0 -76 22 -75q17 1 49 50v262h31v-357h-31v80q-23 -35 -42.5 -57.5t-33.5 -22.5q-20 0 -26 46v0v311zM12 357z" />
    <glyph glyph-name="uniFC15" unicode="&#xfc15;" horiz-adv-x="157" arabic-form="isolated" 
d="M129 470v-16q-73 -112 -94 -65q-5 11 -7 31l30 74q0 -135 71 -24zM12 357h31v-237q0 -76 22 -75q17 1 49 50v262h31v-357h-31v80q-23 -35 -42.5 -57.5t-33.5 -22.5q-20 0 -26 46v0v311zM12 357z" />
    <glyph glyph-name="uniFC16" unicode="&#xfc16;" horiz-adv-x="159" arabic-form="isolated" 
d="M125 420v-46h-31v78zM34 420l31 32v-78h-31v46zM13 357h31v-237q0 -76 22 -75q17 1 49 50v262h31v-357h-31v80q-52 -79 -76 -80q-20 0 -26 46v0v311zM13 357z" />
    <glyph glyph-name="uniFC17" unicode="&#xfc17;" horiz-adv-x="228" arabic-form="isolated" 
d="M43 477q0 -135 71 -24q71 -111 71 24l31 -74q-12 -98 -93 20q-4 7 -9 14q-73 -112 -94 -65q-5 11 -8 31zM48 357h30v-237q0 -76 23 -75q17 1 49 50v262h30v-357h-30v80q-23 -35 -42.5 -57.5t-34.5 -22.5q-20 0 -25 46v0v311zM48 357z" />
    <glyph glyph-name=".notdef" horiz-adv-x="500" 
d="M50 0v483h400v-483h-400zM100 50h300v383h-300v-383z" />
    <glyph glyph-name=".null" horiz-adv-x="0" 
 />
    <glyph glyph-name="nonmarkingreturn" horiz-adv-x="333" 
 />
    <glyph glyph-name="space" unicode=" " horiz-adv-x="50" 
 />
    <glyph glyph-name="exclam" unicode="!" horiz-adv-x="56" 
d="M13 127v412h30v-445zM13 46l30 32v-78h-30v46z" />
    <glyph glyph-name="quotedbl" unicode="&#x22;" horiz-adv-x="225" 
d="M213 429v-94q-73 -113 -94 -65q-5 11 -7 31l30 73q0 -96 36 -68q2 2 5 4v86zM113 429v-94q-73 -113 -94 -65q-5 11 -7 31l30 73q0 -96 36 -68q2 2 5 4v86zM113 429z" />
    <glyph glyph-name="numbersign" unicode="#" horiz-adv-x="175" 
d="M43 193v-150l-15 9l-15 -9v150l15 -8zM162 193v-150l-15 8l-16 -8v150l16 -9zM12 31h151l-9 -16l9 -15h-151l9 15zM12 239h151l-9 -16l9 -15h-151l9 15zM12 239z" />
    <glyph glyph-name="dollar" unicode="$" horiz-adv-x="157" 
d="M94 546v-42q14 13 24 13q20 0 26 -46l-31 -74q0 71 -19 75v-208q14 -1 23.5 -5t15 -13t8.5 -18.5t4 -25.5t0.5 -28.5t-1 -34t-0.5 -35.5q-4 -6 -10 -16t-12 -19t-13.5 -20.5t-14.5 -21.5v-50l-22 23q-51 -57 -61 22l31 73q0 -73 21 -74v220q-20 -5 -52 -27v175q2 2 21 32
t31 47v45zM63 451q-9 -11 -21 -29v-166q11 3 21 5v190zM94 238v-194q8 10 19 27q5 67 1 111t-20 56zM94 238z" />
    <glyph glyph-name="percent" unicode="%" horiz-adv-x="360" 
d="M110 479q-7 0 -18 -10v-83q0 -93 35 -66l5 5v83q0 71 -22 71zM138 524q19 0 25 -46v-129q-74 -113 -95 -64q-4 12 -7 29v130q52 79 77 80zM243 212q-8 0 -19 -10v-83q1 -93 35 -66q3 2 5 5v83q0 71 -21 71zM270 257q19 0 25 -46v-129q-74 -113 -95 -64q-4 11 -7 29v130
q52 79 77 80zM331 524h18l-311 -538l-9 15h-18l311 538z" />
    <glyph glyph-name="ampersand" unicode="&#x26;" horiz-adv-x="258" 
d="M119 505q20 1 26 -46l-31 -73q0 70 -20 74q-18 4 -52 -50v-66q0 -55 14 -62.5t58 20.5v75l31 32v-151q55 85 80 79q16 -4 22 -45l-31 -74q0 73 -21 75q-17 2 -50 -50v-147q33 -52 50 -51q21 2 21 75l31 -74q-6 -43 -23 -45q-9 -2 -21 7t-25.5 26t-23.5 31.5t-23 36
t-17 26.5v74q-42 28 -57 22.5t-15 -50.5v-79q34 -54 52 -50q20 4 20 74l31 -73q-6 -44 -23 -46q-9 -1 -21 7.5t-25.5 26t-23.5 31.5t-23.5 35.5t-16.5 27.5v45q0 1 -1 4q0 15 0.5 21.5t1.5 16t3.5 12.5t7.5 7t12 4t18.5 -1t25.5 -4t34 -9v57q-20 -6 -34 -9t-25.5 -4
t-18.5 -1t-12 4.5t-7.5 7t-3.5 12.5t-1.5 16.5t-0.5 21.5v48q4 6 17 26.5t23 34.5t23 31t24.5 26.5t20.5 9.5zM119 505z" />
    <glyph glyph-name="quotesingle" unicode="'" horiz-adv-x="125" 
d="M113 429v-94q-73 -113 -94 -65q-5 11 -7 31l30 73q0 -96 36 -68q2 2 5 4v86zM113 429z" />
    <glyph glyph-name="parenleft" unicode="(" horiz-adv-x="157" 
d="M119 663q20 0 26 -45l-31 -74q0 69 -18 74t-53 -50v-601q36 -55 53 -49q18 6 18 74l31 -74q-6 -48 -27 -46q-9 1 -20.5 10.5t-24 26.5t-22.5 31t-22.5 34t-16.5 26v535q4 6 17 26.5t22.5 34.5t22.5 31t24.5 26.5t20.5 9.5z" />
    <glyph glyph-name="parenright" unicode=")" horiz-adv-x="157" 
d="M38 663q9 0 20.5 -9.5t24.5 -26.5t22.5 -31t22.5 -34.5t17 -26.5v-535q-4 -6 -16.5 -26t-22.5 -34t-22.5 -31t-24 -26.5t-20.5 -10.5q-21 -2 -27 46l31 74q0 -68 18 -74q17 -6 53 49v601q-35 55 -53 50t-18 -74l-31 74q6 45 26 45z" />
    <glyph glyph-name="asterisk" unicode="*" horiz-adv-x="173" 
d="M71 426l15 -9l16 9v-38l27 27l4 -17l18 -5l-27 -27h38l-9 -15l9 -16h-38l27 -26l-18 -5l-4 -17l-27 27v-38l-16 9l-15 -9v38l-27 -27l-4 17l-18 5l27 26h-38l9 16l-9 15h38l-27 27l18 5l4 17l27 -27v38z" />
    <glyph glyph-name="plus" unicode="+" horiz-adv-x="237" 
d="M103 330l15 -9l16 9v-91h92l-9 -16l9 -15h-92v-92l-16 9l-15 -9v92h-92l9 15l-9 16h92v91zM103 330z" />
    <glyph glyph-name="comma" unicode="," horiz-adv-x="126" 
d="M114 33v-94q-73 -113 -94 -66q-5 12 -8 32l31 73q0 -96 35 -68q3 2 5 4v86zM114 33z" />
    <glyph glyph-name="hyphen" unicode="-" horiz-adv-x="177" 
d="M13 239h151l-9 -16l9 -15h-151l9 15zM13 239z" />
    <glyph glyph-name="period" unicode="." horiz-adv-x="55" 
d="M12 46l31 32v-78h-31v46zM12 46z" />
    <glyph glyph-name="slash" unicode="/" horiz-adv-x="320" 
d="M29 0h-18l271 469l9 -16h18l-271 -468z" />
    <glyph glyph-name="zero" unicode="0" horiz-adv-x="157" 
d="M12 411q2 2 5 7q14 22 24.5 37t29 39t34 36t25.5 9q15 -5 15 -46v-365l-6 -9q-16 -24 -26.5 -39t-29 -39t-33.5 -34.5t-24 -6.5q-14 6 -14 45v366zM114 420q0 26 -7.5 45.5t-20.5 19.5q-18 0 -43 -41v-325q0 -57 13 -70q17 -19 58 46v325zM114 420z" />
    <glyph glyph-name="one" unicode="1" horiz-adv-x="56" 
d="M28 532l15 9v-541l-15 9l-15 -9v541zM28 532z" />
    <glyph glyph-name="two" unicode="2" horiz-adv-x="157" 
d="M118 0q-9 0 -20.5 9.5t-24.5 26.5t-22.5 31.5t-22.5 34.5t-17 26v175q42 -29 65 -29q29 -1 35.5 39.5t1.5 132.5q-14 21 -26.5 35.5t-23.5 14.5q-21 0 -21 -75l-31 74q3 26 10 36.5t18 9.5q9 -1 20.5 -11t24 -26.5t22 -31t22 -34t16.5 -25.5q0 -15 1 -39.5t1 -38.5
t-1.5 -30.5t-7 -26.5t-14.5 -17q-23 -16 -81 -1v-165q71 -110 71 25l31 -74q-6 -46 -26 -46zM118 0z" />
    <glyph glyph-name="three" unicode="3" 
d="M37 538q9 0 21 -9t24.5 -26t22.5 -31.5t22.5 -35t16.5 -25.5v-284q-3 -5 -17 -27.5t-24.5 -37t-24 -32t-25.5 -25.5t-21 -5q-15 5 -20 45l30 74q0 -69 19 -74q17 -6 53 50v143q-33 51 -50 51q-22 0 -22 -75l-30 74q5 42 22 45q15 3 35 -19.5t45 -59.5v189q-34 52 -51 51
q-21 -3 -21 -75l-30 74q5 46 25 45zM37 538z" />
    <glyph glyph-name="four" unicode="4" horiz-adv-x="158" 
d="M43 538v-294q0 -59 14 -71q17 -16 57 47l1 281l30 33v-534h-30v205q-24 -37 -49 -61.5t-40 -17.5q-13 7 -13 44v335zM43 538z" />
    <glyph glyph-name="five" unicode="5" horiz-adv-x="157" 
d="M39 0q-20 0 -26 46l31 74q0 -62 15 -73q17 -12 56 48v165q-49 -13 -73 -3q-12 5 -19 14.5t-9 27t-2.5 31t0.5 41t1 42.5q4 6 17.5 27.5t23.5 36t24 32t25.5 26t20.5 6.5q17 -5 22 -46l-31 -74q0 69 -18 75q-17 5 -53 -50q-5 -92 2 -132.5t36 -39.5q23 1 64 29v-175
q-4 -6 -17 -26t-22.5 -34.5t-22.5 -31.5t-24.5 -26.5t-20.5 -9.5zM39 0z" />
    <glyph glyph-name="six" unicode="6" 
d="M30 0q-18 1 -18 44v1v368q4 6 17 27t23 35.5t23.5 32t25 26t20.5 7.5q18 -3 23 -46l-30 -74q0 71 -20 75q-17 3 -52 -51v-207q52 79 77 80q20 1 25 -46v0v-151q-1 -3 -11 -16.5t-16 -21.5t-17 -22.5t-19.5 -23.5t-18 -18.5t-18 -14t-14.5 -4.5zM114 94v104q0 76 -23 75
q-17 -1 -49 -50v-105q0 -30 9 -45.5t21 -15.5q20 1 42 37zM114 94z" />
    <glyph glyph-name="seven" unicode="7" horiz-adv-x="157" 
d="M11 33v278q39 -27 62 -29q31 -3 38 37.5t2 134.5q-32 50 -49 50q-22 1 -22 -74l-31 73q6 45 24 46q10 1 21.5 -8t24.5 -26.5t23 -31.5t23 -35t17 -27q0 -15 1 -41.5t0.5 -40.5t-2.5 -31t-8.5 -27t-17.5 -15q-24 -11 -75 3v-269zM11 33z" />
    <glyph glyph-name="eight" unicode="8" 
d="M37 0q-20 0 -25 46v109q4 7 14.5 24t17.5 26q-4 -1 -7 -1q-20 0 -25 46v0v163l30 47q24 37 44.5 59t34.5 21q18 -3 23 -46v0v-162q-4 -6 -14.5 -23t-17.5 -27q12 4 20.5 -6t11.5 -38v-110q-4 -6 -16.5 -26t-22.5 -34.5t-22.5 -31.5t-24.5 -26.5t-21 -9.5zM114 95v69
q0 135 -72 24v-68q0 -39 5 -58t15 -18.5t22.5 13.5t29.5 38zM114 299v121q0 73 -21 75q-17 1 -51 -51v-120q1 -71 20 -74.5t52 49.5zM114 299z" />
    <glyph glyph-name="nine" unicode="9" 
d="M126 541q18 -1 18 -45v0v-368q-3 -6 -16.5 -27t-23.5 -35.5t-23.5 -32t-25 -26t-20.5 -7.5q-18 3 -23 46l30 73q0 -70 20 -74q17 -3 52 50v207q-52 -79 -77 -79q-20 -1 -25 45v0v152q1 2 11 16t16 22t17 22.5t19.5 23t18 18.5t18 14.5t14.5 4.5zM42 447v-105
q0 -75 23 -75q17 1 49 51v104q0 31 -9 46t-21 15q-20 0 -42 -36zM42 447z" />
    <glyph glyph-name="colon" unicode=":" horiz-adv-x="55" 
d="M12 303l31 32v-78h-31v46zM12 46l31 32v-78h-31v46z" />
    <glyph glyph-name="semicolon" unicode=";" horiz-adv-x="126" 
d="M114 33v-94q-73 -113 -94 -66q-5 12 -8 32l31 73q0 -96 35 -68q3 2 5 4v86zM83 303l31 32v-78h-31v46zM83 303z" />
    <glyph glyph-name="less" unicode="&#x3c;" 
d="M114 422l31 -32v-49q0 -15 -0.5 -21.5t-1.5 -16t-3.5 -12.5t-7.5 -7.5t-12 -4t-18.5 1t-25.5 4l-34 8.5v-56l34 8.5t25.5 4t18.5 1t12 -4t7.5 -7.5t3.5 -12.5t1.5 -16t0.5 -21.5v-4v-45l-31 -32v79q0 18 -1.5 29t-7 16.5t-12.5 5.5t-19.5 -5.5t-26.5 -14.5t-36 -24v142
q29 -20 44 -29t28.5 -14t19.5 2t8.5 21t2.5 41v65z" />
    <glyph glyph-name="equal" unicode="=" horiz-adv-x="175" 
d="M12 31h151l-9 -16l9 -15h-151l9 15zM12 239h151l-9 -16l9 -15h-151l9 15zM12 239z" />
    <glyph glyph-name="greater" unicode="&#x3e;" 
d="M42 422l-31 -32v-49q0 -15 0.5 -21.5t1.5 -16t3.5 -12.5t7.5 -7.5t12 -4t18.5 1t25.5 4l34 8.5v-56l-34 8.5t-25.5 4t-18.5 1t-12 -4t-7.5 -7.5t-3.5 -12.5t-1.5 -16t-0.5 -21.5v-4v-45l31 -32v79q0 18 1.5 29t7 16.5t12.5 5.5t19.5 -5.5t26.5 -14.5t36 -24v142
q-29 -20 -44 -29t-28.5 -14t-19.5 2t-8.5 21t-2.5 41v65z" />
    <glyph glyph-name="question" unicode="?" 
d="M11 46l31 32v-78h-31v46zM11 129v182q39 -27 62 -28.5t32 18.5t9 64v86q-37 59 -54 53q-18 -7 -18 -74l-31 73q5 38 19 45q9 4 21 -3t26.5 -25t24.5 -32.5t25 -38t18 -28.5v-93q0 -43 -22 -59t-81 0v-173zM11 129z" />
    <glyph glyph-name="at" unicode="@" horiz-adv-x="348" 
d="M183 386q-14 0 -25 -13.5t-25 -36.5v-121q0 -135 71 -25v121q0 74 -21 75zM215 509q-44 -1 -94.5 -19t-78.5 -41v-449q0 -40 24 -58.5t59 -16t73 14t67 26.5t40 25q-9 3 -20 13.5t-23 27t-21.5 30t-21 32t-15.5 24.5v57q-48 -73 -78 -79q-24 -5 -24 45v162q4 6 11.5 18
t14.5 22.5l16 24t17 24t16.5 19.5t17 14.5t14.5 5.5q10 0 18 -11.5t8 -34.5v-299q31 -49 48 -51q21 -2 23 66v340q-2 68 -88 68h-3zM280 560q56 0 56 -45v-491q0 -49 -94 -90q-91 -39 -173 -37q-57 2 -57 29v490q0 23 47 57.5t111.5 60.5t109.5 26z" />
    <glyph glyph-name="A" unicode="A" horiz-adv-x="158" 
d="M120 540q20 0 25 -46v-494h-30v185q-71 111 -71 -24v-161h-31v412q4 6 16.5 26t22.5 34.5t22.5 31.5t24.5 26t21 10zM94 495h-2q-17 -1 -48 -51v-165q24 -7 71 -78v219q0 74 -21 75zM93 495z" />
    <glyph glyph-name="B" unicode="B" 
d="M37 0q-20 0 -25 46v110q4 6 14.5 23t17.5 26q-4 -1 -7 -1q-20 0 -25 46v290h30v-80q74 112 95 65q5 -11 7 -31v-162q-4 -6 -14.5 -23t-17.5 -27q12 4 20.5 -6t11.5 -38v-110q-4 -6 -16.5 -26t-22.5 -34.5t-22.5 -31.5t-24.5 -26.5t-21 -9.5zM114 95v69q0 135 -72 24v-68
q0 -39 5 -58t15 -18.5t22.5 13.5t29.5 38zM114 299v121q0 135 -72 24v-120q1 -71 20 -74.5t52 49.5zM114 299z" />
    <glyph glyph-name="C" unicode="C" 
d="M119 540q20 1 25 -46l-30 -73q0 71 -20 74q-18 3 -52 -50v-350q34 -52 51 -51q21 2 21 75l30 -74q-3 -27 -10.5 -37.5t-19.5 -7.5q-9 2 -20 12.5t-23.5 27t-22 30.5t-21 32.5t-15.5 24.5v285q4 6 16.5 26.5t22.5 34.5t22.5 31t24.5 26.5t21 9.5zM119 540z" />
    <glyph glyph-name="D" unicode="D" horiz-adv-x="158" 
d="M115 541h31v-541h-31v85q-65 -92 -89 -83q-14 6 -14 46v333q73 109 103 125v35zM87 455q-19 0 -44 -41v-293q0 -66 17.5 -73.5t53.5 49.5v293q0 27 -7 46t-20 19zM87 455z" />
    <glyph glyph-name="E" unicode="E" 
d="M119 539q20 0 25 -46l-30 -74q0 74 -22 75q-17 1 -50 -50v-190q57 87 82 79q15 -4 20 -45l-30 -74q0 66 -17 74q-17 9 -55 -49v-144q32 -49 49 -50q23 -2 23 74l30 -74q-2 -21 -8 -32t-14 -13q-9 -2 -20.5 6.5t-25 26t-23.5 32t-24 36t-17 27.5v283q4 6 16.5 26
t22.5 34.5t22.5 31.5t24.5 26.5t21 9.5zM119 539z" />
    <glyph glyph-name="F" unicode="F" horiz-adv-x="157" 
d="M119 538q20 0 26 -46l-31 -74q0 79 -24 74q-17 -3 -47 -50v-189q73 112 94 65q5 -11 8 -31l-31 -74q0 70 -19 75q-17 3 -52 -50v-238h-31v410q4 6 17 26t22.5 34.5t22.5 31.5t24.5 26t20.5 10zM119 538z" />
    <glyph glyph-name="G" unicode="G" horiz-adv-x="257" 
d="M221 540q19 0 25 -46l-31 -73q0 70 -19 74q-17 4 -52 -50v-353q-3 -5 -17 -27.5t-24 -37t-24 -32t-26 -25.5t-21 -5q-15 5 -20 45l31 74q0 -39 5.5 -56.5t14.5 -18.5q18 -1 51 51v75q-9 2 -20.5 12.5t-23.5 26.5t-21.5 30t-21.5 33t-16 25v206q12 99 92 -19q8 -11 17 -26
q2 4 9 15t11 16.5t11 16.5t12 17.5t12 16t12.5 14.5t11.5 10.5t11.5 8t10.5 2.5zM63 469q-21 -1 -21 -74v-166q32 -49 49 -50q22 -2 22 74v166q-33 51 -50 50zM63 469z" />
    <glyph glyph-name="H" unicode="H" horiz-adv-x="158" 
d="M114 539h31v0v-539h-30v185q-36 56 -54 50q-17 -6 -17 -74v-161h-31v540h30l1 -261q24 -7 71 -78zM115 539z" />
    <glyph glyph-name="I" unicode="I" horiz-adv-x="56" 
d="M13 507l30 32v-539h-30v507zM13 507z" />
    <glyph glyph-name="J" unicode="J" 
d="M144 127q-4 -6 -17 -26.5t-23 -35t-23 -32t-25 -26.5t-21 -8q-18 2 -23 46l30 74q0 -69 19 -74q17 -5 53 50v445h30v-413zM144 127z" />
    <glyph glyph-name="K" unicode="K" 
d="M12 540h30l1 -240q37 -58 54 -50t17 74v216h30v-290q0 -36 -12 -44q-14 -8 -39.5 16.5t-49.5 61.5v-90q6 -2 14 -8.5t16 -15.5t16 -19.5t16 -23t14.5 -22.5t13.5 -21t11 -17v-67h-31v100q-36 55 -53 49q-15 -5 -17 -52v-97h-31v540v0zM12 540z" />
    <glyph glyph-name="L" unicode="L" 
d="M12 128v413h30v-446q37 -57 54 -49q18 7 18 74l30 -74q-2 -16 -5.5 -26t-8 -14.5t-9.5 -5.5q-9 -1 -21 8t-25 26t-23 31.5t-23 35.5t-17 27zM12 128z" />
    <glyph glyph-name="M" unicode="M" horiz-adv-x="259" 
d="M12 0v412q0 30 46 83t71 43q16 -6 16 -43v-1v-34q20 35 40.5 56.5t36.5 22.5q25 3 25 -44v-1v-494h-31v421q2 64 -20 68q-21 3 -51 -44v-445h-31v421q0 69 -19 73q-18 4 -52 -49v-445h-31zM12 0z" />
    <glyph glyph-name="N" unicode="N" horiz-adv-x="158" 
d="M145 0h-30v420q0 76 -23 75q-17 -1 -49 -51v-444h-30v539h30v-79q52 79 77 79q20 1 25 -45v0v-494zM145 0z" />
    <glyph glyph-name="O" unicode="O" horiz-adv-x="157" 
d="M12 411q2 2 5 7q14 22 24.5 37t29 39t34 36t25.5 9q15 -5 15 -46v-365l-6 -9q-16 -24 -26.5 -39t-29 -39t-33.5 -34.5t-24 -6.5q-14 6 -14 45v366zM114 420q0 26 -7.5 45.5t-20.5 19.5q-18 0 -43 -41v-325q0 -57 13 -70q17 -19 58 46v325zM114 420z" />
    <glyph glyph-name="P" unicode="P" horiz-adv-x="258" 
d="M114 494q0 48 21 44q6 -1 14.5 -6.5t18 -16t17 -19.5t18.5 -23.5t16.5 -22.5t15.5 -22t11 -16v-299v-1q-4 -39 -19 -44q-25 -10 -83 79v-147q-4 -6 -17 -27t-23 -35.5t-23 -31.5t-25 -26t-21 -8q-18 2 -23 46l30 74q0 -75 22 -75q17 0 50 50v527v0zM216 444
q-34 53 -52.5 47t-19.5 -71v-258q34 -53 52 -50q20 3 20 74v258zM216 444z" />
    <glyph glyph-name="Q" unicode="Q" horiz-adv-x="258" 
d="M144 494v0v-527q38 -58 56 -48q16 9 16 73l30 -74q-4 -39 -19 -45q-6 -2 -14.5 1t-17.5 12t-17.5 19.5t-18.5 25t-17 25.5t-15.5 24.5t-12.5 19.5v147q-56 -87 -81 -80q-16 4 -21 45v1v299q1 2 11 16.5t16 22.5t17 23t19 24t17.5 19t17.5 15t14 6q20 2 20 -44zM42 444
v-258q0 -69 19 -74q17 -5 53 50v258q-1 77 -26 71q-18 -4 -46 -47zM42 444z" />
    <glyph glyph-name="R" unicode="R" horiz-adv-x="157" 
d="M30 538q7 0 15 -4.5t17.5 -14.5t18 -19t19.5 -24.5t17 -23t16.5 -23t11.5 -17.5v-219q-5 -42 -22 -46q-25 -5 -80 80v-33q11 -3 27 -20.5t26.5 -33t27.5 -42.5t20 -31v-66h-31v99q-38 60 -56 48q-12 -8 -14 -51v-97h-31v494v0q0 44 18 44zM66 492q-23 1 -23 -71v-179
q34 -52 51 -50q20 2 20 75v178q-30 47 -48 47zM66 492z" />
    <glyph glyph-name="S" unicode="S" horiz-adv-x="157" 
d="M118 541q20 0 26 -46l-31 -74q0 76 -22 75q-17 -1 -49 -50v-166q65 18 88 -6q8 -9 11.5 -26t4 -31t-0.5 -44.5t-1 -44.5q-4 -6 -17.5 -27t-23.5 -35.5t-23 -32t-25 -26t-21 -7.5q-17 2 -23 46l31 73q0 -37 5 -54.5t14 -19.5q17 -4 52 50q5 90 -1.5 130.5t-33.5 41.5
q-23 1 -67 -29v175q4 5 10.5 15.5t12 19.5t13.5 20.5t15 21.5t15 19.5t14.5 16t14 11t12.5 4.5zM118 541z" />
    <glyph glyph-name="T" unicode="T" horiz-adv-x="258" 
d="M12 494q0 36 12 43q16 10 48 -25t57 -77q13 21 21.5 34t22 31t25.5 28t21 11q21 3 27 -45l-30 -74q0 77 -24 74q-17 -2 -48 -50v-444h-30v444q-39 60 -56 49q-16 -11 -16 -73zM12 494z" />
    <glyph glyph-name="U" unicode="U" horiz-adv-x="158" 
d="M13 539h30v-419q0 -76 23 -75q17 1 49 50v444h30v-539h-30v80q-52 -79 -77 -80q-20 0 -25 46v493zM13 539z" />
    <glyph glyph-name="V" unicode="V" horiz-adv-x="259" 
d="M38 539q9 0 20.5 -9.5t24.5 -26.5t22.5 -31.5t22.5 -34.5t17 -26v-316q32 -49 49 -50q22 -1 22 75v419h31v-493v0q-6 -46 -26 -46q-9 0 -20.5 9.5t-24.5 26.5t-22.5 31.5t-22.5 34.5t-17 26v316q-37 57 -54 49t-17 -74l-31 74q6 46 26 46zM38 539z" />
    <glyph glyph-name="W" unicode="W" horiz-adv-x="461" 
d="M138 539q9 1 21 -8.5t26 -28.5t23 -32t23 -35q14 24 23.5 38t25 33.5t27.5 27.5t21 4q15 -6 20 -45l-31 -73q0 69 -18 74t-53 -50v-349q32 -50 50 -50q21 0 21 75v284q4 5 19 29t25 38.5t24.5 32.5t26.5 24.5t21 1.5q12 -9 17 -44l-31 -73q0 70 -19 74q-17 4 -52 -50
v-391q-6 -46 -26 -46q-9 0 -20.5 9.5t-25.5 28t-23 31.5t-23 35q-13 -22 -22 -35t-23 -31.5t-25.5 -28t-20.5 -9.5q-20 0 -26 46v391q-36 56 -53.5 49.5t-17.5 -73.5l-31 73q5 40 20 45q9 3 21 -4.5t26 -25t24 -32t24 -37t18 -28.5v-284q0 -60 14 -72q17 -15 57 47v349
q-37 57 -54 49q-17 -7 -17 -73l-31 73q6 45 25 46zM138 539z" />
    <glyph glyph-name="X" unicode="X" horiz-adv-x="258" 
d="M221 541q20 0 25 -46l-30 -74q0 64 -16 73q-18 10 -56 -49v-135q56 85 81 79q16 -4 21 -45l-30 -74q0 70 -19 74q-18 5 -53 -50v-199q35 -54 53 -50q19 5 19 75l30 -74q-5 -43 -22 -46q-9 -1 -21 7.5t-26.5 27.5t-24 32.5t-23.5 36.5q-14 -22 -23 -35t-23 -32t-26 -28
t-21 -9q-19 1 -24 46l30 74q0 -69 19 -75q17 -5 53 50v151q-61 -93 -85 -77q-13 8 -17 43l31 74q0 -61 14 -72q17 -14 57 48v183q-38 59 -55 49q-17 -8 -17 -73l-30 74q5 45 24 46q9 0 21 -9t26 -28t23 -32t23 -35q14 21 22.5 34.5t22.5 32t26 28t21 9.5zM221 541z" />
    <glyph glyph-name="Y" unicode="Y" horiz-adv-x="258" 
d="M138 540q8 0 18 -7t19 -17.5t20.5 -26t19 -28t17.5 -28t14 -21.5v-420q-3 -5 -17 -27.5t-24.5 -37t-24 -32t-25.5 -25.5t-21 -5q-15 5 -20 45l30 74q0 -69 19 -74q17 -5 52 50v162q-22 -35 -41.5 -57t-34.5 -22q-20 -1 -25 45v239q-36 56 -53 50q-18 -5 -18 -74l-31 74
q5 42 22 45q9 2 20.5 -6t25 -25.5t23.5 -32t24 -36.5t17 -27v-133q0 -68 18 -74t53 50v307q-36 56 -53.5 49.5t-17.5 -73.5l-30 73q5 45 24 46zM138 540z" />
    <glyph glyph-name="Z" unicode="Z" horiz-adv-x="157" 
d="M118 0q-7 0 -17 7.5t-19 18t-20.5 26t-19 27.5t-17.5 27.5t-14 21.5v175q41 -28 64 -29q29 -2 36 38.5t2 133.5q-34 54 -52 50q-19 -4 -19 -75l-31 74q6 42 22 46q7 1 15 -3.5t17 -13.5t17.5 -19.5t18 -24t16.5 -24.5t15 -24t12 -19q0 -15 1 -41t1 -39.5t-2 -30.5t-8 -27
t-16 -16q-24 -13 -78 1v-165q37 -57 54 -49q17 7 17 74l31 -74q-6 -46 -26 -46zM118 0z" />
    <glyph glyph-name="bracketleft" unicode="[" horiz-adv-x="157" 
d="M119 663q20 0 26 -45l-31 -74q0 69 -18 74t-53 -50v-601q36 -55 53 -49q18 6 18 74l31 -74q-6 -48 -27 -46q-9 1 -20.5 10.5t-24 26.5t-22.5 31t-22.5 34t-16.5 26v535q4 6 17 26.5t22.5 34.5t22.5 31t24.5 26.5t20.5 9.5z" />
    <glyph glyph-name="backslash" unicode="\" horiz-adv-x="320" 
d="M291 0h18l-271 469l-9 -16h-18l271 -468z" />
    <glyph glyph-name="bracketright" unicode="]" horiz-adv-x="157" 
d="M38 663q9 0 20.5 -9.5t24.5 -26.5t22.5 -31t22.5 -34.5t17 -26.5v-535q-4 -6 -16.5 -26t-22.5 -34t-22.5 -31t-24 -26.5t-20.5 -10.5q-21 -2 -27 46l31 74q0 -68 18 -74q17 -6 53 49v601q-35 55 -53 50t-18 -74l-31 74q6 45 26 45z" />
    <glyph glyph-name="asciicircum" unicode="^" horiz-adv-x="231" 
d="M44 668q0 -135 72 -25q71 -110 71 25l30 -74q-12 -99 -92 20q-5 6 -9 14q-74 -112 -95 -65q-5 11 -7 31zM44 668z" />
    <glyph glyph-name="grave" unicode="`" horiz-adv-x="129" 
d="M14 564v16q73 112 94 65q5 -12 7 -31l-30 -74q0 135 -71 24z" />
    <glyph glyph-name="a" unicode="a" horiz-adv-x="157" 
d="M119 335q20 1 26 -45v-290h-31v80q-22 -35 -46 -59t-39 -21q-17 4 -17 45v162q4 6 17 26.5t22.5 34.5t22.5 31t24.5 26.5t20.5 9.5zM93 290q-21 0 -50 -50v-121q0 -72 20 -74q17 -3 51 50v121q0 28 -2 44t-6.5 23.5t-12.5 6.5zM93 290z" />
    <glyph glyph-name="b" unicode="b" horiz-adv-x="157" 
d="M43 537v-281q23 35 47 59t39 20q16 -4 16 -45v-1v-161q-4 -6 -17 -26t-22.5 -34.5t-22.5 -31.5t-24.5 -26.5t-20.5 -9.5q-20 0 -26 46v0v458zM93 291q-21 -1 -50 -51v-120q0 -74 21 -75q21 0 50 50v121q0 74 -21 75zM93 291z" />
    <glyph glyph-name="c" unicode="c" 
d="M119 335q20 0 25 -46l-30 -74q0 74 -21 75q-18 1 -51 -50v-145q33 -51 51 -50q21 1 21 75l30 -74q-2 -15 -5 -25t-7 -14.5t-10 -6.5q-9 -1 -20.5 7.5t-25 25.5t-23.5 31.5t-24 36t-17 27.5v79q4 6 13.5 21.5t17.5 27.5t19 27.5t20 26t19 18t18 7.5zM119 335z" />
    <glyph glyph-name="d" unicode="d" horiz-adv-x="157" 
d="M145 539v-539h-31v85q-59 -85 -84 -84q-18 1 -18 47v0v170q72 109 102 125v163zM86 292q-18 0 -43 -41v-130q0 -68 18 -74q17 -5 53 50v130q0 17 -3 31.5t-9.5 24t-15.5 9.5zM86 292z" />
    <glyph glyph-name="e" unicode="e" 
d="M93 312q-18 1 -51 -50v-95q47 72 71 79q-1 65 -20 66zM119 357q20 0 25 -46l-26 -64q20 2 26 -45l-30 -74q0 72 -21 74q-17 2 -51 -50v-57q36 -55 53 -50q19 6 19 75l30 -74q-5 -45 -24 -46q-9 -1 -20.5 8t-25 26.5t-23 32t-22.5 35t-17 26.5v101q4 6 13.5 21.5
t17.5 27.5t19 27.5t20 26t19 18t18 7.5z" />
    <glyph glyph-name="f" unicode="f" horiz-adv-x="157" 
d="M119 538q20 0 26 -46l-31 -74q0 74 -21 75q-17 0 -50 -51v-189q56 86 81 79q16 -4 21 -45l-31 -74q0 65 -16 74q-17 9 -55 -49v-238h-31v410q4 6 17 26t22.5 34.5t22.5 31.5t24.5 26t20.5 10zM119 538z" />
    <glyph glyph-name="g" unicode="g" horiz-adv-x="157" 
d="M126 334q19 -1 19 -45v-289q-4 -6 -17 -26.5t-23 -35t-23 -32t-25 -26.5t-21 -8q-18 2 -24 46l31 74q0 -71 19 -75q18 -3 52 50v112q-52 -79 -76 -79q-20 -1 -26 45v0v168q2 2 11.5 16t15.5 22t17 22t19.5 23t18.5 19t18 14.5t14 4.5zM93 290q-21 0 -50 -50v-121
q0 -75 22 -75q17 1 49 51v120q0 74 -21 75zM93 290z" />
    <glyph glyph-name="h" unicode="h" horiz-adv-x="158" 
d="M43 537v-283q52 79 77 80q20 0 25 -46v0v-288h-30v214q0 76 -23 75q-17 -1 -49 -50v-239h-30v505zM43 537z" />
    <glyph glyph-name="i" unicode="i" horiz-adv-x="56" 
d="M13 386l30 33v-79h-30v46zM13 302l30 32v-334h-30v302zM13 302z" />
    <glyph glyph-name="j" unicode="j" horiz-adv-x="157" 
d="M114 386l31 33v-79h-31v46zM145 334v-334q-4 -5 -18.5 -28t-24.5 -38t-24.5 -32.5t-26.5 -25t-20 -2.5q-14 6 -19 44l31 74q0 -68 17.5 -74.5t53.5 49.5v335zM145 334z" />
    <glyph glyph-name="k" unicode="k" horiz-adv-x="157" 
d="M43 537v-278q24 37 43.5 59t34.5 21q18 -1 24 -46l-26 -62q12 -1 19 -13t7 -33v-218l-31 33q0 18 0.5 51t0.5 48t-1 34.5t-4.5 28.5t-8.5 13q-16 9 -58 -39v-136h-31v504zM92 294q-17 -1 -49 -50v-93q47 72 71 79q-2 65 -22 64zM92 294z" />
    <glyph glyph-name="l" unicode="l" horiz-adv-x="157" 
d="M43 537v-570q35 -54 52 -50q19 5 19 75l31 -74q-4 -27 -11.5 -37.5t-19.5 -7.5q-11 3 -27 20.5t-26.5 33t-28 42.5t-20.5 31v504zM43 537z" />
    <glyph glyph-name="m" unicode="m" horiz-adv-x="260" 
d="M13 288q0 46 25 46q13 -1 31.5 -20.5t30 -36.5t30.5 -47q14 22 22.5 35t22.5 31.5t25.5 28t21.5 9.5t17.5 -11.5t7.5 -34.5v-288h-30v214q0 76 -23 75q-17 -1 -49 -50v-239h-30v239q-32 49 -49 50q-22 1 -22 -75v-214h-31v288zM13 288z" />
    <glyph glyph-name="n" unicode="n" horiz-adv-x="157" 
d="M119 334q10 0 18 -11.5t8 -34.5v-288h-31v214q0 76 -22 75q-17 -1 -49 -50v-239h-31v206q4 6 17 26t22.5 34.5t22.5 31.5t24.5 26.5t20.5 9.5zM119 334z" />
    <glyph glyph-name="o" unicode="o" 
d="M12 209q75 114 105 126q27 11 27 -44v0v-162q-70 -105 -99 -123q-32 -13 -33 41v0v162zM114 217q-1 21 -5.5 37.5t-12.5 25t-22.5 -0.5t-31.5 -37v-121q0 -135 72 -24v120zM114 217z" />
    <glyph glyph-name="p" unicode="p" horiz-adv-x="157" 
d="M12 290q0 12 6 28.5t20 16.5q9 0 20.5 -9t24.5 -26t22.5 -31.5t22.5 -35t17 -25.5v-162q0 -15 -4 -26t-9 -15.5t-12 -4.5q-14 -1 -34 21.5t-43 58.5v-281l-31 32v459zM65 291q-4 0 -7.5 -1.5t-5.5 -5t-3.5 -7t-2.5 -9t-2 -10t-1 -11v-11v-11v-9.5v-121q32 -49 49 -50
q22 -1 22 75v120q-32 50 -49 51zM65 291z" />
    <glyph glyph-name="q" unicode="q" horiz-adv-x="157" 
d="M145 290q0 12 -6 28.5t-20 16.5q-7 0 -17 -7t-19.5 -17.5t-20.5 -26t-18.5 -28t-17.5 -27.5l-14 -21v-162q0 -22 7.5 -34t17.5 -12q14 -1 34 21.5t43 58.5v-281l31 32v459zM92 291q4 0 7.5 -1.5t5.5 -5t3.5 -7t2.5 -9t2 -10t1 -11v-11v-11v-9.5v-121q-32 -49 -49 -50
q-22 -1 -22 75v120q32 50 49 51zM92 291z" />
    <glyph glyph-name="r" unicode="r" 
d="M12 207q4 5 16.5 25.5t22.5 34.5t22.5 31t24.5 26.5t21 9.5q20 1 25 -45l-30 -74q0 74 -22 75q-17 0 -50 -51v-239h-30v207zM12 207z" />
    <glyph glyph-name="s" unicode="s" horiz-adv-x="157" 
d="M118 346q20 1 26 -46l-31 -73q0 134 -71 24v-73q77 21 93 9q5 -4 7.5 -10t3 -16t0 -20t-1 -27.5t-0.5 -31.5q-4 -6 -17 -27t-23 -35.5t-23.5 -31.5t-25 -26t-20.5 -8q-18 2 -24 46l31 73q0 -68 18 -74q17 -6 53 50q5 67 1.5 98t-19.5 32q-18 2 -84 -43v82q4 6 10.5 16
t12 19t13.5 20.5t15 21.5t15 19.5t14.5 16.5t14 11t12.5 4zM118 346z" />
    <glyph glyph-name="t" unicode="t" 
d="M42 504v-217q56 86 81 80q16 -4 21 -46l-30 -74q0 73 -21 75q-17 2 -51 -50v-178q34 -52 51 -50q21 2 21 75l30 -74q-2 -15 -5 -25t-7.5 -15t-10.5 -6q-9 -1 -20.5 7.5t-25 26t-23.5 32t-23 35.5t-17 27v345zM42 504z" />
    <glyph glyph-name="u" unicode="u" horiz-adv-x="158" 
d="M13 334h30v-214q0 -76 23 -75q17 1 49 50v239h30v-334h-30v80q-23 -35 -42.5 -57.5t-34.5 -22.5q-10 0 -17.5 11.5t-7.5 34.5v288zM13 334z" />
    <glyph glyph-name="v" unicode="v" horiz-adv-x="157" 
d="M38 0q-20 0 -26 46v0v288h31v-214q0 -76 22 -75q17 1 49 50v239h31v-206q-4 -6 -17 -26t-22.5 -34.5t-22.5 -31.5t-24.5 -26.5t-20.5 -9.5zM38 0z" />
    <glyph glyph-name="w" unicode="w" horiz-adv-x="260" 
d="M13 46v288h30v-214q0 -76 23 -75q17 1 49 50v239h30v-239q32 -49 49 -50q22 -1 22 75v214h31v-288q0 -23 -7.5 -34.5t-17.5 -11.5t-21.5 9.5t-25.5 28t-22.5 31.5t-22.5 35q-19 -30 -30.5 -47.5t-30 -37t-31.5 -19.5q-25 0 -25 46zM13 46z" />
    <glyph glyph-name="x" unicode="x" horiz-adv-x="257" 
d="M221 335q11 -1 18 -16.5t7 -29.5l-31 -74q0 75 -22 75q-17 0 -49 -51v-60h60l-9 -15l9 -16h-60v-53q32 -50 49 -50q22 0 22 75l31 -74q-6 -43 -23 -46q-9 -1 -21 7.5t-26.5 27.5t-23.5 32.5t-23 36.5q-14 -22 -23 -35.5t-23 -32t-26 -27.5t-21 -9q-19 1 -25 46l31 74
q0 -68 17.5 -74.5t53.5 49.5v53h-60l9 16l-9 15h60v60q-36 56 -53.5 49.5t-17.5 -73.5l-31 74q6 45 25 45q9 1 21 -8.5t26 -28t23 -31.5t23 -35q13 21 22 34.5t23 32t25.5 28t21.5 9.5zM221 335z" />
    <glyph glyph-name="y" unicode="y" horiz-adv-x="158" 
d="M115 335h30v-385q-4 -6 -17 -26.5t-22.5 -35t-23 -32t-25 -26.5t-20.5 -8q-19 1 -24 46l30 74q0 -73 21 -75q17 -2 51 50v163q-52 -79 -77 -80q-20 0 -25 46v289h30v-215q0 -57 13 -71q17 -19 59 46v240zM115 335z" />
    <glyph glyph-name="z" unicode="z" horiz-adv-x="157" 
d="M39 346q9 0 20.5 -9t24.5 -26t22.5 -31.5t22.5 -35t17 -25.5v-83q-66 46 -84 44q-16 -2 -19.5 -32.5t1.5 -97.5q36 -56 53 -50q18 6 18 74l31 -74q-6 -44 -24 -46q-7 0 -17 6.5t-19.5 17t-21 26t-19.5 28t-18 28.5t-14 22q0 14 -0.5 32t-1 27.5t0 20t3 16.5t7.5 9
q16 12 93 -8v72q-71 111 -71 -24l-31 74q6 46 26 45zM39 347z" />
    <glyph glyph-name="braceleft" unicode="{" horiz-adv-x="195" 
d="M115 366h68v-31h-38v-101q0 -20 -0.5 -29t-3.5 -17.5t-10 -12.5q-17 -9 -89 11v-57q45 12 65 13.5t29 -6.5q9 -9 9 -58v-79h38v-31h-68v111q0 47 -17 51q-18 4 -86 -43v141q36 -25 55 -35.5t30 -7.5q18 5 18 64v117z" />
    <glyph glyph-name="bar" unicode="|" horiz-adv-x="56" 
d="M13 0v214l15 -9l15 9v-214l-15 9zM13 275v279l15 -9l15 9v-279l-15 9z" />
    <glyph glyph-name="braceright" unicode="}" horiz-adv-x="195" 
d="M80 366h-68v-31h38v-101q0 -16 0.5 -22.5t1.5 -15.5t4 -13.5t8 -7.5q17 -9 89 11v-57q-45 12 -65 13.5t-29 -6.5q-9 -9 -9 -58v-79h-38v-31h68v111q0 47 17 51q18 4 86 -43v141q-36 -25 -55 -35.5t-30 -7.5q-18 5 -18 64v117z" />
    <glyph glyph-name="asciitilde" unicode="~" horiz-adv-x="257" 
d="M220 463q20 0 26 -45l-31 -74q0 69 -18 74t-53 -50q-4 -6 -17.5 -27.5t-23.5 -36t-23.5 -32t-25.5 -25.5t-21 -6q-17 3 -22 45l31 74q0 -58 13 -71q17 -17 58 46q4 6 16.5 26.5t22.5 34.5t23 31t24.5 26.5t20.5 9.5z" />
    <glyph glyph-name="cent" unicode="&#xa2;" 
d="M86 536v-56q20 20 33 21q20 0 25 -46l-30 -74q0 31 -4 49t-9.5 23t-14.5 2v-406q4 -1 7 -1t5.5 2t5 5.5t4 9.5t3 14t2.5 19t1 25l30 -74q-9 -76 -58 -25v-57l-30 33v63q-10 15 -25.5 39t-18.5 29v242q3 5 18.5 29t25.5 39v63zM56 425q-6 -8 -14 -20v-307q8 -11 14 -19
v346zM56 425z" />
    <glyph glyph-name="brokenbar" unicode="&#xa6;" horiz-adv-x="56" 
d="M13 0v214l15 -9l15 9v-214l-15 9zM13 275v279l15 -9l15 9v-279l-15 9z" />
    <glyph glyph-name="copyright" unicode="&#xa9;" horiz-adv-x="349" 
d="M215 473q20 0 26 -46l-31 -74q0 74 -21 75q-17 0 -50 -51v-166q33 -51 50 -50q21 0 21 74l31 -74q-6 -44 -24 -45q-9 -1 -21 8t-25 26t-23 31.5t-23 35.5t-17 27v101q4 6 17 26t22.5 34.5t22.5 31.5t24.5 26t20.5 10zM12 490q0 30 76 76q94 58 174 67q74 7 75 -44v-491
q0 -26 -76 -73q-98 -61 -176 -70q-73 -8 -73 45v490zM306 515q-1 40 -33 56.5t-75.5 10.5t-86.5 -22t-68 -37v-449q0 -40 24 -58.5t59 -16t73 14t67 26.5t40 26v449zM306 515z" />
    <glyph glyph-name="guillemotleft" unicode="&#xab;" horiz-adv-x="309" 
d="M115 422l30 -32v-49q0 -15 -0.5 -21.5t-1.5 -16t-3.5 -12.5t-7.5 -7.5t-12 -4t-18.5 1t-25.5 4l-34 8.5v-56l34 8.5t25.5 4t18.5 1t12 -4t7.5 -7.5t3.5 -12.5t1.5 -16t0.5 -21.5v-4v-45l-30 -32v79q0 18 -2 29t-7.5 16.5t-12.5 5.5t-19.5 -5.5t-26.5 -14.5t-36 -24v142
q29 -20 44 -29t29 -14t19.5 2t8.5 21t3 41v65zM267 422l31 -32v-49q0 -15 -0.5 -21.5t-1.5 -16t-3.5 -12.5t-7.5 -7.5t-12 -4t-18.5 1t-25.5 4l-34 8.5v-56l34 8.5t25.5 4t18.5 1t12 -4t7.5 -7.5t3.5 -12.5t1 -16v-21.5v-4v-45l-30 -32v79q0 18 -1.5 29t-7 16.5t-12.5 5.5
t-19.5 -5.5t-26.5 -14.5t-36 -24v142q24 -17 37.5 -25.5t27 -14.5t19.5 -4.5t11 9t6.5 21t1.5 35.5v65z" />
    <glyph glyph-name="registered" unicode="&#xae;" horiz-adv-x="349" 
d="M126 473q7 0 15 -5t17.5 -15t18 -19t19.5 -24.5t17 -23t16.5 -23t11.5 -17.5v-59v0q-5 -41 -21 -45q-25 -7 -81 79v-39q11 -4 27 -21t26.5 -32.5t27.5 -42.5t20 -31v-39h-31v72q-14 21 -26.5 35.5t-23.5 14.5q-17 -1 -20 -53v-69h-31v312v1q0 43 18 44zM162 426
q-23 1 -23 -71v-19q1 -1 4 -5q5 -8 7.5 -12.5t8 -12t9 -12t8 -9t8.5 -7t8 -2.5q18 0 18 69v34q-10 13 -15.5 20.5t-12 14.5t-11.5 9.5t-9 2.5zM12 490q0 30 76 76q94 58 174 67q74 7 75 -44v-491q0 -26 -76 -73q-98 -61 -176 -70q-73 -8 -73 45v490zM306 515q-1 40 -33 56.5
t-75.5 10.5t-86.5 -22t-68 -37v-449q0 -40 24 -58.5t59 -16t73 14t67 26.5t40 26v449zM306 515z" />
    <glyph glyph-name="degree" unicode="&#xb0;" horiz-adv-x="125" 
d="M61 495q-8 0 -19 -10v-82q1 -93 36 -67l5 5v83q-1 71 -22 71zM88 540q20 0 25 -45v-130q-73 -113 -94 -64q-5 11 -7 29v130q51 80 76 80z" />
    <glyph glyph-name="acute" unicode="&#xb4;" horiz-adv-x="129" 
d="M14 637q71 -111 71 24l30 -74q-12 -99 -92 20q-5 7 -9 14v16z" />
    <glyph glyph-name="paragraph" unicode="&#xb6;" horiz-adv-x="257" 
d="M215 535l31 32v-487q-2 -2 -6 -8q-16 -24 -26.5 -39t-29 -38.5t-33 -34.5t-24.5 -7q-14 5 -14 45v244q-48 -73 -78 -79q-24 -5 -24 45v231q4 6 17 26t22.5 34.5t22.5 31.5t24.5 26t20.5 10q20 0 26 -46v-449q0 -65 16 -72q17 -7 55 53v482z" />
    <glyph glyph-name="cedilla" unicode="&#xb8;" 
d="M114 81l31 -33v-48q0 -15 -0.5 -21.5t-1.5 -16.5t-3.5 -12.5t-7.5 -7t-12 -4.5t-18.5 1t-25.5 4t-34 9v-56l-31 -43v141q29 -19 44 -28t28.5 -14t19.5 2t8.5 21t2.5 40v66zM114 81z" />
    <glyph glyph-name="guillemotright" unicode="&#xbb;" horiz-adv-x="309" 
d="M194 422l-30 -32v-49q0 -15 0.5 -21.5t1.5 -16t3.5 -12.5t7.5 -7.5t12 -4t18.5 1t25.5 4l34 8.5v-56l-34 8.5t-25.5 4t-18.5 1t-12 -4t-7.5 -7.5t-3.5 -12.5t-1.5 -16t-0.5 -21.5v-4v-45l30 -32v79q0 13 1.5 22.5t4 16t6.5 9.5t10.5 3t13.5 -2.5t18 -9t22 -13.5t28 -19
v142q-29 -20 -44 -29t-29 -14t-19.5 2t-8.5 21t-3 41v65zM42 422l-31 -32v-49q0 -15 0.5 -21.5t1.5 -16t3.5 -12.5t7.5 -7.5t12 -4t18.5 1t25.5 4l34 8.5v-56l-34 8.5t-25.5 4t-18.5 1t-12 -4t-7.5 -7.5t-3.5 -12.5t-1 -16v-21.5v-4v-45l30 -32v79q0 18 1.5 29t7 16.5
t12.5 5.5t19.5 -5.5t26.5 -14.5t36 -24v142q-29 -20 -44 -29t-28.5 -14t-19 2t-8.5 21t-3 41v65z" />
    <glyph glyph-name="onequarter" unicode="&#xbc;" horiz-adv-x="305" 
d="M192 284v-109q0 -78 24 -74q17 3 47 50v100l31 33v-284h-31v136q-23 -35 -47 -59t-38 -21q-17 4 -17 45v150zM27 526l15 8v-284l-15 9l-16 -9v284zM166 506l17 4l-140 -522l-13 12l-17 -4l140 522zM166 506z" />
    <glyph glyph-name="onehalf" unicode="&#xbd;" horiz-adv-x="312" 
d="M193 338q10 -1 21.5 -10t24.5 -26t22.5 -31.5t22.5 -34.5t17 -26v-47q-53 35 -78 27.5t-25 -53.5l1 -42q36 -56 53.5 -49.5t17.5 73.5l31 -73q-3 -23 -9 -34t-14 -12q-9 -1 -21 7.5t-25.5 26t-23.5 32t-23 35.5t-17 27l-2 14q-5 44 19 62t85 1v37q-36 56 -53 50
q-18 -5 -18 -74l-31 74q6 46 25 46zM27 526l15 8v-284l-15 9l-16 -9v284zM166 506l17 4l-140 -522l-13 12l-17 -4l140 522zM166 506z" />
    <glyph glyph-name="threequarters" unicode="&#xbe;" horiz-adv-x="393" 
d="M37 535q9 0 20.5 -9.5t24.5 -26.5t23 -31.5t22.5 -34.5t16.5 -26v-121q-4 -6 -17.5 -27.5t-23.5 -36t-23.5 -31.5t-25 -25.5t-20.5 -7.5q-17 4 -22 46l30 74q0 -69 19 -75q17 -4 52 50v62q-33 52 -50 50q-21 -1 -21 -74l-30 74q5 41 21 45q25 6 80 -80v110q-32 50 -49 50
q-22 0 -22 -75l-30 74q5 46 25 46zM279 284l1 -109q0 -78 23 -74q17 3 48 50v100l30 33v-284h-30v136q-23 -35 -47 -59t-39 -21q-16 4 -16 45v150zM254 506l17 4l-140 -522l-13 12l-17 -4l140 522zM254 506z" />
    <glyph glyph-name="Agrave" unicode="&#xc0;" horiz-adv-x="158" 
d="M130 651v-16q-73 -112 -94 -65q-5 11 -8 31l31 74q0 -135 71 -24zM120 540q20 0 25 -46v0v-494h-30v185q-71 111 -71 -24v-161h-31v412q4 6 16.5 26t22.5 34.5t22.5 31.5t24.5 26t21 10zM94 495h-2q-17 -1 -48 -51v-165q24 -7 71 -78v219q0 74 -21 75zM94 495z" />
    <glyph glyph-name="Aacute" unicode="&#xc1;" horiz-adv-x="158" 
d="M130 651v-16q-73 -112 -94 -65q-5 11 -8 31l31 74q0 -135 71 -24zM120 540q20 0 25 -46v0v-494h-30v185q-71 111 -71 -24v-161h-31v412q4 6 16.5 26t22.5 34.5t22.5 31.5t24.5 26t21 10zM94 495h-2q-17 -1 -48 -51v-165q24 -7 71 -78v219q0 74 -21 75zM94 495z" />
    <glyph glyph-name="Acircumflex" unicode="&#xc2;" horiz-adv-x="227" 
d="M154 540q20 0 26 -46v0v-494h-31v185q-71 111 -71 -24v-161h-31v412l14 21t17.5 27.5t18.5 28t20.5 26t19.5 17.5t17 8zM128 495h-1q-17 -1 -49 -51v-165q24 -7 71 -78v219q0 74 -21 75zM42 657q0 -135 72 -24q71 -111 71 24l30 -74q-12 -98 -92 21q-5 6 -9 14
q-74 -113 -95 -66q-5 12 -7 31zM42 657z" />
    <glyph glyph-name="Atilde" unicode="&#xc3;" horiz-adv-x="257" 
d="M220 676q20 0 26 -46l-31 -74q0 69 -18 74t-53 -50q-4 -5 -17.5 -27t-23.5 -36.5t-23.5 -32t-25.5 -25.5t-21 -6q-17 4 -22 45l31 74q0 -58 13 -71q17 -17 58 47q4 6 16.5 26t22.5 34.5t23 31.5t24.5 26t20.5 10zM169 540q20 0 26 -46v0v-494h-31v185q-71 111 -71 -24
v-161h-31v412q4 6 17 26t22.5 34.5t22.5 31.5t24.5 26t20.5 10zM143 495h-1q-17 -1 -49 -51v-165q24 -7 71 -78v219q0 74 -21 75zM143 495z" />
    <glyph glyph-name="Adieresis" unicode="&#xc4;" horiz-adv-x="158" 
d="M120 540q20 0 25 -46v0v-494h-30v185q-71 111 -71 -24v-161h-31v412q4 6 13.5 21t17.5 27.5t19 28t20 26t19 17.5t18 8zM94 495h-2q-17 -1 -48 -51v-165q24 -7 71 -78v219q0 74 -21 75zM124 600v-46h-31v79zM34 600l31 33v-79h-31v46zM34 600z" />
    <glyph glyph-name="AE" unicode="&#xc6;" horiz-adv-x="259" 
d="M119 540q20 0 26 -46v0v-35q51 79 76 80q20 0 26 -46l-31 -74q0 74 -21 75q-17 1 -50 -50v-190q56 87 81 79q16 -4 21 -45l-31 -74q0 66 -16 74q-18 9 -55 -49v-144q32 -49 49 -50q22 -2 22 74l31 -74q-3 -21 -8.5 -32t-13.5 -13q-25 -5 -80 80v-80h-31v185
q-71 111 -71 -24v-161h-31v412q4 6 17 26t22.5 34.5t22.5 31.5t24.5 26t20.5 10zM93 495h-1q-17 -1 -49 -51v-165q24 -7 71 -78v219q0 74 -21 75zM93 495z" />
    <glyph glyph-name="Ccedilla" unicode="&#xc7;" horiz-adv-x="228" 
d="M191 540q20 1 25 -46l-30 -73q0 71 -20 74q-17 3 -51 -50v-350q33 -52 50 -51q21 2 21 75l30 -74q-3 -27 -10.5 -37.5t-18.5 -7.5q-17 4 -42 36v-32v-21.5t-1.5 -16.5t-4 -12.5t-7.5 -7t-12 -4.5t-18.5 1t-25.5 4t-34 9v-56l-30 -43v141q28 -19 43.5 -28t29 -14t19 2
t8.5 21t3 40v60q-6 9 -16.5 25.5t-14.5 22.5v285q4 6 16.5 26.5t22.5 34.5t23 31t24.5 26.5t20.5 9.5zM191 540z" />
    <glyph glyph-name="Egrave" unicode="&#xc8;" 
d="M129 649v-15q-73 -112 -94 -65q-5 11 -8 31l31 74q0 -135 71 -25zM119 539q20 0 25 -46l-30 -74q0 74 -22 75q-17 1 -50 -50v-190q57 87 82 79q15 -4 20 -45l-30 -74q0 66 -17 74q-17 9 -55 -49v-144q32 -49 49 -50q23 -2 23 74l30 -74q-5 -42 -22 -45q-9 -2 -20.5 6.5
t-25 26t-23.5 32t-24 36t-17 27.5v283q4 6 11.5 18t14.5 22.5t15.5 24t17 24t17 19.5t16.5 14.5t15 5.5zM119 539z" />
    <glyph glyph-name="Eacute" unicode="&#xc9;" 
d="M27 649q71 -110 71 25l31 -74q-12 -99 -93 20q-4 6 -9 14v15zM119 539q20 0 25 -46l-30 -74q0 74 -22 75q-17 1 -50 -50v-190q57 87 82 79q15 -4 20 -45l-30 -74q0 66 -17 74q-17 9 -55 -49v-144q32 -49 49 -50q23 -2 23 74l30 -74q-5 -42 -22 -45q-9 -2 -20.5 6.5
t-25 26t-23.5 32t-24 36t-17 27.5v283q4 6 16.5 26t22.5 34.5t22.5 31.5t24.5 26.5t21 9.5zM119 539z" />
    <glyph glyph-name="Ecircumflex" unicode="&#xca;" horiz-adv-x="227" 
d="M42 657q0 -135 72 -24q71 -111 71 24l30 -74q-12 -98 -92 21q-5 6 -9 14q-74 -113 -95 -66q-5 12 -7 31zM154 539q20 0 26 -46l-31 -74q0 74 -21 75q-17 1 -50 -50v-190q56 87 81 79q16 -4 21 -45l-31 -74q0 66 -16 74q-18 9 -55 -49v-144q32 -49 49 -50q22 -2 22 74
l31 -74q-5 -42 -22 -45q-9 -2 -21 6.5t-25.5 26t-23.5 32t-23.5 36t-17.5 27.5v283q4 6 17 26t22.5 34.5t22.5 31.5t24.5 26.5t20.5 9.5zM154 539z" />
    <glyph glyph-name="Edieresis" unicode="&#xcb;" 
d="M123 600v-46h-31v79zM33 600l31 33v-79h-31v46zM119 539q20 0 25 -46l-30 -74q0 74 -22 75q-17 1 -50 -50v-190q57 87 82 79q15 -4 20 -45l-30 -74q0 66 -17 74q-17 9 -55 -49v-144q32 -49 49 -50q23 -2 23 74l30 -74q-2 -21 -8 -32t-14 -13q-9 -2 -20.5 6.5t-25 26
t-23.5 32t-24 36t-17 27.5v283q4 6 16.5 26t22.5 34.5t22.5 31.5t24.5 26.5t21 9.5zM119 539z" />
    <glyph glyph-name="Igrave" unicode="&#xcc;" horiz-adv-x="125" 
d="M47 507l31 32v-539h-31v507zM113 649v-15q-73 -112 -94 -65q-5 11 -7 31l30 74q0 -135 71 -25zM113 649z" />
    <glyph glyph-name="Iacute" unicode="&#xcd;" horiz-adv-x="125" 
d="M12 649q71 -110 71 25l30 -74q-12 -99 -92 20q-5 6 -9 14v15zM47 507l31 32v-539h-31v507zM47 507z" />
    <glyph glyph-name="Icircumflex" unicode="&#xce;" horiz-adv-x="227" 
d="M98 507l31 32v-539h-31v507zM42 657q0 -135 72 -24q71 -111 71 24l30 -74q-12 -98 -92 21l-9 14q-74 -113 -95 -66q-5 12 -7 31zM42 657z" />
    <glyph glyph-name="Idieresis" unicode="&#xcf;" horiz-adv-x="113" 
d="M41 507l31 32v-539h-31v507zM102 600v-46h-31v79zM11 600l31 33v-79h-31v46zM11 600z" />
    <glyph glyph-name="Ntilde" unicode="&#xd1;" horiz-adv-x="257" 
d="M195 0h-31v420q0 76 -22 75q-17 -1 -49 -51v-444h-31v464q-17 -16 -29 -13q-17 4 -22 45l31 74q0 -58 13 -71q17 -17 58 47q4 6 16.5 26t22.5 34.5t23 31.5t24.5 26t20.5 10q20 0 26 -46l-31 -74q0 69 -18 74t-53 -50q-2 -2 -20.5 -31.5t-30.5 -45.5v-41q52 79 76 79
q20 1 26 -45v0v-494z" />
    <glyph glyph-name="Ograve" unicode="&#xd2;" horiz-adv-x="157" 
d="M129 651v-16q-73 -112 -94 -65q-5 11 -7 31l30 74q0 -135 71 -24zM12 411q2 2 5 7q14 22 24.5 37t29 39t34 36t25.5 9q15 -5 15 -46v-365l-6 -9q-16 -24 -26.5 -39t-29 -39t-33.5 -34.5t-24 -6.5q-14 6 -14 45v366zM114 420q0 26 -7.5 45.5t-20.5 19.5q-18 0 -43 -41
v-325q0 -57 13 -70q17 -19 58 46v325zM114 420z" />
    <glyph glyph-name="Oacute" unicode="&#xd3;" horiz-adv-x="157" 
d="M28 651q71 -111 71 24l30 -74q-12 -99 -92 20q-5 7 -9 14v16zM12 411q2 2 5 7q14 22 24.5 37t29 39t34 36t25.5 9q15 -5 15 -46v-365l-6 -9q-16 -24 -26.5 -39t-29 -39t-33.5 -34.5t-24 -6.5q-14 6 -14 45v366zM114 420q0 26 -7.5 45.5t-20.5 19.5q-18 0 -43 -41v-325
q0 -57 13 -70q17 -19 58 46v325zM114 420z" />
    <glyph glyph-name="Ocircumflex" unicode="&#xd4;" horiz-adv-x="227" 
d="M42 658q0 -135 72 -24q71 -111 71 24l30 -73q-12 -99 -92 20q-5 6 -9 14q-74 -113 -95 -66q-5 12 -7 32zM47 411q2 2 5 7q9 14 15 23t18 26.5t22 28.5t21 23t20.5 17t16.5 3q15 -5 15 -46v-365l-6 -9q-16 -24 -26.5 -39t-29 -39t-33.5 -34.5t-24 -6.5q-14 6 -14 45v366z
M149 420q0 26 -7.5 45.5t-20.5 19.5q-18 0 -43 -41v-325q0 -57 13 -70q17 -19 58 46v325zM149 420z" />
    <glyph glyph-name="Otilde" unicode="&#xd5;" horiz-adv-x="257" 
d="M220 675q20 0 26 -46l-31 -74q0 69 -18 74q-18 6 -53 -50q-4 -5 -17.5 -26.5t-23.5 -36.5t-23.5 -32.5t-25.5 -25.5t-21 -6q-17 4 -22 45l31 74q0 -58 13 -71q17 -17 58 47q4 6 16.5 26t22.5 34.5t23 31.5t24.5 26t20.5 10zM62 411q2 2 5 7q14 22 24.5 37t29 39t34 36
t25.5 9q15 -5 15 -46v-365l-6 -9q-7 -11 -11.5 -17.5t-14 -20t-16 -22t-15.5 -19.5t-16 -18t-14.5 -13.5t-14 -8.5t-11.5 0q-14 6 -14 45v366zM164 420q0 26 -7.5 45.5t-20.5 19.5q-18 0 -43 -41v-325q0 -57 13 -70q17 -19 58 46v325zM164 420z" />
    <glyph glyph-name="Odieresis" unicode="&#xd6;" horiz-adv-x="157" 
d="M124 601v-46h-31v79zM33 601l31 33v-79h-31v46zM12 411q2 2 5 7q14 22 24.5 37t29 39t34 36t25.5 9q15 -5 15 -46v-365l-6 -9q-16 -24 -26.5 -39t-29 -39t-33.5 -34.5t-24 -6.5q-14 6 -14 45v366zM114 420q0 26 -7.5 45.5t-20.5 19.5q-18 0 -43 -41v-325q0 -57 13 -70
q17 -19 58 46v325zM114 420z" />
    <glyph glyph-name="Oslash" unicode="&#xd8;" horiz-adv-x="320" 
d="M196 422q0 21 -5 37t-13 24.5t-22.5 -0.5t-31.5 -37v-205l72 123v58zM94 413q75 114 105 127q27 11 27 -44v-1v-78l56 96l9 -15h18l-83 -143v-225q-70 -105 -99 -123q-32 -14 -33 40v1v78l-56 -97l-9 16h-18l83 142v226zM124 179v-58q0 -135 72 -24v205q-22 -38 -72 -123
z" />
    <glyph glyph-name="Ugrave" unicode="&#xd9;" horiz-adv-x="158" 
d="M130 651v-15q-73 -112 -94 -65q-5 11 -8 31l31 74q0 -135 71 -25zM13 539h30v-419q0 -76 23 -75q17 1 49 50v444h30v-539h-30v80q-52 -79 -77 -80q-20 0 -25 46v493zM13 539z" />
    <glyph glyph-name="Uacute" unicode="&#xda;" horiz-adv-x="158" 
d="M28 651q71 -110 71 25l31 -74q-12 -99 -93 20q-4 6 -9 14v15zM13 539h30v-419q0 -76 23 -75q17 1 49 50v444h30v-539h-30v80q-52 -79 -77 -80q-20 0 -25 46v493zM13 539z" />
    <glyph glyph-name="Ucircumflex" unicode="&#xdb;" horiz-adv-x="227" 
d="M42 659q0 -135 72 -24q71 -111 71 24l30 -74q-12 -98 -92 20q-5 7 -9 14q-74 -112 -95 -65q-5 11 -7 31zM47 539h31v-419q0 -76 22 -75q17 1 49 50v444h31v-539h-31v80q-52 -79 -76 -80q-20 0 -26 46v493zM47 539z" />
    <glyph glyph-name="Udieresis" unicode="&#xdc;" horiz-adv-x="158" 
d="M124 602v-46h-31v78zM34 602l31 32v-78h-31v46zM13 539h30v-419q0 -76 23 -75q17 1 49 50v444h30v-539h-30v80q-52 -79 -77 -80q-20 0 -25 46v493zM13 539z" />
    <glyph glyph-name="Thorn" unicode="&#xde;" horiz-adv-x="158" 
d="M12 553v-553h31v115q1 17 3 27t8 14t12.5 4t19 -6t25.5 -14.5t35 -22.5v317q-21 -14 -34 -22.5t-25 -14.5t-19 -6.5t-13 2.5t-8.5 11.5t-3.5 22.5v94zM115 391v-232q-52 14 -72 14v205q20 -1 72 13zM115 391z" />
    <glyph glyph-name="germandbls" unicode="&#xdf;" horiz-adv-x="258" 
d="M220 549q20 0 26 -46l-31 -74q0 135 -71 25v-44q8 -2 17.5 -10.5t18 -19t19 -25.5t18 -26.5t16.5 -25.5t13 -20v-45v-4v-19.5t-0.5 -14.5t-3 -12.5t-5.5 -8.5t-8.5 -5t-12.5 -1t-18 1t-23.5 5t-30.5 7v-56q48 13 69 13t27.5 -10t6.5 -37v-63q-4 -5 -17.5 -26t-23 -35
t-23 -31.5t-25 -26.5t-20.5 -9q-10 1 -17.5 12.5t-7.5 33.5l31 74q0 -62 15 -73q18 -12 57 49v77q0 32 -6.5 44t-23.5 8q-14 -4 -42 -22v-75q-4 -7 -15 -23q-61 -97 -87 -104q-24 -7 -30 42q0 1 -1 2l31 74q0 -135 71 -24v421q4 6 16.5 26t22.5 34.5t23 31.5t24.5 26.5
t20.5 9.5zM166 366h-2q-19 -3 -20 -70v-88q28 -18 42 -22q16 -4 23 5t7 34v91q-33 50 -50 50zM166 366z" />
    <glyph glyph-name="agrave" unicode="&#xe0;" horiz-adv-x="157" 
d="M119 335q20 1 26 -45v-290h-31v80q-22 -35 -46 -59t-39 -21q-17 4 -17 45v162q4 6 17 26.5t22.5 34.5t22.5 31t24.5 26.5t20.5 9.5zM93 290q-21 0 -50 -50v-121q0 -26 2.5 -42.5t7 -23.5t10.5 -8q17 -3 51 50v121q0 42 -4.5 58.5t-16.5 15.5zM129 447v-15
q-73 -113 -94 -66q-5 12 -7 32l30 73q0 -134 71 -24zM129 447z" />
    <glyph glyph-name="aacute" unicode="&#xe1;" horiz-adv-x="157" 
d="M28 447q71 -111 71 24l30 -74q-12 -98 -92 20l-9 14v16zM119 335q20 1 26 -45v-290h-31v80q-22 -35 -46 -59t-39 -21q-17 4 -17 45v162q4 6 17 26.5t22.5 34.5t22.5 31t24.5 26.5t20.5 9.5zM93 290q-21 0 -50 -50v-121q0 -72 20 -74q17 -3 51 50v121q0 42 -4.5 58.5
t-16.5 15.5zM93 290z" />
    <glyph glyph-name="acircumflex" unicode="&#xe2;" horiz-adv-x="227" 
d="M154 335q20 1 26 -45v-290h-31v80q-22 -35 -46 -59t-39 -21q-17 4 -17 45v162q4 7 14 22t17.5 27.5t18.5 27.5t20.5 25.5t19.5 18t17 7.5zM128 290q-21 0 -50 -50v-121q0 -26 2.5 -42.5t7 -23.5t10.5 -8q17 -3 51 50v121q0 42 -4.5 58.5t-16.5 15.5zM42 455
q0 -135 72 -24q71 -111 71 24l30 -74q-12 -98 -92 20l-9 14q-74 -112 -95 -65q-5 11 -7 31zM42 455z" />
    <glyph glyph-name="atilde" unicode="&#xe3;" horiz-adv-x="257" 
d="M220 471q20 1 26 -45l-31 -74q0 69 -18 74t-53 -50q-4 -6 -17.5 -27.5t-23.5 -36t-23.5 -32t-25.5 -25.5t-21 -6q-17 3 -22 45l31 74q0 -58 13 -71q17 -17 58 46q4 6 16.5 26.5t22.5 35t23 31t24.5 26t20.5 9.5zM169 335q20 1 26 -45v-290h-31v80q-22 -35 -46 -59
t-39 -21q-17 4 -17 45v162q4 6 17 26.5t22.5 34.5t22.5 31t24.5 26.5t20.5 9.5zM143 290q-21 0 -50 -50v-121q0 -72 20 -74q17 -3 51 50v121q0 42 -4.5 58.5t-16.5 15.5zM143 290z" />
    <glyph glyph-name="adieresis" unicode="&#xe4;" horiz-adv-x="157" 
d="M119 335q20 1 26 -45v-290h-31v80q-22 -35 -46 -59t-39 -21q-17 4 -17 45v162q4 6 17 26.5t22.5 34.5t22.5 31t24.5 26.5t20.5 9.5zM93 290q-21 0 -50 -50v-121q0 -72 20 -74q17 -3 51 50v121q0 28 -2 44t-6.5 23.5t-12.5 6.5zM124 398v-46h-31v78zM33 398l31 32v-78h-31
v46zM33 398z" />
    <glyph glyph-name="ae" unicode="&#xe6;" horiz-adv-x="258" 
d="M221 341q20 0 25 -46l-26 -64q21 2 26 -46l-30 -74q0 73 -21 75q-17 2 -50 -50v-57q35 -55 52 -50q19 5 19 74l30 -74q-5 -44 -24 -45q-24 -2 -78 80v-64h-31v80q-22 -35 -45.5 -59t-38.5 -21q-17 4 -17 45v162q3 6 16 26.5t22.5 34.5t22.5 31t25 26.5t21 9.5
q6 0 11.5 -3.5t9.5 -14.5t4 -27v-30q52 80 77 81zM194 296q-17 0 -49 -51v-94q46 72 71 79q-2 65 -21 66h-1zM92 290q-21 0 -50 -50v-121q0 -26 3 -42.5t7 -23.5t10 -8q18 -3 51 50v121q0 42 -4 58.5t-17 15.5zM92 290z" />
    <glyph glyph-name="ccedilla" unicode="&#xe7;" horiz-adv-x="227" 
d="M190 357q20 0 26 -46l-31 -74q0 75 -21 75q-18 0 -50 -51v-166q32 -51 50 -50q21 0 21 75l31 -74q-6 -45 -24 -46t-47 36v-32q0 -15 -0.5 -21.5t-1.5 -16.5t-3.5 -12.5t-7.5 -7t-12 -4.5t-18.5 1t-25.5 4t-34 9v-56l-31 -43v141q29 -19 44 -28t28.5 -14t19 2t8.5 21t3 40
v60q-5 8 -11 18t-11.5 18t-8.5 13v101q4 6 16.5 26t22.5 34.5t23 31.5t24.5 26.5t20.5 9.5zM190 357z" />
    <glyph glyph-name="egrave" unicode="&#xe8;" 
d="M129 469v-16q-73 -112 -94 -65q-5 11 -8 31l31 74q0 -135 71 -24zM119 357q20 0 25 -46l-26 -64q20 2 26 -45l-30 -74q0 72 -21 74q-17 2 -51 -50v-57q36 -55 53 -50q19 6 19 75l30 -74q-5 -45 -24 -46q-9 -1 -20.5 8t-25 26.5t-23 31.5t-22.5 35t-17 27v101q4 6 16.5 26
t22.5 34.5t22.5 31.5t24.5 26.5t21 9.5zM93 312q-18 1 -51 -51v-94q47 72 71 79q-1 65 -20 66zM93 312z" />
    <glyph glyph-name="eacute" unicode="&#xe9;" 
d="M27 469q71 -111 71 24l31 -74q-12 -98 -93 20q-4 7 -9 14v16zM119 357q20 0 25 -46l-26 -64q20 2 26 -45l-30 -74q0 72 -21 74q-17 2 -51 -50v-57q36 -55 53 -50q19 6 19 75l30 -74q-3 -23 -9 -34t-15 -12t-20.5 8t-25 26.5t-23 31.5t-22.5 35t-17 27v101q3 5 9.5 15
t12.5 19.5t13.5 21t14.5 21t15 19.5t15 16.5t14 11t13 4.5zM93 312q-18 1 -51 -51v-94q47 72 71 79q-1 65 -20 66zM93 312z" />
    <glyph glyph-name="ecircumflex" unicode="&#xea;" horiz-adv-x="227" 
d="M42 477q0 -135 72 -25q71 -110 71 25l30 -74q-12 -99 -92 20l-9 14q-74 -113 -95 -65q-5 11 -7 31zM154 357q20 0 26 -46l-27 -64q21 2 27 -45l-31 -74q0 72 -20 74q-18 2 -51 -50v-57q35 -55 53 -50q18 6 18 75l31 -74q-3 -23 -9 -34t-15 -12t-21 8t-25 26.5t-23 31.5
t-23 35t-17 27v101q4 6 17 26t22.5 34.5t22.5 31.5t24.5 26.5t20.5 9.5zM128 312q-17 1 -50 -51v-94q47 72 71 79q-1 65 -21 66zM128 312z" />
    <glyph glyph-name="edieresis" unicode="&#xeb;" 
d="M123 419v-46h-31v79zM33 419l31 33v-79h-31v46zM119 357q20 0 25 -46l-26 -64q20 2 26 -45l-30 -74q0 72 -21 74q-17 2 -51 -50v-57q36 -55 53 -50q19 6 19 75l30 -74q-3 -23 -9 -34t-15 -12t-20.5 8t-25 26.5t-23 31.5t-22.5 35t-17 27v101q3 5 9.5 15t12.5 19.5
t13.5 21t14.5 21t15 19.5t15 16.5t14 11t13 4.5zM93 312q-18 1 -51 -51v-94q47 72 71 79q-1 65 -20 66zM93 312z" />
    <glyph glyph-name="igrave" unicode="&#xec;" horiz-adv-x="125" 
d="M113 446v-15q-73 -112 -94 -65q-5 11 -7 31l30 74q0 -135 71 -25zM47 302l31 32v-334h-31v302zM47 302z" />
    <glyph glyph-name="iacute" unicode="&#xed;" horiz-adv-x="125" 
d="M12 446q71 -110 71 25l30 -74q-12 -99 -92 20q-5 6 -9 14v15zM47 302l31 32v-334h-31v302zM47 302z" />
    <glyph glyph-name="icircumflex" unicode="&#xee;" horiz-adv-x="227" 
d="M42 454q0 -135 72 -24q71 -111 71 24l30 -74q-12 -98 -92 20l-9 14q-74 -112 -95 -65q-5 11 -7 31zM98 302l31 32v-334h-31v302zM98 302z" />
    <glyph glyph-name="idieresis" unicode="&#xef;" horiz-adv-x="113" 
d="M102 397v-46h-31v78zM11 397l31 32v-78h-31v46zM41 302l31 32v-334h-31v302zM41 302z" />
    <glyph glyph-name="ntilde" unicode="&#xf1;" horiz-adv-x="257" 
d="M220 470q20 1 26 -46l-31 -74q0 69 -18 75q-18 5 -53 -50q-4 -6 -17.5 -27.5t-23.5 -36t-23.5 -32t-25.5 -26t-21 -6.5q-17 4 -22 46l31 74q0 -58 13 -71q17 -17 58 46q4 6 16.5 26t22.5 34.5t23 31.5t24.5 26.5t20.5 9.5zM169 334q10 0 18 -11.5t8 -34.5v-288h-31v214
q0 76 -22 75q-17 -1 -49 -50v-239h-31v206q4 6 14 21.5t17.5 27.5t18.5 27.5t20.5 26t19.5 18t17 7.5zM169 334z" />
    <glyph glyph-name="ograve" unicode="&#xf2;" 
d="M12 209q75 114 105 126q26 11 27 -41v-3v0v-162q-70 -105 -99 -123q-32 -13 -33 41v0v162zM114 217q-1 21 -5.5 37.5t-12.5 25t-22.5 -0.5t-31.5 -37v-121q0 -135 72 -24v120zM129 449v-16q-73 -112 -94 -65q-5 11 -8 31l31 74q0 -135 71 -24zM129 449z" />
    <glyph glyph-name="oacute" unicode="&#xf3;" 
d="M34 449q71 -111 71 24l31 -74q-12 -99 -93 20q-4 6 -9 14v16zM12 209q75 114 105 126q27 11 27 -44v0v-162q-70 -105 -99 -123q-32 -13 -33 41v0v162zM114 217q-1 21 -5.5 37.5t-12.5 25t-22.5 -0.5t-31.5 -37v-121q0 -135 72 -24v120zM114 217z" />
    <glyph glyph-name="ocircumflex" unicode="&#xf4;" horiz-adv-x="227" 
d="M47 210q76 114 106 126q27 11 27 -44v0v-162q-71 -105 -99 -123q-32 -13 -34 41v0v162zM149 218q0 21 -4.5 37.5t-13 25t-22.5 -0.5t-31 -37v-121q0 -135 71 -24v120zM42 457q0 -135 72 -24q71 -111 71 24l30 -73q-12 -99 -92 20l-9 14q-74 -113 -95 -66q-5 12 -7 32z
M42 457z" />
    <glyph glyph-name="otilde" unicode="&#xf5;" horiz-adv-x="257" 
d="M220 471q20 0 26 -46l-31 -74q0 69 -18 74q-18 6 -53 -50q-4 -5 -17.5 -26.5t-23.5 -36.5t-23.5 -32.5t-25.5 -25.5t-21 -6q-17 4 -22 45l31 74q0 -58 13 -71q17 -17 58 47q4 6 16.5 26t22.5 34.5t23 31.5t24.5 26t20.5 10zM62 208q76 114 106 126q27 11 27 -44v0v-162
q-71 -104 -99 -123q-32 -13 -34 41v0v162zM164 217q0 20 -4.5 36.5t-13 25t-22.5 -0.5t-31 -37v-121q0 -135 71 -24v121zM164 217z" />
    <glyph glyph-name="odieresis" unicode="&#xf6;" 
d="M12 209q75 114 105 126q27 11 27 -44v0v-162q-70 -105 -99 -123q-32 -13 -33 41v0v162zM114 217q-1 21 -5.5 37.5t-12.5 25t-22.5 -0.5t-31.5 -37v-121q0 -135 72 -24v120zM123 399v-46h-31v79zM33 399l31 33v-79h-31v46zM33 399z" />
    <glyph glyph-name="ugrave" unicode="&#xf9;" horiz-adv-x="158" 
d="M130 447v-16q-73 -112 -94 -65q-5 11 -8 31l31 74q0 -135 71 -24zM13 334h30v-214q0 -76 23 -75q17 1 49 50v239h30v-334h-30v80q-52 -79 -77 -80q-10 0 -17.5 11.5t-7.5 34.5v288zM13 334z" />
    <glyph glyph-name="uacute" unicode="&#xfa;" horiz-adv-x="158" 
d="M28 447q71 -111 71 24l31 -74q-12 -98 -93 20q-4 7 -9 14v16zM13 334h30v-214q0 -76 23 -75q17 1 49 50v239h30v-334h-30v80q-52 -79 -77 -80q-10 0 -17.5 11.5t-7.5 34.5v288zM13 334z" />
    <glyph glyph-name="ucircumflex" unicode="&#xfb;" horiz-adv-x="227" 
d="M42 455q0 -135 72 -25q71 -110 71 25l30 -74q-12 -99 -92 20q-5 6 -9 14q-74 -112 -95 -65q-5 11 -7 31zM47 334h31v-214q0 -76 22 -75q17 1 49 50v239h31v-334h-31v80q-52 -79 -76 -80q-10 0 -18 11.5t-8 34.5v288zM47 334z" />
    <glyph glyph-name="udieresis" unicode="&#xfc;" horiz-adv-x="158" 
d="M124 397v-46h-31v79zM34 397l31 33v-79h-31v46zM13 334h30v-214q0 -76 23 -75q17 1 49 50v239h30v-334h-30v80q-52 -79 -77 -80q-10 0 -17.5 11.5t-7.5 34.5v288zM13 334z" />
    <glyph glyph-name="thorn" unicode="&#xfe;" horiz-adv-x="158" 
d="M12 553v-553h31v115q1 17 3 27t8 14t12.5 4t19 -6t25.5 -14.5t35 -22.5v317q-21 -14 -34 -22.5t-25 -14.5t-19 -6.5t-13 2.5t-8.5 11.5t-3.5 22.5v94zM115 391v-232q-52 14 -72 14v205q20 -1 72 13zM115 391z" />
    <glyph glyph-name="OE" unicode="&#x152;" horiz-adv-x="259" 
d="M125 539h4q16 -5 16 -46v-34q52 79 76 80q20 0 26 -46l-31 -74q0 74 -21 75q-17 1 -50 -51v-189q56 87 81 79q16 -4 21 -45l-31 -74q0 65 -16 74q-18 9 -55 -49v-144q32 -50 49 -50q22 -2 22 74l31 -74q-5 -42 -22 -45q-10 -2 -22 7t-26.5 28t-23.5 32.5t-24 36.5
q-14 -21 -26 -37t-27.5 -34.5t-28.5 -27t-21 -5.5q-14 6 -14 45v366q1 2 5 7q78 120 108 121zM86 485q-18 0 -43 -41v-325q0 -57 13 -70q17 -19 58 46v325q0 26 -7.5 45.5t-20.5 19.5zM86 485z" />
    <glyph glyph-name="oe" unicode="&#x153;" horiz-adv-x="257" 
d="M125 337q19 0 19 -46v-34q51 79 76 80q20 0 26 -46l-27 -64q21 2 27 -45l-31 -74q0 72 -21 74q-17 2 -50 -50v-57q35 -55 53 -50q18 6 18 75l31 -74q-3 -23 -9 -34t-15 -12q-10 -1 -22 8.5t-26 28.5t-23 32t-23 36q-2 2 -2.5 3.5t-2 3.5t-2.5 3q-110 -160 -110 -48v0v162
q2 2 5 7q14 21 24 35.5t27.5 37.5t32.5 35.5t25 12.5zM193 292q-17 0 -49 -50v-94q47 71 71 78q-1 65 -21 66h-1zM85 283q-18 0 -43 -41v-121q0 -135 71 -24v120q0 27 -7 46.5t-21 19.5zM85 283z" />
    <glyph glyph-name="uni0181" unicode="&#x181;" horiz-adv-x="227" 
d="M162 238q-17 0 -48 -50v-68q-1 -31 2.5 -49.5t9.5 -24t15 -1t19.5 17t24.5 32.5v69q0 76 -23 74zM162 495q-17 -1 -48 -51v-120q0 -71 19 -74.5t52 49.5v121q0 76 -23 75zM37 621q25 -1 77 -80v-81q73 112 94 65q5 -11 7 -31v-162q-4 -6 -14.5 -23t-17.5 -27
q12 4 20.5 -6t11.5 -38v-110q-4 -6 -16.5 -26t-22.5 -34.5t-22.5 -31.5t-24.5 -26.5t-21 -9.5q-20 0 -25 46v110q4 6 14.5 23t17.5 26q-4 -1 -7 -1q-20 0 -25 46v316q-36 34 -40 -44q-1 -9 -1 -21l-30 74q5 46 25 46z" />
    <glyph glyph-name="uni0190" unicode="&#x190;" 
d="M119 504q20 1 26 -46l-31 -74q0 71 -20 75q-18 4 -52 -50v-66q0 -26 2.5 -40t8.5 -21t19.5 -2.5t28.5 13.5t44 29v-141q-22 15 -36 23.5t-26.5 14.5t-19.5 5.5t-12.5 -5.5t-7 -16.5t-1.5 -29.5v-79q34 -54 52 -50q20 4 20 74l31 -74q-6 -43 -23 -45q-9 -1 -21 7.5
t-25.5 26t-23.5 31.5t-23.5 35.5t-17.5 27.5v45v4q0 15 0.5 21.5t1.5 16t3.5 12.5t7.5 7t12 4t18.5 -1t25.5 -4t34 -9v57q-20 -6 -34 -9.5t-25.5 -4t-18.5 -0.5t-12 4t-7.5 7t-3.5 13t-1.5 16.5t-0.5 21.5v48q4 6 14 21.5t18 27.5t19 27.5t20 26t19 18t18 7.5zM119 504z" />
    <glyph glyph-name="florin" unicode="&#x192;" horiz-adv-x="257" 
d="M220 504q20 0 26 -46l-31 -74q0 72 -20 75q-17 2 -51 -50v-190q24 37 44 59.5t35 20.5q17 -2 23 -46l-31 -74q0 68 -17.5 74.5t-53.5 -49.5v-204q-4 -6 -17.5 -27t-23 -35.5t-23 -32t-25.5 -26t-21 -7.5q-17 3 -23 46l31 74q0 -70 19 -75q17 -4 52 50v409q4 6 16.5 26
t22.5 34.5t23 31.5t24.5 26.5t20.5 9.5z" />
    <glyph glyph-name="uni0198" unicode="&#x198;" horiz-adv-x="228" 
d="M190 635q20 0 26 -46l-31 -74q0 97 -35 69q-3 -2 -5 -4v-330q0 -75 -51 -29q-24 22 -51 63v-90q11 -4 27 -21t26.5 -32.5t27.5 -42.5t20 -31v-67h-31v100q-64 101 -70 -3v-97h-31v540h31v-240q71 -111 71 24v231q52 79 76 80z" />
    <glyph glyph-name="uni0199" unicode="&#x199;" horiz-adv-x="157" 
d="M119 537q20 0 26 -46l-31 -74q0 70 -19 75q-17 3 -52 -51v-182q24 37 43.5 59t34.5 21q18 -1 24 -46l-26 -62q12 -1 19 -13t7 -33v-218l-31 33q0 18 0.5 51t0.5 48t-1 34.5t-4.5 28.5t-8.5 13q-16 9 -58 -39v-136h-31v409q3 4 20.5 31t28 42.5t26.5 33t27 20.5q3 1 5 1z
M92 294q-17 -1 -49 -50v-93q47 72 71 79q-2 65 -22 64zM92 294z" />
    <glyph glyph-name="uni01A5" unicode="&#x1a5;" horiz-adv-x="258" 
d="M43 -126v204q17 -28 43 -55t42 -23t16 44v224q38 58 55 49q16 -8 16 -73l31 74q-5 46 -25 46q-5 0 -10 -2.5t-11.5 -8t-11.5 -11t-12 -14.5t-12 -15.5t-12.5 -18t-11 -17l-10.5 -16.5t-9 -14q-25 38 -51 66t-42 24t-16 -45v-451zM43 218q0 68 24 69q19 1 47 -45v-124
q-1 -68 -16 -78q-18 -11 -55 53v125zM43 218z" />
    <glyph glyph-name="uni0262" unicode="&#x262;" 
d="M114 162q-51 -13 -72 -13v-53q72 -111 72 24v42zM119 357q20 0 25 -46l-30 -73q0 134 -72 24v-67q2 -13 4.5 -21t8.5 -10.5t13 -2t19 7t24.5 14.5t32.5 22v-159q0 -120 -129 74l-3 4v105q4 6 11.5 18t14.5 23t15.5 24t17 23.5t17 20t16.5 14.5t15 5z" />
    <glyph glyph-name="uni0274" unicode="&#x274;" horiz-adv-x="158" 
d="M145 0h-30v237q0 76 -23 75q-17 -1 -49 -51v-261h-30v357h30v-80q52 79 77 80q6 0 11.5 -4.5t9.5 -15.5t4 -26v-311z" />
    <glyph glyph-name="uni0276" unicode="&#x276;" horiz-adv-x="257" 
d="M124 358q20 1 20 -46v-36q51 79 76 80q20 1 26 -46l-27 -63q21 1 27 -46l-31 -74q0 73 -21 75q-17 1 -50 -51v-56q35 -55 53 -50t18 74l31 -74q-6 -44 -24 -46q-10 0 -21.5 9t-26 28t-23.5 32t-23 36q-14 -21 -26 -37t-27 -34t-28 -27t-21 -6q-15 5 -15 46v0v184q2 2 5 7
q79 119 108 121zM193 311q-17 0 -49 -50v-94q47 71 71 79q-1 64 -21 65h-1zM85 304q-18 -1 -43 -42v-143q0 -17 1 -30.5t3.5 -22t5.5 -13.5t6 -7q18 -9 55 49v143q0 26 -7 45t-19 20q-1 1 -2 1zM85 304z" />
    <glyph glyph-name="uni0280" unicode="&#x280;" horiz-adv-x="157" 
d="M66 311q-23 0 -23 -72v-18q1 -2 4 -6q34 -54 49 -54q18 -1 18 68v34q-20 27 -30 37.5t-18 10.5zM30 357q5 0 11.5 -3t13 -9t13.5 -13t15 -17t14.5 -18t14.5 -19t12.5 -17.5t11.5 -16.5t9 -13v-59v-1q-5 -40 -21 -45q-25 -7 -81 80v-40q11 -3 27 -20.5t26.5 -33t27.5 -42
t20 -31.5v-39h-31v72q-14 22 -26.5 36.5t-23.5 13.5q-17 0 -20 -52v-70h-31v313q0 44 18 44z" />
    <glyph glyph-name="uni0299" unicode="&#x299;" horiz-adv-x="157" 
d="M102 185q-15 0 -59 -62v-26q3 -44 16 -50q18 -9 55 49v52q0 37 -12 37zM98 316q-17 0 -55 -54v-19q0 -72 21 -70q7 2 14 9q6 6 11 12q8 10 25 36v42q0 44 -16 44zM43 357v-82q58 83 84 82q18 -1 18 -46v-48q-26 -39 -35 -51q15 12 25 2.5t10 -42.5v-44q-2 -2 -6 -8
q-80 -120 -108 -120q-19 0 -19 46v1v43q24 36 34 50q-15 -11 -24.5 -1.5t-9.5 42.5v144z" />
    <glyph glyph-name="uni029C" unicode="&#x29c;" horiz-adv-x="158" 
d="M13 357h30l1 -189q24 -7 71 -79v268h30v-357h-30v74q-36 55 -53 49q-18 -5 -18 -74v-49h-31v357zM13 357z" />
    <glyph glyph-name="uni029F" unicode="&#x29f;" 
d="M12 128v228h30v-261q35 -53 52 -50q20 3 20 75l30 -74q-5 -47 -25 -46q-10 0 -21.5 9.5t-24.5 26.5t-22.5 31.5t-22 34.5t-16.5 26z" />
    <glyph glyph-name="quoteleft" unicode="&#x2018;" horiz-adv-x="125" 
d="M12 429v-94q73 -113 94 -65q5 11 7 31l-30 73q0 -96 -36 -68q-2 2 -5 4v86zM12 429z" />
    <glyph glyph-name="quoteright" unicode="&#x2019;" horiz-adv-x="125" 
d="M113 429v-94q-73 -113 -94 -65q-5 11 -7 31l30 73q0 -96 36 -68q2 2 5 4v86zM113 429z" />
    <glyph glyph-name="uni2080" unicode="&#x2080;" 
d="M12 156q75 114 105 126q27 11 27 -44v-110q-70 -104 -99 -123q-32 -13 -33 41v110zM114 164q-1 21 -5.5 37.5t-12.5 25t-22.5 -0.5t-31.5 -37v-69q0 -135 72 -24v68zM114 164z" />
    <glyph glyph-name="uni2081" unicode="&#x2081;" horiz-adv-x="56" 
d="M28 275l15 9v-284l-15 9l-15 -9v284zM28 275z" />
    <glyph glyph-name="uni2082" unicode="&#x2082;" horiz-adv-x="158" 
d="M40 338q9 0 20.5 -9.5t24.5 -26.5t22.5 -31.5t22.5 -34.5t17 -26v-47q-53 35 -78 28t-25 -54l1 -42q36 -56 53.5 -49.5t17.5 74.5l31 -74q-6 -43 -23 -46q-9 -1 -21 7.5t-25.5 26t-23.5 32t-23 35.5t-17 27l-2 14q-5 44 19 62t85 1v38q-36 55 -53 49q-18 -5 -18 -74
l-31 74q6 46 26 46zM40 338z" />
    <glyph glyph-name="uni2083" unicode="&#x2083;" 
d="M37 377q9 0 21 -9.5t24.5 -26.5t22.5 -31.5t22.5 -34.5t16.5 -26v-121q-3 -6 -16.5 -27.5t-24 -36t-23.5 -32t-25 -25.5t-21 -7q-17 4 -22 46l30 74q0 -70 19 -75q17 -5 53 50v62q-34 52 -51 50q-21 -2 -21 -75l-30 74q5 41 21 46q25 6 81 -80v110q-33 50 -50 50
q-22 0 -22 -75l-30 74q5 46 25 46zM37 377z" />
    <glyph glyph-name="uni2084" unicode="&#x2084;" horiz-adv-x="157" 
d="M43 284v-109q0 -79 24 -74q17 3 47 50v100l31 33v-284h-31v136q-23 -35 -46.5 -59t-38.5 -21q-17 4 -17 45v150zM43 284z" />
    <glyph glyph-name="uni2085" unicode="&#x2085;" horiz-adv-x="158" 
d="M118 338q20 0 26 -46l-31 -74q0 69 -18 74q-17 6 -53 -49v-38q61 17 85 -1t19 -62l-2 -14q-4 -6 -17 -27t-23 -35.5t-23.5 -32t-25.5 -26t-21 -7.5q-17 3 -23 46l31 74q0 -68 17.5 -74.5t53.5 49.5l1 42q0 47 -25 54t-78 -28v47q4 6 17 26t22.5 34.5t22.5 31.5t24.5 26.5
t20.5 9.5zM118 338z" />
    <glyph glyph-name="uni2086" unicode="&#x2086;" 
d="M30 0q-18 1 -18 44v185q3 6 17 27.5t24 36t23.5 32t25 25.5t20.5 7q17 -4 22 -46l-30 -74q0 73 -21 75q-17 2 -51 -50v-111q52 79 77 79q10 1 17.5 -10.5t7.5 -34.5v-64q-1 -2 -11 -16t-16 -22t-17 -22.5t-19.5 -23.5t-18 -18.5t-18 -14t-14.5 -4.5zM114 145q-1 23 -5 32
t-18 9q-17 -1 -49 -51v-17q0 -72 20 -76q18 -4 52 52v51zM114 145z" />
    <glyph glyph-name="uni2087" unicode="&#x2087;" horiz-adv-x="159" 
d="M12 33v142q37 -25 61 -28q45 -6 42 67l-1 47q-34 52 -51 51q-21 -2 -21 -75l-30 74q5 43 22 45q9 2 21 -6.5t25.5 -26t23.5 -32t23.5 -36t16.5 -26.5l2 -18q5 -54 -16.5 -75t-87.5 -3v-133zM12 33z" />
    <glyph glyph-name="uni2088" unicode="&#x2088;" horiz-adv-x="166" 
d="M125 357q19 1 19 -45v-43q-24 -36 -30 -44q40 31 40 -36v-61q-70 -104 -98 -123q-32 -13 -34 41v60q22 34 29 44q-39 -31 -39 37v43q1 2 4 6q80 121 109 121zM101 325q-8 0 -19 -12.5t-39 -50.5v-35q3 -73 50 -18q10 12 20 27v52q0 37 -12 37zM109 202q-18 -1 -56 -63
v-19q0 -135 71 -24v68q-1 38 -15 38zM109 202z" />
    <glyph glyph-name="uni2089" unicode="&#x2089;" 
d="M126 357q18 -1 18 -44v-185q-3 -6 -17 -27.5t-24 -36t-23.5 -32t-25 -25.5t-20.5 -7q-17 4 -22 46l30 74q0 -73 21 -75q17 -2 51 50v111q-52 -79 -77 -80q-10 0 -17.5 11.5t-7.5 34.5v64q1 2 11 16t16 22t17 22.5t19.5 23.5t18 18.5t18 14t14.5 4.5zM42 212q1 -23 5 -32
t18 -9q17 1 49 51v17q0 72 -20 76q-18 4 -52 -52v-51zM42 212z" />
    <glyph glyph-name="franc" unicode="&#x20a3;" horiz-adv-x="357" 
d="M219 537q20 0 26 -46l-31 -74q0 75 -22 75q-17 -1 -49 -51v-189q18 28 40 46t38 16q24 -3 24 -54q50 77 75 80q21 2 27 -46l-31 -74q0 76 -22 75q-17 0 -49 -50v-245h-31v212q0 74 -21 75q-17 1 -50 -51v-203q-4 -6 -17.5 -27.5t-23.5 -36t-23.5 -31.5t-25 -25.5
t-20.5 -7.5q-17 3 -23 46l31 73q0 -67 17.5 -73.5t53.5 49.5v409q4 6 16.5 26t22.5 34.5t23 31.5t24.5 26t20.5 10zM219 537z" />
    <glyph glyph-name="Euro" unicode="&#x20ac;" horiz-adv-x="204" 
d="M167 522q20 0 25 -46l-30 -74q0 75 -22 75q-17 0 -50 -51v-136h72l-9 -16l9 -15h-72v-31h72l-9 -15l9 -16h-72v-102q34 -52 51 -50q21 2 21 75l30 -74q-5 -44 -23 -46q-9 -1 -21 8t-25 26t-23 31.5t-23 35.5t-17 27v69h-48l8 16l-8 15h48v31h-48l8 15l-8 16h48v104
q4 6 13.5 21t17.5 27.5t19 28t20 26t19 17.5t18 8zM167 522z" />
    <glyph glyph-name="uni2115" unicode="&#x2115;" horiz-adv-x="360" 
d="M221 585q10 0 17.5 -12t7.5 -34v-79q52 79 76 79q20 1 26 -45v0v-494h-31v420q0 76 -22 74q-17 0 -49 -50v-444h-31v466q0 134 -71 24q-4 -6 -14 -23q-61 -97 -87 -104q-24 -7 -31 42v3l31 74q0 -135 71 -25q4 6 13.5 21.5t17.5 27.5t19 27.5t20 26t19 18t18 7.5z
M221 585z" />
    <glyph glyph-name="uni211A" unicode="&#x211a;" horiz-adv-x="329" 
d="M125 539h4q15 -5 15 -46v-365q-24 -36 -30 -46q1 -63 19 -66q18 -2 52 51q4 6 13.5 21t17.5 27.5t19 28t20 25.5t19 17.5t18 7.5q19 1 25 -45l-31 -74q0 75 -21 75q-17 -1 -50 -51q-4 -6 -11.5 -18.5t-14.5 -23.5t-16.5 -24.5t-18 -24t-17 -19.5t-16.5 -13.5t-15 -4.5
q-18 2 -23 46l22 53q-57 -79 -79 -70q-14 6 -14 45v366q1 2 4 7q79 120 109 121zM86 485q-19 0 -43 -41v-325q0 -57 12 -70q17 -19 59 46v325q-1 26 -8 45.5t-20 19.5zM86 485z" />
    <glyph glyph-name="uni212A" unicode="&#x212a;" horiz-adv-x="256" 
d="M42 537v-278q24 37 44 59.5t35 20.5q17 -3 23 -46l-26 -62q11 -1 18.5 -13t7.5 -33v-218q31 -48 48 -50q23 -2 23 75l31 -74q-6 -47 -27 -46q-9 1 -20.5 10.5t-24 26.5t-22.5 31t-22.5 34t-16.5 26q0 17 0.5 40t0.5 37t-0.5 31.5t-1.5 27.5t-2.5 20t-5 14.5t-8.5 5.5
q-16 3 -54 -40v-136h-31v504zM91 294q-17 -1 -49 -50v-93q46 72 71 79q-2 65 -22 64zM91 294z" />
    <glyph glyph-name="uni2133" unicode="&#x2133;" horiz-adv-x="462" 
d="M216 420q0 135 -72 24q-4 -6 -14 -22q-61 -97 -87 -105q-24 -6 -31 43v2l31 74q0 -135 71 -24q4 6 16.5 26t22.5 34.5t22.5 31.5t24.5 26t21 10q10 0 17.5 -11.5t7.5 -34.5v-18q42 57 74 63q28 5 28 -44v-1v-34q40 69 73 79q23 6 28 -27q1 -8 1 -17v-1v-494h-31v421
q2 43 -8 59t-26.5 5.5t-36.5 -40.5v-445h-31v421q0 134 -71 24v-445h-30v420zM221 540z" />
    <glyph glyph-name="uni2460" unicode="&#x2460;" horiz-adv-x="348" 
d="M306 441q-1 40 -33.5 56.5t-76 10.5t-86.5 -22t-68 -37v-449q0 -40 24.5 -58.5t59.5 -16t72.5 14t67 26.5t40.5 26v449zM12 416q0 30 75 76q95 58 174 67q74 7 75 -44v-491q0 -26 -75 -73q-98 -61 -177 -70q-72 -8 -72 45v490zM174 418l15 9v-413l-15 9l-15 -9v413z" />
    <glyph glyph-name="uni2461" unicode="&#x2461;" horiz-adv-x="348" 
d="M306 441q-1 40 -33.5 56.5t-76 10.5t-86.5 -22t-68 -37v-449q0 -40 24.5 -58.5t59.5 -16t72.5 14t67 26.5t40.5 26v449zM12 416q0 30 75 76q95 58 174 67q75 9 75 -44v-491q0 -26 -75 -73q-98 -61 -177 -70q-72 -8 -72 45v490zM134 427q9 0 20.5 -9.5t24.5 -26.5
t23 -31.5t22.5 -34.5t16.5 -26v-47q-43 30 -66 29q-28 -1 -34.5 -41.5t-1.5 -130.5q36 -55 53 -50q18 6 18 74l31 -74q-5 -44 -24 -45q-9 -1 -20.5 8t-25 26t-23 31.5t-23 35.5t-16.5 27q0 14 -1 45t-1 45t4 31t13 26q22 23 86 5v38q-35 54 -52 50q-19 -5 -19 -75l-30 74
q5 46 25 46z" />
    <glyph glyph-name="uni2462" unicode="&#x2462;" horiz-adv-x="348" 
d="M306 441q-1 40 -33.5 56.5t-76 10.5t-86.5 -22t-68 -37v-449q0 -34 17.5 -52.5t44 -20.5t58 3t61 17t52 24t31.5 21v449zM12 416q0 30 75 76q95 58 174 67q74 7 75 -44v-491q0 -26 -75 -73q-98 -61 -177 -70q-72 -8 -72 45v490zM133 426q9 0 21 -9.5t24.5 -26.5
t22.5 -31.5t22.5 -34.5t16.5 -26v-155q-3 -6 -17 -27.5t-24 -36t-23.5 -32t-25 -26t-20.5 -6.5q-17 4 -22 45l30 74q0 -69 19 -74q17 -5 53 50v83q-36 55 -53 50q-19 -5 -19 -74l-30 74q5 43 23 45q15 2 35 -20.5t44 -58.5v122q-33 50 -50 50q-22 0 -22 -75l-30 74
q5 46 25 46z" />
    <glyph glyph-name="uni2463" unicode="&#x2463;" horiz-adv-x="348" 
d="M306 441q-1 40 -33.5 56.5t-76 10.5t-86.5 -22t-68 -37v-449q0 -40 24.5 -58.5t59.5 -16t72.5 14t67 26.5t40.5 26v449zM12 416q0 30 75 76q95 58 174 67q75 9 75 -44v-491q0 -26 -75 -73q-98 -61 -177 -70q-72 -8 -72 45v490zM138 426v-237q0 -68 18 -74t53 50l1 229
l30 33v-413h-30v136q-23 -36 -47.5 -60t-39.5 -20q-15 5 -15 45v279z" />
    <glyph glyph-name="uni2464" unicode="&#x2464;" horiz-adv-x="348" 
d="M306 441q-1 40 -33.5 56.5t-76 10.5t-86.5 -22t-67 -37v-449q0 -40 24 -58.5t59 -16t72.5 14t67 26.5t40.5 26v449zM12 416q0 30 75 76q95 58 174 67q74 7 75 -44v-491q0 -26 -75 -73q-98 -61 -177 -70q-72 -8 -72 45v490zM134 14q-20 0 -25 45l30 74q0 -77 24 -74
q17 2 47 50v37q-64 -17 -86 6q-9 9 -13 26t-4 31t1 44.5t1 45.5q3 6 16.5 27t23.5 35.5t23 31.5t25 26t21 8q18 -2 23 -46l-31 -74q0 70 -18 75q-18 4 -53 -50q-5 -88 1 -128.5t32 -43.5q23 -3 69 29v-47q-4 -6 -11.5 -18t-14.5 -23t-15.5 -24t-17 -23.5t-17 -20
t-16.5 -14.5t-15 -5z" />
    <glyph glyph-name="uni2465" unicode="&#x2465;" horiz-adv-x="348" 
d="M306 441q-1 40 -33.5 56.5t-76 10.5t-86.5 -22t-68 -37v-449q0 -40 24.5 -58.5t59.5 -16t72.5 14t67 26.5t40.5 26v449zM12 416q0 30 75 76q95 58 174 67q74 7 75 -44v-491q0 -26 -75 -73q-98 -61 -177 -70q-72 -8 -72 45v490zM210 108v51q0 76 -23 75q-17 -1 -49 -51
v-51q0 -43 4.5 -60.5t16.5 -15.5q11 1 26 18.5t25 33.5zM126 14q-18 0 -18 44v241q3 5 18 28.5t25.5 38.5t24.5 33t26 24.5t21 0.5q13 -7 17 -43l-30 -74q0 71 -20 75q-17 3 -52 -50v-133q52 79 77 80q10 0 17.5 -11.5t7.5 -34.5v-98q-1 -3 -11 -16.5t-16 -21.5t-17 -22.5
t-19.5 -23.5t-18 -18.5t-18 -14t-14.5 -4.5z" />
    <glyph glyph-name="uni2466" unicode="&#x2466;" horiz-adv-x="348" 
d="M306 441q-1 40 -33.5 56.5t-76 10.5t-86.5 -22t-68 -37v-449q0 -40 24.5 -58.5t59.5 -16t72.5 14t67 26.5t40.5 26v449zM12 416q0 30 75 76q95 58 174 67q74 7 75 -44v-491q0 -26 -75 -73q-98 -61 -177 -70q-72 -8 -72 45v490zM107 46v143q46 -32 69 -29q26 3 32 43.5
t1 128.5q-37 57 -54 49q-17 -7 -17 -74l-31 74q5 43 22 46q9 1 21 -7.5t25.5 -25.5t23.5 -31.5t23.5 -36t16.5 -27.5q0 -14 1 -36.5t1 -35t-1 -29t-4 -26t-10 -18t-17 -12.5q-24 -8 -71 4v-132z" />
    <glyph glyph-name="uni2467" unicode="&#x2467;" horiz-adv-x="348" 
d="M305 441q0 40 -32.5 56.5t-76 10.5t-86.5 -22t-68 -37v-449q0 -40 24.5 -58.5t59.5 -16t72.5 14t67 26.5t39.5 26v449zM12 416q0 30 75 76q95 58 174 67q74 7 75 -44v-491q0 -26 -75 -73q-98 -61 -177 -70q-72 -8 -72 45v490zM193 221q-20 0 -47 -44v-50q0 -69 19 -74
q17 -5 52 50v68q0 30 -6 40t-18 10zM177 379q-22 0 -46 -41v-49q0 -70 18 -75q12 -3 30 19l1 1q10 12 22 30v69q-1 46 -25 46zM214 433h3q15 -4 15 -45v-91q-15 -23 -22 -33q14 10 23 8q15 -4 15 -46v-90q-2 -3 -5 -9q-17 -24 -28 -39.5t-29.5 -39.5t-33.5 -34t-24 -5
q-12 6 -12 44v1v90q12 20 21 33q-16 -12 -25 -7q-12 7 -12 45v90q1 3 4 8q80 121 110 120z" />
    <glyph glyph-name="uni2468" unicode="&#x2468;" horiz-adv-x="348" 
d="M306 441q-1 40 -33.5 56.5t-76 10.5t-86.5 -22t-68 -37v-449q0 -40 24.5 -58.5t59.5 -16t72.5 14t67 26.5t40.5 26v449zM12 416q0 30 75 76q95 58 174 67q74 7 75 -44v-491q0 -26 -75 -73q-98 -61 -177 -70q-72 -8 -72 45v490zM139 333v-52q0 -75 22 -74q17 1 49 50v52
q0 43 -4.5 60.5t-16.5 15.5q-11 -2 -26 -19t-24 -33zM222 427q18 0 18 -44v-1v-240q-3 -6 -18 -29.5t-25.5 -38t-24.5 -32.5t-26 -24.5t-21 -1.5q-13 8 -17 44l31 73q0 -71 19 -74q17 -3 52 50v133q-52 -80 -77 -80q-10 0 -17.5 11.5t-7.5 34.5v98q1 2 11 16t16 22t17 22.5
t19.5 23.5t18 18.5t18 14t14.5 4.5z" />
    <glyph glyph-name="uni2474" unicode="&#x2474;" horiz-adv-x="349" 
d="M159 501v-413l15 8l16 -8v413l-16 -9zM280 634q57 0 57 -45v-491q0 -26 -76 -73q-98 -61 -176 -70q-73 -8 -73 45v490q0 23 47 57.5t112 60.5t109 26z" />
    <glyph glyph-name="uni2475" unicode="&#x2475;" horiz-adv-x="349" 
d="M133 501q-18 -1 -24 -46l31 -74q0 70 19 74q17 5 52 -50v-37q-64 17 -87 -5q-8 -9 -12 -26t-4.5 -31t0.5 -45t1 -46q4 -5 17 -26t23 -35.5t23 -31.5t25 -26t21 -8q18 1 24 45l-31 74q0 -68 -18 -74t-53 50q-3 45 -3 73t3.5 52t12 35t22.5 12q24 0 67 -29v47q-4 6 -17 26
t-22.5 34.5t-22.5 31.5t-24.5 26t-20.5 10h-2zM280 634q57 0 57 -45v-491q0 -26 -76 -73q-98 -61 -176 -70q-73 -8 -73 45v490q0 23 47 57.5t112 60.5t109 26z" />
    <glyph glyph-name="uni2476" unicode="&#x2476;" horiz-adv-x="349" 
d="M133 500q-19 -1 -25 -46l31 -74q0 75 21 75q18 0 50 -50v-123q-24 37 -44 59.5t-34 20.5q-18 -2 -24 -45l31 -74q0 69 18 74t53 -50v-83q-35 -55 -53 -50t-18 74l-31 -74q5 -42 22 -45q9 -2 21 6.5t25.5 25.5t23.5 32t23.5 36.5t17.5 26.5v156q-4 6 -17 26t-22.5 34.5
t-22.5 31.5t-24.5 26.5t-20.5 9.5h-1zM280 634q57 0 57 -45v-491q0 -26 -76 -73q-98 -61 -176 -70q-73 -8 -73 45v490q0 23 47 57.5t112 60.5t109 26z" />
    <glyph glyph-name="uni2477" unicode="&#x2477;" horiz-adv-x="349" 
d="M241 500l-31 -32v-229q-36 -56 -53 -50q-18 6 -18 74v237l-31 -32v-279q0 -40 16 -45q15 -4 39 20t47 60v-136h31v412zM280 634q57 0 57 -45v-491q0 -26 -76 -73q-98 -61 -176 -70q-73 -8 -73 45v490q0 23 47 57.5t112 60.5t109 26z" />
    <glyph glyph-name="uni2478" unicode="&#x2478;" horiz-adv-x="349" 
d="M217 501q-9 0 -21 -9.5t-25 -26.5t-22.5 -31.5t-22.5 -34.5t-17 -26q0 -15 -1 -45.5t-0.5 -44.5t4 -31t12.5 -26q23 -23 87 -6v-37q-31 -48 -48 -50q-23 -3 -23 74l-31 -74q6 -46 26 -45q9 0 20.5 9.5t24.5 26.5t22.5 31t22.5 34.5t17 26.5v47q-46 -32 -70 -29
q-25 3 -31 43.5t-1 127.5q35 55 52 50q19 -4 19 -74l31 74q-6 44 -24 46h-1zM280 634q57 0 57 -45v-491q0 -26 -76 -73q-98 -61 -176 -70q-73 -8 -73 45v490q0 23 47 57.5t112 60.5t109 26z" />
    <glyph glyph-name="uni2479" unicode="&#x2479;" horiz-adv-x="349" 
d="M188 308q22 1 22 -75v-51q-9 -16 -24 -33.5t-26 -19.5q-12 -1 -16.5 16.5t-4.5 60.5v51q32 50 49 51zM216 501q-9 0 -20.5 -9.5t-24.5 -26.5t-23 -31.5t-23 -34.5t-17 -26v-241q0 -44 19 -44q6 0 14 4.5t18 14t18.5 18.5t19 23t17 22.5t16 22t11.5 15.5v99q0 23 -8 34.5
t-18 11.5q-25 -1 -76 -80v132q34 54 52 51q19 -4 19 -75l31 74q-5 35 -17 43q-4 3 -8 3zM280 634q57 0 57 -45v-491q0 -26 -76 -73q-98 -61 -176 -70q-73 -8 -73 45v490q0 23 47 57.5t112 60.5t109 26z" />
    <glyph glyph-name="uni247A" unicode="&#x247a;" horiz-adv-x="349" 
d="M133 501h-3q-18 -4 -23 -46l31 -74q0 67 17.5 74t53.5 -49q5 -88 -1 -128.5t-31 -43.5q-24 -3 -70 29v-143l31 -32v132q47 -12 71 -4q11 4 17.5 12.5t10 18t4.5 26t0.5 29t-1 35t-0.5 36.5q-4 6 -14 21.5t-17.5 27.5t-19 27.5t-20.5 26t-19 18t-17 7.5zM280 634
q57 0 57 -45v-491q0 -26 -76 -73q-98 -61 -176 -70q-73 -8 -73 45v490q0 23 47 57.5t112 60.5t109 26z" />
    <glyph glyph-name="uni247B" unicode="&#x247b;" horiz-adv-x="349" 
d="M194 295q12 0 18 -10t6 -40v-68q-35 -55 -53 -50t-18 74v50q26 44 47 44zM178 453q24 0 24 -46v-69q-12 -19 -22 -30v-1q-19 -22 -30 -19q-19 5 -19 75v49q25 41 47 41zM214 507q-29 1 -110 -122q-3 -4 -4 -6v-90q0 -38 13 -45q9 -5 25 6q-3 -4 -6.5 -9t-6 -9l-5 -8
t-4.5 -6v-90v-1q0 -38 13 -44q9 -5 23.5 5t33.5 33.5t30 39.5t27 40q4 6 6 8v91q0 42 -16 46q-9 2 -22 -8q5 7 13 19t9 14v91q0 41 -16 45h-3zM280 634q57 0 57 -45v-491q0 -26 -76 -73q-98 -61 -176 -70q-73 -8 -73 45v490q0 14 19 33t49.5 38t65 35.5t71 27t63.5 10.5z
" />
    <glyph glyph-name="uni247C" unicode="&#x247c;" horiz-adv-x="349" 
d="M191 459q11 1 15 -17t4 -59v-52q-32 -49 -49 -50q-22 -1 -22 74v52q10 16 24.5 33t25.5 19h2zM222 501q-6 0 -14 -4.5t-18 -14t-18 -18.5t-19 -23.5t-17.5 -22.5t-16 -22t-11.5 -16v-99q0 -22 8 -34t18 -11q24 0 76 80v-133q-34 -53 -52 -50q-19 3 -19 74l-31 -74
q5 -35 17 -43q9 -5 21 1.5t26.5 24.5t25 32.5t25 38t18.5 29.5v240q0 45 -19 45zM280 634q57 0 57 -45v-491q0 -26 -76 -73q-98 -61 -176 -70q-73 -8 -73 45v490q0 23 47 57.5t112 60.5t109 26z" />
    <glyph glyph-name="uni24B6" unicode="&#x24b6;" horiz-adv-x="642" 
d="M145 421v-117q0 -20 -0.5 -28.5t-3.5 -17.5t-10 -12q-17 -9 -89 10v-56q45 12 65 13.5t29 -7.5t9 -58v-117h352v117q0 20 0.5 27.5t2.5 17t6 14.5q10 8 30 6.5t64 -13.5v56q-79 -21 -94 -7q-9 8 -9 55v117h-352zM115 452h412v-132q0 -54 14 -63q10 -6 29.5 4t59.5 38
v-142q-66 46 -84 44q-19 -3 -19 -51v-150h-412v150q0 46 -17 50q-18 5 -86 -43v141q36 -25 55.5 -35t29.5 -8q18 5 18 65v132zM335 360q-20 0 -49 -51v-94q24 -7 71 -79v149q0 74 -22 75zM362 405q10 0 17.5 -12t7.5 -34v-311h-30v73q-71 110 -71 -25v-48h-31v229
q4 6 13.5 21t17.5 27.5t19 28t20 26t19 17.5t18 8z" />
    <glyph glyph-name="uni24B7" unicode="&#x24b7;" horiz-adv-x="642" 
d="M145 421v-117q0 -20 -0.5 -28.5t-3.5 -17.5t-10 -12q-17 -9 -89 10v-56q45 12 65 13.5t29 -7.5t9 -58v-117h352v117q0 20 0.5 27.5t2.5 17t6 14.5q10 8 30 6.5t64 -13.5v56q-79 -21 -94 -7q-9 8 -9 55v117h-352zM115 453l412 -1v-132q0 -54 14 -63q10 -6 29.5 4t59.5 38
v-142q-66 46 -84 44q-19 -3 -19 -51v-150h-412v150q0 46 -17 50q-18 5 -86 -43v141q36 -25 55.5 -35t29.5 -8q18 5 18 65v133zM344 232q-14 0 -58 -62v-26q2 -43 16 -50q17 -9 55 49v53q-1 36 -13 36zM341 363q-17 0 -55 -54v-18q0 -73 20 -70q6 0 15 8q5 7 10 12
q9 11 26 37v41q-1 44 -16 44zM285 405v-83q59 84 84 82q18 0 18 -45v-49q-26 -39 -34 -50q15 11 24.5 1.5t9.5 -41.5v-1v-43q-1 -3 -5 -9q-80 -120 -109 -120q-18 1 -18 47v43q24 37 33 50q-14 -11 -23.5 -1.5t-9.5 42.5v144z" />
    <glyph glyph-name="uni24B8" unicode="&#x24b8;" horiz-adv-x="642" 
d="M145 421v-117q0 -20 -0.5 -28.5t-3.5 -17.5t-10 -12q-17 -9 -89 10v-56q45 12 65 13.5t29 -7.5t9 -58v-117h352v117q0 20 0.5 27.5t2.5 17t6 14.5q10 8 30 6.5t64 -13.5v56q-79 -21 -94 -7q-9 8 -9 55v117h-352zM115 453l412 -1v-132q0 -54 14 -63q7 -2 13 -2t18.5 7
t25 14.5t32.5 22.5v-142q-66 46 -84 44q-19 -3 -19 -51v-150h-412v150q0 46 -17 50q-18 5 -86 -43v141q36 -25 55.5 -35t29.5 -8q18 5 18 65v133zM362 405q20 0 25 -46l-30 -74q0 74 -22 75q-17 0 -50 -51v-166q33 -51 50 -50q22 0 22 74l30 -73q-5 -45 -24 -46
q-9 -1 -20.5 8t-25 26t-23 31.5t-22.5 35.5t-17 27v101q4 6 16.5 26t22.5 34.5t22.5 31.5t24.5 26t21 10z" />
    <glyph glyph-name="uni24B9" unicode="&#x24b9;" horiz-adv-x="642" 
d="M329 319q-19 0 -44 -41v-109q0 -68 18 -74q18 -5 53 50v108q0 27 -7 46.5t-20 19.5zM357 405h31v-357h-31v84q-60 -84 -85 -83q-17 1 -17 46v1v149q71 109 102 125v35zM145 421v-117q0 -20 -0.5 -28.5t-3.5 -17.5t-10 -12q-17 -9 -89 10v-56q45 12 65 13.5t29 -7.5t9 -58
v-117h352v117q0 50 9 59q10 8 30 6.5t64 -13.5v56q-79 -21 -93 -7q-10 8 -10 55v117h-352zM115 453l412 -1v-132q0 -54 14 -63q7 -2 13 -2t18.5 7t25 14.5t32.5 22.5v-142q-66 46 -84 44q-19 -3 -19 -51v-150h-412v150q0 46 -17 50q-18 5 -86 -43v141q36 -25 55.5 -35
t29.5 -8q18 5 18 65v133z" />
    <glyph glyph-name="uni24BA" unicode="&#x24ba;" horiz-adv-x="642" 
d="M145 421v-117q0 -20 -0.5 -28.5t-3.5 -17.5t-10 -12q-17 -9 -89 10v-56q45 12 65 13.5t29 -7.5t9 -58v-117h352v117v22t1 14.5t3 14t5 8.5q10 8 30 6.5t64 -13.5v56q-79 -21 -94 -7q-9 8 -9 55v117h-352zM115 453l412 -1v-132q0 -54 14 -63q7 -2 13 -2t18.5 7t25 14.5
t32.5 22.5v-142q-66 46 -84 44q-19 -3 -19 -51v-150h-412v150q0 46 -17 50q-18 5 -86 -43v141q68 -47 85 -43q18 5 18 65v133zM336 360q-17 1 -51 -51v-94q47 72 71 79q-1 65 -20 66zM362 405q20 0 25 -46l-26 -64q20 2 26 -46l-31 -73q0 72 -20 74q-17 2 -51 -50v-57
q36 -55 53 -50q18 5 18 74l31 -73q-5 -45 -24 -46q-7 -1 -17 6t-19.5 17.5t-20.5 26t-19 28t-18 28.5t-14 22v101q4 6 16.5 26t22.5 34.5t22.5 31.5t24.5 26t21 10z" />
    <glyph glyph-name="uni24BB" unicode="&#x24bb;" horiz-adv-x="642" 
d="M145 421v-117q0 -20 -0.5 -28.5t-3.5 -17.5t-10 -12q-17 -9 -89 10v-56q45 12 65 13.5t29 -7.5t9 -58v-117h352v117q0 20 0.5 27.5t2.5 17t6 14.5q10 8 30 6.5t64 -13.5v56q-79 -21 -94 -7q-9 8 -9 55v117h-352zM115 453l412 -1v-132q0 -54 14 -63q10 -6 29.5 4t59.5 38
v-142q-66 46 -84 44q-19 -3 -19 -51v-150h-412v150q0 46 -17 50q-18 5 -86 -43v141q36 -25 55.5 -35t29.5 -8q18 5 18 65v133zM362 405q20 0 25 -46l-30 -74q0 76 -23 75q-17 -1 -49 -51v-133q25 37 45 59.5t35 20.5q17 -3 22 -46l-30 -74q0 70 -19 75q-18 4 -53 -50v-113
h-30v229q4 6 16.5 26t22.5 34.5t22.5 31.5t24.5 26t21 10z" />
    <glyph glyph-name="uni24BC" unicode="&#x24bc;" horiz-adv-x="642" 
d="M145 421v-117q0 -20 -0.5 -28.5t-3.5 -17.5t-10 -12q-17 -9 -89 10v-56q45 12 65 13.5t29 -7.5t9 -58v-117h352v117q0 20 0.5 27.5t2.5 17t6 14.5q10 8 30 6.5t64 -13.5v56q-79 -21 -93 -7q-10 8 -10 55v117h-352zM115 453l412 -1v-132q0 -54 14 -63q10 -6 29.5 4
t59.5 38v-142q-66 46 -84 44q-19 -3 -19 -51v-150h-412v150q0 46 -17 50q-18 5 -86 -43v141q36 -25 55.5 -35t29.5 -8q18 5 18 65v133zM357 210q-51 -13 -72 -13v-54q72 -110 72 25v42zM362 405q20 0 25 -46l-30 -74q0 135 -72 25v-67q2 -13 4.5 -21t8.5 -10.5t13 -2t19 7
t24.5 14.5t32.5 22v-159q0 -120 -129 73l-3 5v105q4 6 16.5 26t22.5 34.5t22.5 31.5t24.5 26.5t21 9.5z" />
    <glyph glyph-name="uni24BD" unicode="&#x24bd;" horiz-adv-x="642" 
d="M115 453l412 -1v-132q0 -54 14 -63q10 -6 29.5 4t59.5 38v-142q-66 46 -84 44q-19 -3 -19 -51v-150h-412v150q0 46 -17 50q-18 5 -86 -43v142q36 -26 55.5 -36t29.5 -8q18 5 18 65v133zM145 421v-117q0 -20 -0.5 -28.5t-3.5 -17.5t-10 -12q-17 -9 -89 10v-56
q45 12 65 13.5t29 -7.5t9 -57v-118h352v118q0 20 0.5 27.5t2.5 16.5t6 14q10 8 30 6.5t64 -13.5v56q-79 -21 -93 -7q-10 9 -10 55v117h-352zM255 405h30l1 -189q24 -7 71 -79v268h30v-357h-30v73q-36 55 -53 50q-18 -5 -18 -74v-49h-31v357zM255 405z" />
    <glyph glyph-name="uni24BE" unicode="&#x24be;" horiz-adv-x="642" 
d="M145 421v-117q0 -20 -0.5 -28.5t-3.5 -17.5t-10 -12q-17 -9 -89 10v-56q45 12 65 13.5t29 -7.5t9 -58v-117h352v117q0 50 9 59q10 8 30 6.5t64 -13.5v56q-79 -21 -94 -7q-9 8 -9 55v117h-352zM115 453l412 -1v-132q0 -54 14 -63q10 -6 29.5 4t59.5 38v-142q-66 46 -84 44
q-19 -3 -19 -51v-150h-412v150q0 46 -17 50q-18 5 -86 -43v141q36 -25 55.5 -35t29.5 -8q18 5 18 65v133zM306 373l30 32v-358h-30v326z" />
    <glyph glyph-name="uni24BF" unicode="&#x24bf;" horiz-adv-x="642" 
d="M145 421v-117q0 -20 -0.5 -28.5t-3.5 -17.5t-10 -12q-17 -9 -89 10v-56q45 12 65 13.5t29 -7.5t9 -58v-117h352v117q0 21 0.5 28t2.5 16.5t6 14.5q10 8 30 6.5t64 -13.5v56q-79 -21 -94 -7q-9 8 -9 55v117h-352zM115 452h412v-132q0 -54 14 -63q10 -6 29.5 4t59.5 38
v-142q-66 46 -84 44q-19 -3 -19 -51v-150h-412v150q0 46 -17 50q-18 5 -86 -43v141q68 -47 85 -43q18 5 18 65v132zM387 176q-4 -6 -16.5 -26.5t-22.5 -35t-23 -31.5t-25 -26t-21 -9q-19 1 -24 46l30 74q0 -77 23 -75q17 2 48 51v260h31v-228z" />
    <glyph glyph-name="uni24C0" unicode="&#x24c0;" horiz-adv-x="642" 
d="M115 453l412 -1v-132q0 -54 14 -63q10 -6 29.5 4t59.5 38v-142q-66 46 -84 44q-19 -3 -19 -51v-150h-412v150q0 46 -17 50q-18 5 -86 -43v142q36 -26 55.5 -36t29.5 -8q18 5 18 65v133zM145 421v-117q0 -20 -0.5 -28.5t-3.5 -17.5t-10 -12q-17 -9 -89 10v-56
q45 12 65 13.5t29 -7.5t9 -57v-118h352v118q0 20 0.5 27.5t2.5 16.5t6 14q10 8 30 6.5t64 -13.5v56q-79 -21 -93 -7q-10 9 -10 55v117h-352zM255 405h30l1 -94q35 -55 52 -50q19 5 19 74v70h30v-144q0 -75 -51 -28q-24 22 -50 63v-54q9 -3 20 -13.5t23 -27t21.5 -30t21 -32
t15.5 -24.5v-67h-31v99q-35 55 -53 50q-15 -4 -17 -52v-97h-31v357zM255 405z" />
    <glyph glyph-name="uni24C1" unicode="&#x24c1;" horiz-adv-x="642" 
d="M145 421v-117q0 -20 -0.5 -28.5t-3.5 -17.5t-10 -12q-17 -9 -89 10v-56q45 12 65 13.5t29 -7.5t9 -58v-117h352v117q0 20 0.5 27.5t2.5 17t6 14.5q10 8 30 6.5t64 -13.5v56q-79 -21 -94 -7q-9 8 -9 55v117h-352zM115 453l412 -1v-132q0 -54 14 -63q10 -6 29.5 4t59.5 38
v-142q-66 46 -84 44q-19 -3 -19 -51v-150h-412v150q0 46 -17 50q-18 5 -86 -43v141q36 -25 55.5 -35t29.5 -8q18 5 18 65v133zM255 176v228h30v-260q35 -53 52 -51q20 4 20 75l30 -74q-5 -46 -25 -46q-6 1 -13 5t-14 11t-15 16.5t-15 19t-14.5 21t-13.5 21t-12.5 19.5
t-9.5 15z" />
    <glyph glyph-name="uni24C2" unicode="&#x24c2;" horiz-adv-x="642" 
d="M145 421v-117q0 -20 -0.5 -28.5t-3.5 -17.5t-10 -12q-17 -9 -89 10v-56q45 12 65 13.5t29 -7.5t9 -58v-117h352v117q0 20 0.5 27.5t2.5 17t6 14.5q10 8 30 6.5t64 -13.5v56q-79 -21 -94 -7q-9 8 -9 55v117h-352zM115 453l412 -1v-132q0 -54 14 -63q10 -6 29.5 4t59.5 38
v-142q-66 46 -84 44q-19 -3 -19 -51v-150h-412v150q0 46 -17 50q-18 5 -86 -43v141q36 -25 55.5 -35t29.5 -8q18 5 18 65v133zM204 48v230q0 27 42.5 78.5t69.5 48.5q20 -3 20 -45v-34q14 23 28 40.5t26.5 27.5t22.5 11q25 2 25 -45v-312h-31v238q3 64 -19 68q-21 4 -52 -44
v-262h-30v238q0 71 -21 73q-17 2 -50 -49v-262h-31z" />
    <glyph glyph-name="uni24C3" unicode="&#x24c3;" horiz-adv-x="642" 
d="M145 421v-117q0 -20 -0.5 -28.5t-3.5 -17.5t-10 -12q-17 -9 -89 10v-56q45 12 65 13.5t29 -7.5t9 -58v-117h352v117q0 50 9 59q10 8 30 6.5t64 -13.5v56q-79 -21 -94 -7q-9 8 -9 55v117h-352zM115 453l412 -1v-132q0 -54 14 -63q10 -6 29.5 4t59.5 38v-142q-66 46 -84 44
q-19 -3 -19 -51v-150h-412v150q0 46 -17 50q-18 5 -86 -43v141q36 -25 55.5 -35t29.5 -8q18 5 18 65v133zM387 48h-30v237q0 76 -23 75q-17 -1 -48 -51v-261h-31v356h31v-79q51 79 76 79q10 1 17.5 -11t7.5 -34v-311z" />
    <glyph glyph-name="uni24C4" unicode="&#x24c4;" horiz-adv-x="642" 
d="M145 421v-117q0 -20 -0.5 -28.5t-3.5 -17.5t-10 -12q-17 -9 -89 10v-56q45 12 65 13.5t29 -7.5t9 -58v-117h352v117q0 21 0.5 28t2.5 16.5t6 14.5q10 8 30 6.5t64 -13.5v56q-79 -21 -94 -7q-9 8 -9 55v117h-352zM115 453l412 -1v-132q0 -54 14 -63q10 -6 29.5 4t59.5 38
v-142q-66 46 -84 44q-19 -3 -19 -51v-150h-412v150q0 46 -17 50q-18 5 -86 -43v141q68 -47 85 -43q18 5 18 65v133zM356 286q0 26 -6.5 45t-19.5 20q-19 2 -45 -41v-143q0 -65 17 -73q17 -10 54 49v143zM255 277q1 2 4 7q14 21 23.5 35t27 37t32.5 36t26 13q19 1 19 -45
v-185q-1 -2 -5 -8q-16 -24 -27 -39t-29 -38.5t-33 -34.5t-24 -7q-14 5 -14 45v184z" />
    <glyph glyph-name="uni24C5" unicode="&#x24c5;" horiz-adv-x="642" 
d="M145 421v-117q0 -20 -0.5 -28.5t-3.5 -17.5t-10 -12q-17 -9 -89 10v-56q45 12 65 13.5t29 -7.5t9 -58v-117h352v117q0 20 0.5 27.5t2.5 17t6 14.5q10 8 30 6.5t64 -13.5v56q-79 -21 -94 -7q-9 8 -9 55v117h-352zM115 453l412 -1v-132q0 -54 14 -63q10 -6 29.5 4t59.5 38
v-142q-66 46 -84 44q-19 -3 -19 -51v-150h-412v150q0 46 -17 50q-18 5 -86 -43v141q36 -25 55.5 -35t29.5 -8q18 5 18 65v133zM306 359q-21 -1 -21 -75v-52q38 -52 55 -51q14 2 17 40v87q-33 52 -51 51zM273 404q10 1 24 -11t31.5 -34.5t28 -37t25.5 -37.5q4 -6 5 -8v-94
q0 -39 -13 -45q-24 -11 -89 81v-137l-30 -33v310q0 46 18 46z" />
    <glyph glyph-name="uni24C6" unicode="&#x24c6;" horiz-adv-x="642" 
d="M145 421v-117q0 -20 -0.5 -28.5t-3.5 -17.5t-10 -12q-17 -9 -89 10v-56q45 12 65 13.5t29 -7.5t9 -58v-117h352v117q0 20 0.5 27.5t2.5 17t6 14.5q10 8 30 6.5t64 -13.5v56q-79 -21 -93 -7q-10 8 -10 55v117h-352zM115 452h412v-132q0 -54 14 -63q10 -6 29.5 4t59.5 38
v-142q-66 46 -84 44q-19 -3 -19 -51v-150h-412v150q0 46 -17 50q-18 5 -86 -43v141q36 -25 55.5 -35t29.5 -8q18 5 18 65v132zM336 359q-18 1 -50 -51v-87q1 -34 13 -39q16 -7 58 50v52q0 74 -21 75zM369 404q18 0 18 -46v-310l-30 33v137q-62 -88 -87 -81q-15 4 -15 45v94
q1 2 5 8q15 23 25.5 37.5t28 37t31.5 34.5t24 11z" />
    <glyph glyph-name="uni24C7" unicode="&#x24c7;" horiz-adv-x="642" 
d="M145 421v-117q0 -15 -0.5 -22t-1.5 -16t-4 -13.5t-8 -6.5q-17 -9 -89 10v-56q45 12 65 13.5t29 -7.5t9 -58v-117h352v117q0 20 0.5 27.5t2.5 17t6 14.5q10 8 30 6.5t64 -13.5v56q-79 -21 -94 -7q-9 8 -9 55v117h-352zM115 453l412 -1v-132q0 -54 14 -63q10 -6 29.5 4
t59.5 38v-142q-66 46 -84 44q-19 -3 -19 -51v-150h-412v150q0 46 -17 50q-18 5 -86 -43v141q36 -25 55.5 -35t29.5 -8q18 5 18 65v133zM308 358q-22 1 -22 -71v-18l3 -6q35 -55 49 -55q19 0 19 69v34q-20 27 -30 37t-19 10zM273 405q6 0 14 -5t18 -15t18 -19t19.5 -24.5
t17 -23t16 -23t11.5 -17.5v-59q-5 -41 -21 -45q-24 -7 -81 79v-39q12 -4 27.5 -21t26.5 -32.5t28 -42.5t20 -31v-39h-31v72q-14 21 -27 35.5t-23 14.5q-18 0 -21 -53v-69h-30v312v1q0 44 18 44z" />
    <glyph glyph-name="uni24C8" unicode="&#x24c8;" horiz-adv-x="642" 
d="M145 421v-117q0 -20 -0.5 -28.5t-3.5 -17.5t-10 -12q-17 -9 -89 10v-56q45 12 65 13.5t29 -7.5t9 -58v-117h352v117q0 50 9 59q10 8 30 6.5t64 -13.5v56q-79 -21 -94 -7q-9 8 -9 55v117h-352zM115 452h412v-132q0 -54 14 -63q10 -6 29.5 4t59.5 38v-142q-66 46 -84 44
q-19 -3 -19 -51v-150h-412v150q0 46 -17 50q-18 5 -86 -43v141q36 -25 55.5 -35t29.5 -8q18 5 18 65v132zM360 404q20 0 26 -45l-31 -74q0 74 -21 74q-17 1 -50 -50v-44q64 17 87 -4t16 -72l-1 -13q-4 -6 -17.5 -27.5t-23.5 -36t-23.5 -31.5t-25.5 -25.5t-21 -7.5
q-17 3 -22 46l31 74q0 -68 17.5 -74.5t53.5 49.5l1 46q2 68 -42 62q-24 -3 -61 -29v54q4 7 13.5 22t17.5 27.5t19 27.5t20.5 25.5t19 18t17.5 7.5z" />
    <glyph glyph-name="uni24C9" unicode="&#x24c9;" horiz-adv-x="642" 
d="M145 421v-117q0 -20 -0.5 -28.5t-3.5 -17.5t-10 -12q-17 -9 -89 10v-56q45 12 65 13.5t29 -7.5t9 -57v-118h352v118q0 20 0.5 27t2.5 16.5t6 14.5q10 8 30 6.5t64 -13.5v56q-79 -21 -94 -7q-9 9 -9 55v117h-352zM115 453l412 -1v-132q0 -54 14 -63q10 -6 29.5 4t59.5 38
v-142q-66 46 -84 44q-19 -3 -19 -51v-150h-412v150q0 46 -17 50q-18 5 -86 -43v142q68 -48 85 -44q18 5 18 65v133zM204 359q0 41 16 45q17 4 47 -30t54 -73q14 22 23 35t23 32t26 28t21 9q19 -2 24 -46l-30 -74q0 71 -20 75q-17 2 -52 -51v-261h-30v261q-37 57 -54.5 50
t-17.5 -74z" />
    <glyph glyph-name="uni24CA" unicode="&#x24ca;" horiz-adv-x="642" 
d="M145 421v-117q0 -20 -0.5 -28.5t-3.5 -17.5t-10 -12q-17 -9 -89 10v-56q45 12 65 13.5t29 -7.5t9 -58v-117h352v117q0 20 0.5 27.5t2.5 17t6 14.5q10 8 30 6.5t64 -13.5v56q-79 -21 -94 -7q-9 8 -9 55v117h-352zM115 453l412 -1v-132q0 -54 14 -63q10 -6 29.5 4t59.5 38
v-142q-66 46 -84 44q-19 -3 -19 -51v-150h-412v150q0 46 -17 50q-18 5 -86 -43v141q36 -25 55.5 -35t29.5 -8q18 5 18 65v133zM255 405h30v-238q0 -76 23 -74q17 1 49 50v262h30v-357h-30v79q-52 -79 -77 -79q-20 -1 -25 45v1v311z" />
    <glyph glyph-name="uni24CB" unicode="&#x24cb;" horiz-adv-x="642" 
d="M145 421v-117q0 -20 -0.5 -28.5t-3.5 -17.5t-10 -12q-17 -9 -89 10v-56q45 12 65 13.5t29 -7.5t9 -57v-118h352v118v20.5t1 15t3 14t5 8.5q10 8 30 6.5t64 -13.5v56q-79 -21 -93 -7q-10 9 -10 55v117h-352zM115 453l412 -1v-132q0 -54 14 -63q7 -2 13 -2t18.5 7t25 15
t32.5 22v-142q-66 46 -84 44q-19 -2 -19 -51v-150h-412v150q0 46 -17 50q-18 5 -86 -43v142q24 -18 38.5 -27t27 -13.5t19.5 -3.5q18 5 18 65v133zM229 405q9 -1 21 -10t24.5 -26t22.5 -31.5t22.5 -34.5t16.5 -26v-134q32 -49 49 -50q23 -1 23 75v236h30v-310
q-5 -46 -25 -46q-9 0 -21 9.5t-24.5 26.5t-22.5 31.5t-22.5 34.5t-16.5 26v133q-33 52 -51 51q-20 -1 -20 -75l-31 74q5 46 25 46z" />
    <glyph glyph-name="uni24CC" unicode="&#x24cc;" horiz-adv-x="642" 
d="M145 421v-117q0 -20 -0.5 -28.5t-3.5 -17.5t-10 -12q-17 -9 -89 10v-56q45 12 65 13.5t29 -7.5t9 -58v-117h352v117q0 20 0.5 27.5t2.5 17t6 14.5q10 8 30 6.5t64 -13.5v56q-79 -21 -94 -7q-9 8 -9 55v117h-352zM115 453l412 -1v-132q0 -54 14 -63q7 -2 13 -2t18.5 7
t25 14.5t32.5 22.5v-142q-66 46 -84 44q-19 -3 -19 -51v-150h-412v150q0 46 -17 50q-18 5 -86 -43v141q24 -17 38.5 -26t27 -14t19.5 -3q18 5 18 65v133zM204 105v288h30v-214q0 -76 23 -75q17 1 49 51v238h30v-238q32 -50 49 -51q22 -1 22 75v214h31v-288q0 -23 -7.5 -34.5
t-17.5 -11.5q-12 1 -30.5 20.5t-30.5 37t-31 46.5q-19 -29 -30.5 -46.5t-30 -37t-31.5 -20.5q-25 0 -25 46z" />
    <glyph glyph-name="uni24CD" unicode="&#x24cd;" horiz-adv-x="642" 
d="M145 421v-117q0 -15 -0.5 -22t-1.5 -16t-4 -13.5t-8 -6.5q-17 -9 -89 10v-56q45 12 65 13.5t29 -7.5t9 -57v-118h352v118q0 49 9 58q10 8 30 6.5t64 -13.5v56q-79 -21 -94 -7q-9 9 -9 55v117h-352zM115 453l412 -1v-132q0 -54 14 -63q7 -2 13 -2t18.5 7t25 15t32.5 22
v-142q-66 46 -84 44q-19 -3 -19 -51v-150h-412v150q0 46 -17 50q-18 5 -86 -43v142q24 -18 38.5 -27t27 -13.5t19.5 -3.5q18 5 18 65v133zM413 394q12 0 18.5 -16t6.5 -30l-31 -74q0 75 -21 75q-17 0 -50 -51v-60h60l-9 -15l9 -16h-60v-53q33 -50 50 -50q21 0 21 75l31 -74
q-5 -43 -22 -46q-10 -1 -21.5 7.5t-26 27.5t-24 32.5t-23.5 36.5q-14 -22 -23 -35.5t-23 -32t-25.5 -27.5t-21.5 -9q-19 1 -24 46l31 74q0 -68 17 -74.5t54 49.5v53h-60l9 16l-9 15h60v60q-37 56 -54 49.5t-17 -73.5l-31 74q5 45 24 46q7 0 14.5 -4.5t16 -13.5t16 -18
t17 -23t15 -22.5t14.5 -22.5q19 29 31 47t30.5 37.5t30.5 19.5z" />
    <glyph glyph-name="uni24CE" unicode="&#x24ce;" horiz-adv-x="642" 
d="M145 421v-117q0 -20 -0.5 -28.5t-3.5 -17.5t-10 -12q-17 -9 -89 10v-56q45 12 65 13.5t29 -7.5t9 -58v-117h352v118q0 20 0.5 27t2.5 16.5t6 14.5q10 8 30 6.5t64 -13.5v56q-79 -21 -94 -7q-9 9 -9 55v117h-352zM115 453l412 -1v-132q0 -54 14 -63q10 -6 29.5 4t59.5 38
v-142q-66 46 -84 44q-19 -3 -19 -51v-150h-412v150q0 46 -17 50q-18 5 -86 -43v142q68 -48 85 -44q18 5 18 65v133zM330 405q9 0 21 -9t25 -26t22.5 -31.5t22.5 -35t17 -26.5v-229h-31v153q-51 -79 -76 -80q-20 0 -25 46v139q-35 53 -52 50q-20 -4 -20 -75l-30 74
q5 43 23 46q6 0 13 -3.5t14 -10t15 -16t15.5 -19.5t15 -22t13.5 -21.5t13 -20t10 -15.5v-32q0 -62 15 -72q18 -13 56 48v92q-32 52 -50 51q-21 -2 -21 -75l-30 74q5 45 24 46z" />
    <glyph glyph-name="uni24CF" unicode="&#x24cf;" horiz-adv-x="642" 
d="M145 421v-117q0 -15 -0.5 -22t-1.5 -16t-4 -13.5t-8 -6.5q-17 -9 -89 10v-56q45 12 65 13.5t29 -7.5t9 -57v-118h352v118v20.5t1 15t3 14t5 8.5q10 8 30 6.5t64 -13.5v56q-79 -21 -94 -7q-9 9 -9 55v117h-352zM115 453l412 -1v-132q0 -54 14 -63q7 -2 13 -2t18.5 7t25 15
t32.5 22v-142q-66 46 -84 44q-19 -2 -19 -51v-150h-412v150q0 46 -17 50q-18 5 -86 -43v142q36 -26 55.5 -36t29.5 -8q18 5 18 65v133zM282 404q8 0 17.5 -7.5t19 -17.5t20.5 -25.5t19 -28t17.5 -27.5t13.5 -21v-55q-37 26 -61 29q-44 6 -42 -62l1 -46q36 -56 53.5 -49.5
t17.5 74.5l31 -74q-5 -42 -22 -46q-9 -1 -21 7.5t-25.5 26t-23.5 32t-23.5 35.5t-17.5 27l-1 14q-7 50 16 71t87 4v44q-33 51 -50 51q-21 -1 -21 -75l-31 74q6 45 26 45z" />
    <glyph glyph-name="uni24D0" unicode="&#x24d0;" horiz-adv-x="642" 
d="M115 452h412v-132q0 -54 14 -63q10 -6 29.5 4t59.5 38v-142q-66 46 -84 44q-19 -3 -19 -51v-150h-412v150q0 46 -17 50q-18 5 -86 -43v141q36 -25 55.5 -35t29.5 -8q18 5 18 65v132zM362 405q-8 -1 -18 -8t-19 -17.5t-20 -26t-19 -28t-17.5 -27.5t-13.5 -21v-229h31v48
q0 135 71 25v-73h30v311q0 23 -7.5 34.5t-17.5 11.5zM336 360q21 -1 21 -75v-149q-47 72 -71 79v94q29 51 50 51zM336 360z" />
    <glyph glyph-name="uni24D1" unicode="&#x24d1;" horiz-adv-x="642" 
d="M115 452h412v-132q0 -54 14 -63q7 -2 13 -2t18.5 7t25 14.5t32.5 22.5v-142q-66 46 -84 44q-19 -3 -19 -51v-150h-412v150q0 46 -17 50q-18 5 -86 -43v141q24 -17 38.5 -26t27 -14t19.5 -3q18 5 18 65v132zM285 405l-30 -33v-144v0q0 -33 9.5 -42.5t23.5 1.5
q-9 -13 -33 -50v-43v0q0 -46 18 -47q29 0 109 120q4 6 5 9v43v1q0 32 -9.5 41.5t-24.5 -1.5q8 11 34 50v49v0q0 45 -18 46q-25 1 -84 -83v83zM341 363q15 1 16 -44v-41q-17 -26 -26 -37q-5 -5 -10 -12q-30 -27 -34 33q-1 13 -1 29v18q37 54 55 54zM344 232q12 1 13 -36v-53
q-38 -58 -55 -49q-14 7 -16 50v26q44 62 58 62zM344 232z" />
    <glyph glyph-name="uni24D2" unicode="&#x24d2;" horiz-adv-x="642" 
d="M115 452h412v-132q0 -54 14 -63q10 -6 29.5 4t59.5 38v-142q-66 46 -84 44q-19 -3 -19 -51v-150h-412v150q0 46 -17 50q-18 5 -86 -43v141q36 -25 55.5 -35t29.5 -8q18 5 18 65v132zM362 405q-9 -1 -21 -10t-24.5 -26t-22.5 -31.5t-22.5 -34.5t-16.5 -26v-101
q4 -6 17 -27t22.5 -35.5t23 -31.5t25 -26t20.5 -8q19 1 24 46l-30 73q0 -74 -22 -74q-17 -1 -50 50v166q33 51 50 51q22 -1 22 -75l30 74q-5 46 -25 46zM362 405z" />
    <glyph glyph-name="uni24D3" unicode="&#x24d3;" horiz-adv-x="642" 
d="M115 452h412v-132q0 -54 14 -63q10 -6 29.5 4t59.5 38v-142q-66 46 -84 44q-19 -3 -19 -51v-150h-412v150q0 46 -17 50q-18 5 -86 -43v141q36 -25 55.5 -35t29.5 -8q18 5 18 65v132zM357 405v-35q-31 -16 -102 -125v-149v-1q0 -45 17 -46q25 -1 85 83v-84h31v357h-31z
M329 319q13 0 20 -19.5t7 -45.5v-109q-35 -55 -53 -50q-18 6 -18 74v109q25 41 44 41zM329 319z" />
    <glyph glyph-name="uni24D4" unicode="&#x24d4;" horiz-adv-x="642" 
d="M115 452h412v-132q0 -54 14 -63q10 -6 29.5 4t59.5 38v-142q-66 46 -84 44q-19 -3 -19 -51v-150h-412v150q0 46 -17 50q-18 5 -86 -43v141q36 -25 55.5 -35t29.5 -8q18 5 18 65v132zM362 405q-9 -1 -21 -10t-24.5 -26t-22.5 -31.5t-22.5 -34.5t-16.5 -26v-101
q4 -6 17 -27t22.5 -35.5t23 -31.5t25 -26t20.5 -8q19 1 24 46l-30 73q0 -69 -19 -74q-17 -5 -53 50v57q34 52 51 50q21 -2 21 -74l30 73q-6 48 -26 46l26 64q-5 46 -25 46zM335 360h1q19 -1 20 -66q-24 -7 -71 -79v94q33 51 50 51zM335 360z" />
    <glyph glyph-name="uni24D5" unicode="&#x24d5;" horiz-adv-x="642" 
d="M115 452h412v-132q0 -54 14 -63q7 -2 13 -2t18.5 7t25 14.5t32.5 22.5v-142q-66 46 -84 44q-19 -3 -19 -51v-150h-412v150q0 46 -17 50q-18 5 -86 -43v141q36 -25 55.5 -35t29.5 -8q18 5 18 65v132zM362 405q-8 -1 -18 -8t-19 -17.5t-20 -26t-19 -28t-17.5 -27.5
t-13.5 -21v-229h30v113q35 54 53 50q19 -5 19 -75l30 74q-5 43 -22 46q-15 2 -35 -20.5t-45 -59.5v133q32 50 49 51q23 1 23 -75l30 74q-5 46 -25 46zM362 405z" />
    <glyph glyph-name="uni24D6" unicode="&#x24d6;" horiz-adv-x="642" 
d="M115 452h412v-132q0 -54 14 -63q10 -6 29.5 4t59.5 38v-142q-66 46 -84 44q-19 -3 -19 -51v-150h-412v150q0 46 -17 50q-18 5 -86 -43v141q24 -17 38.5 -26t27 -14t19.5 -3q18 5 18 65v132zM362 405q-9 0 -21 -9.5t-24.5 -26.5t-22.5 -31.5t-22.5 -34.5t-16.5 -26v-105
q83 -124 113 -125q19 0 19 47v159q-20 -14 -32.5 -22t-24.5 -14.5t-19 -7t-13 2t-8.5 10.5t-4.5 21v67q72 110 72 -25l30 74q-5 46 -25 46zM357 210v-42q0 -135 -72 -25v53q21 1 72 14zM357 210z" />
    <glyph glyph-name="uni24D7" unicode="&#x24d7;" horiz-adv-x="642" 
d="M115 453l412 -1v-132q0 -54 14 -63q10 -6 29.5 4t59.5 38v-142q-66 46 -84 44q-19 -3 -19 -51v-150h-412v150q0 46 -17 50q-18 5 -86 -43v142q37 -26 56 -36t29 -8q18 5 18 65v133zM255 405v-357h31v49q0 69 18 74q17 5 53 -50v-73h30v357h-30v-268q-47 72 -71 79l-1 189
h-30zM255 405z" />
    <glyph glyph-name="uni24D8" unicode="&#x24d8;" horiz-adv-x="642" 
d="M115 452h412v-132q0 -54 14 -63q10 -6 29.5 4t59.5 38v-142q-66 46 -84 44q-19 -3 -19 -51v-150h-412v150q0 46 -17 50q-18 5 -86 -43v141q36 -25 55.5 -35t29.5 -8q18 5 18 65v132zM336 405l-30 -32v-326h30v358zM336 405z" />
    <glyph glyph-name="uni24D9" unicode="&#x24d9;" horiz-adv-x="642" 
d="M115 452h412v-132q0 -54 14 -63q10 -6 29.5 4t59.5 38v-142q-66 46 -84 44q-19 -3 -19 -51v-150h-412v150q0 46 -17 50q-18 5 -86 -43v141q68 -47 85 -43q18 5 18 65v132zM356 404v-260q-31 -49 -48 -51q-23 -2 -23 75l-30 -74q5 -45 24 -46q9 0 21 9t25 26t23 31.5
t22.5 35t16.5 26.5v228h-31zM356 404z" />
    <glyph glyph-name="uni24DA" unicode="&#x24da;" horiz-adv-x="642" 
d="M115 453l412 -1v-132q0 -54 14 -63q10 -6 29.5 4t59.5 38v-142q-66 46 -84 44q-19 -3 -19 -51v-150h-412v150q0 46 -17 50q-18 5 -86 -43v142q37 -26 56 -36t29 -8q18 5 18 65v133zM255 405v-357h31v97q2 48 18 52q17 5 52 -50v-99h31v67q-4 5 -15.5 24t-21 32.5
t-21.5 30t-23 27t-20 13.5v54q47 -74 77 -80q24 -5 24 45v144h-30v-70q0 -69 -19 -74q-17 -5 -52 50l-1 94h-30zM255 405z" />
    <glyph glyph-name="uni24DB" unicode="&#x24db;" horiz-adv-x="642" 
d="M115 452h412v-132q0 -54 14 -63q10 -6 29.5 4t59.5 38v-142q-66 46 -84 44q-19 -3 -19 -51v-150h-412v150q0 46 -17 50q-18 5 -86 -43v141q36 -25 55.5 -35t29.5 -8q18 5 18 65v132zM255 404v-228q4 -6 16.5 -26t22 -34.5t22.5 -31.5t24.5 -26t21.5 -10q20 0 25 46
l-30 74q0 -71 -20 -75q-17 -2 -52 51v260h-30zM255 404z" />
    <glyph glyph-name="uni24DC" unicode="&#x24dc;" horiz-adv-x="642" 
d="M115 453l412 -1v-132q0 -54 14 -63q10 -6 29.5 4t59.5 38v-142q-66 46 -84 44q-19 -3 -19 -51v-150h-412v150q0 46 -17 50q-18 5 -86 -43v141l30 -20t23 -14t19 -8t13 -1q18 5 18 65v133zM312 405q-27 -1 -67.5 -51t-40.5 -76v-230h31v262q33 51 50 49q21 -2 21 -73v-238
h30v262q31 48 52 44q22 -4 19 -68v-238h31v312v0q0 47 -25 45q-15 -2 -36 -23.5t-41 -55.5v34v0q0 42 -20 45h-4zM312 405z" />
    <glyph glyph-name="uni24DD" unicode="&#x24dd;" horiz-adv-x="642" 
d="M115 452h412v-132q0 -54 14 -63q10 -6 29.5 4t59.5 38v-142q-66 46 -84 44q-19 -3 -19 -51v-150h-412v150q0 46 -17 50q-18 5 -86 -43v141q24 -17 38.5 -26t27 -14t19.5 -3q18 5 18 65v132zM255 405v-357h31v261q31 50 48 51q23 1 23 -75v-237h30v311q0 22 -7.5 34
t-17.5 12q-25 -1 -76 -80v80h-31zM255 404z" />
    <glyph glyph-name="uni24DE" unicode="&#x24de;" horiz-adv-x="642" 
d="M115 453l412 -1v-132q0 -54 14 -63q10 -6 29.5 4t59.5 38v-142q-66 46 -84 44q-19 -3 -19 -51v-150h-412v150q0 46 -17 50q-18 5 -86 -43v142q68 -48 85 -44q18 5 18 65v133zM369 406h-1q-30 -2 -109 -122q-3 -4 -4 -6v-184v-1q0 -40 14 -45q9 -4 24 7t33 34.5t29 38.5
t27 39q4 6 5 9v184q0 45 -18 46zM328 351h2q9 -1 15 -10.5t8.5 -23.5t2.5 -31v-143q-37 -58 -54 -49t-17 73v143q25 41 43 41zM328 351z" />
    <glyph glyph-name="uni24DF" unicode="&#x24df;" horiz-adv-x="642" 
d="M115 453l412 -1v-132q0 -54 14 -63q10 -6 29.5 4t59.5 38v-142q-66 46 -84 44q-19 -3 -19 -51v-150h-412v150q0 46 -17 50q-18 5 -86 -43v142q36 -26 55.5 -36t29.5 -8q18 5 18 65v133zM273 404q-18 0 -18 -46v0v-310l30 33v137q65 -91 89 -81q13 7 13 45v0v94q-1 3 -5 8
q-15 23 -25.5 37.5t-28 37t-31.5 34.5t-24 11zM307 359q17 0 49 -50v-88q-2 -38 -16 -39q-17 -2 -55 50v52q0 74 21 75h1zM307 359z" />
    <glyph glyph-name="uni24E0" unicode="&#x24e0;" horiz-adv-x="642" 
d="M115 453l412 -1v-132q0 -54 14 -63q10 -6 29.5 4t59.5 38v-142q-66 46 -84 44q-19 -3 -19 -51v-150h-412v150q0 46 -17 50q-18 5 -86 -43v142q36 -26 55.5 -36t29.5 -8q18 5 18 65v133zM368 404q-29 -1 -108 -120l-1.5 -3t-2 -2.5t-1.5 -2.5v-94v0q0 -41 15 -45
q25 -7 87 81v-137l30 -33v310v0q0 46 -18 46h-1zM335 359h1q21 -1 21 -75v-52q-42 -57 -58 -50q-12 5 -13 39v88q32 50 49 50zM335 359z" />
    <glyph glyph-name="uni24E1" unicode="&#x24e1;" horiz-adv-x="642" 
d="M115 453l412 -1v-132q0 -54 14 -63q10 -6 29.5 4t59.5 38v-142q-66 46 -84 44q-19 -3 -19 -51v-150h-412v150q0 46 -17 50q-18 5 -86 -43v142q36 -26 55.5 -36t29.5 -8q18 5 18 65v133zM273 405q-18 0 -18 -44v0v-313h30v69q3 53 21 53q17 1 50 -50v-72h31v39
q-4 6 -15.5 24.5t-21 32.5t-21.5 30t-23 26.5t-21 13.5v39q57 -86 81 -79q16 4 21 45v0v60q-1 1 -11.5 16.5t-16 23.5t-17 23t-19.5 24t-18 19t-18 15t-14 5zM308 359q9 -1 19 -11.5t30 -36.5v-34q0 -69 -19 -69q-14 1 -50 57q-2 2 -2 4v18q0 72 22 72zM308 359z" />
    <glyph glyph-name="uni24E2" unicode="&#x24e2;" horiz-adv-x="642" 
d="M115 453l412 -1v-132q0 -54 14 -63q10 -6 29.5 4t59.5 38v-142q-66 46 -84 44q-19 -2 -19 -51v-150h-412v150q0 46 -17 50q-18 5 -86 -43v142q36 -26 55.5 -36t29.5 -8q18 5 18 65v133zM360 404q-9 0 -20.5 -9t-24.5 -26t-23 -31.5t-22.5 -35t-16.5 -25.5v-55
q37 26 61 29q44 6 42 -62l-1 -46q-36 -56 -53.5 -49.5t-17.5 74.5l-31 -74q5 -42 22 -46q9 -1 21 7.5t25.5 26t23.5 32t23.5 35.5t17.5 27l1 14q7 50 -16 71t-87 4v44q33 51 50 51q21 -1 21 -75l31 74q-6 46 -26 45zM360 404z" />
    <glyph glyph-name="uni24E3" unicode="&#x24e3;" horiz-adv-x="642" 
d="M115 453l412 -1v-132q0 -54 14 -63q10 -6 29.5 4t59.5 38v-142q-66 46 -84 44q-19 -3 -19 -51v-150h-412v150q0 46 -17 50q-18 5 -86 -43v142q68 -48 85 -44q18 5 18 65v133zM413 405q-8 0 -17.5 -7.5t-18 -17t-20.5 -26t-18.5 -26.5t-17.5 -27q-24 39 -54 73t-48 30
q-15 -4 -15 -45l30 -74q0 67 17.5 74t53.5 -50v-261h31v261q35 53 52 51q19 -4 19 -75l31 74q-5 44 -24 46h-1zM413 405z" />
    <glyph glyph-name="uni24E4" unicode="&#x24e4;" horiz-adv-x="642" 
d="M115 453l412 -1v-132q0 -54 14 -63q10 -6 29.5 4t59.5 38v-142q-66 46 -84 44q-19 -3 -19 -51v-150h-412v150q0 46 -17 50q-18 5 -86 -43v141q36 -25 55.5 -35t29.5 -8q18 5 18 65v133zM255 405v-311v-1q5 -46 25 -45q25 0 77 80v-80h30v357h-30v-262q-32 -49 -49 -50
q-23 -2 -23 74v238h-30zM255 405z" />
    <glyph glyph-name="uni24E5" unicode="&#x24e5;" horiz-adv-x="642" 
d="M115 453l412 -1v-132q0 -54 14 -63q10 -6 29.5 4t59.5 38v-142q-66 46 -84 44q-19 -3 -19 -51v-150h-412v150q0 46 -17 50q-18 5 -86 -43v142q36 -26 55.5 -36t29.5 -8q18 5 18 65v133zM229 405q-20 0 -25 -46l31 -74q0 74 20 75q18 1 51 -51v-133q4 -6 16.5 -26
t22.5 -34.5t22.5 -31.5t24.5 -26.5t21 -9.5q20 0 25 46v0v310h-30v-236q0 -76 -23 -75q-17 1 -49 50v134q-4 6 -16.5 26t-22.5 34.5t-22.5 31.5t-24.5 26t-21 10zM229 405z" />
    <glyph glyph-name="uni24E6" unicode="&#x24e6;" horiz-adv-x="642" 
d="M115 453l412 -1v-132q0 -54 14 -63q10 -6 29.5 4t59.5 38v-142q-66 46 -84 44q-19 -3 -19 -51v-150h-412v150q0 46 -17 50q-18 5 -86 -43v142q36 -26 55.5 -36t29.5 -8q18 5 18 65v133zM204 393v-288q0 -46 25 -46q13 1 31.5 20.5t30 37t30.5 46.5q11 -17 17.5 -27
t18.5 -26.5t20 -26t18 -16.5t18 -8q6 0 11.5 4.5t9.5 15t4 26.5v288h-30v-214q0 -76 -23 -75q-17 1 -49 51v238h-30v-238q-32 -50 -49 -51q-23 -1 -23 75v214h-30zM204 393z" />
    <glyph glyph-name="uni24E7" unicode="&#x24e7;" horiz-adv-x="642" 
d="M115 453l412 -1v-132q0 -54 14 -63q10 -6 29.5 4t59.5 38v-142q-66 46 -84 44q-19 -2 -19 -51v-150h-412v150q0 46 -17 50q-18 5 -86 -43v142q36 -26 55.5 -36t29.5 -8q18 5 18 65v133zM413 394q-9 0 -21 -9.5t-26 -28t-22.5 -31.5t-22.5 -35q-14 22 -23 35t-23 31.5
t-25.5 28t-21.5 9.5q-19 -1 -24 -46l31 -74q0 67 17.5 74t53.5 -50v-60h-60l9 -15l-9 -16h60v-53q-36 -56 -53.5 -49.5t-17.5 74.5l-31 -74q5 -45 24 -46q10 0 21.5 9t25.5 27.5t23 32t23 35.5q9 -15 15 -23.5t16 -23t17.5 -23.5t16 -18t16 -13t14.5 -3q17 3 22 46l-31 74
q0 -75 -21 -75q-17 0 -50 50v53h60l-9 16l9 15h-60v60q33 51 50 51q21 0 21 -75l31 74q0 14 -6.5 29.5t-18.5 16.5zM413 394z" />
    <glyph glyph-name="uni24E8" unicode="&#x24e8;" horiz-adv-x="642" 
d="M115 453l412 -1v-132q0 -54 14 -63q10 -6 29.5 4t59.5 38v-142q-66 46 -84 44q-19 -3 -19 -51v-150h-412v150q0 46 -17 50q-18 5 -86 -43v142q68 -48 85 -44q18 5 18 65v133zM330 405q-19 -1 -24 -46l30 -74q0 74 21 75q18 1 50 -51v-92q-38 -61 -56 -48q-15 10 -15 72
v32q-3 6 -16.5 27t-23.5 35.5t-23.5 32t-25 26t-20.5 7.5q-18 -3 -23 -46l31 -74q0 71 19 75q17 3 52 -50v-139q5 -46 25 -45q25 0 76 79v-153h31v229q-4 6 -17 26.5t-22.5 35t-22.5 31.5t-25 26t-21 9zM330 405z" />
    <glyph glyph-name="uni24E9" unicode="&#x24e9;" horiz-adv-x="642" 
d="M115 453l412 -1v-132q0 -54 14 -63q10 -6 29.5 4t59.5 38v-142q-66 46 -84 44q-19 -3 -19 -51v-150h-412v150q0 46 -17 50q-18 5 -86 -43v142q36 -26 55.5 -36t29.5 -8q18 5 18 65v133zM281 404q-19 0 -25 -45l31 -74q0 74 21 75q17 0 50 -51v-44q-64 17 -87 -4t-16 -71
l1 -14q4 -6 17.5 -27t23.5 -35.5t23.5 -32t25.5 -26t21 -7.5q17 4 22 46l-31 74q0 -68 -17.5 -74.5t-53.5 49.5l-1 46q-2 68 42 62q24 -3 61 -29v55q-4 5 -16.5 25.5t-22.5 35t-23 31.5t-24.5 26t-20.5 9h-1zM281 404z" />
    <glyph glyph-name="uniE00E" unicode="&#xe00e;" 
d="M27 469q71 -111 71 24l31 -73q-12 -99 -93 20q-4 6 -9 14v15zM119 357q10 0 17.5 -11.5t7.5 -34.5v-311h-30v73q-71 111 -71 -24v-49h-31v229q4 6 16.5 26t22.5 34.5t22.5 31.5t24.5 26.5t21 9.5zM92 312q-20 0 -49 -51v-94q24 -7 71 -78v148q0 74 -22 75zM92 312z" />
    <glyph glyph-name="uniE00F" unicode="&#xe00f;" 
d="M119 357q10 0 17.5 -11.5t7.5 -34.5v-311h-30v73q-71 111 -71 -24v-49h-31v229q4 6 16.5 26t22.5 34.5t22.5 31.5t24.5 26.5t21 9.5zM92 312q-20 0 -49 -51v-94q24 -7 71 -78v148q0 74 -22 75zM129 469v-15q-73 -113 -94 -66q-5 12 -8 32l31 73q0 -135 71 -24zM129 469z
" />
    <glyph glyph-name="uniE010" unicode="&#xe010;" horiz-adv-x="157" 
d="M119 357q10 0 18 -11.5t8 -34.5v-311h-31v73q-71 111 -71 -24v-49h-31v229q4 6 17 26t22.5 34.5t22.5 31.5t24.5 26.5t20.5 9.5zM93 312q-21 0 -50 -51v-94q24 -7 71 -78v148q0 74 -21 75zM124 420v-46h-31v78zM33 420l31 32v-78h-31v46zM33 420z" />
    <glyph glyph-name="uniE011" unicode="&#xe011;" horiz-adv-x="227" 
d="M154 357q10 0 18 -11.5t8 -34.5v-311h-31v73q-71 111 -71 -24v-49h-31v229q4 6 14 21.5t17.5 27.5t18.5 27.5t20.5 26t19.5 18t17 7.5zM128 312q-21 0 -50 -51v-94q24 -7 71 -78v148q0 74 -21 75zM42 477q0 -135 72 -24q71 -111 71 24l30 -74q-12 -98 -92 20q-5 7 -9 14
q-74 -112 -95 -65q-5 11 -7 31zM42 477z" />
    <glyph glyph-name="uniE012" unicode="&#xe012;" horiz-adv-x="257" 
d="M220 494q20 0 26 -46l-31 -74q0 69 -18 74t-53 -50q-4 -5 -17.5 -27t-23.5 -36.5t-23.5 -32t-25.5 -25.5t-21 -6q-17 4 -22 45l31 74q0 -58 13 -71q17 -17 58 47q4 6 16.5 26t22.5 34.5t23 31.5t24.5 26t20.5 10zM169 357q10 0 18 -11.5t8 -34.5v-311h-31v73
q-71 111 -71 -24v-49h-31v229q4 6 17 26t22.5 34.5t22.5 31.5t24.5 26.5t20.5 9.5zM143 312q-21 0 -50 -51v-94q24 -7 71 -78v148q0 74 -21 75zM143 312z" />
    <glyph glyph-name="uniE013" unicode="&#xe013;" 
d="M27 469q71 -111 71 24l31 -74q-12 -98 -93 20q-4 7 -9 14v16zM119 357q20 0 25 -46l-26 -64q20 2 26 -45l-30 -74q0 72 -21 74q-17 2 -51 -50v-57q36 -55 53 -50q19 6 19 75l30 -74q-3 -23 -9 -34t-15 -12t-20.5 8t-25 26.5t-23 31.5t-22.5 35t-17 27v101q3 5 9.5 15
t12.5 19.5t13.5 21t14.5 21t15 19.5t15 16.5t14 11t13 4.5zM93 312q-18 1 -51 -51v-94q47 72 71 79q-1 65 -20 66zM93 312z" />
    <glyph glyph-name="uniE014" unicode="&#xe014;" 
d="M129 469v-16q-73 -112 -94 -65q-5 11 -8 31l31 74q0 -135 71 -24zM119 357q20 0 25 -46l-26 -64q20 2 26 -45l-30 -74q0 72 -21 74q-17 2 -51 -50v-57q36 -55 53 -50q19 6 19 75l30 -74q-5 -45 -24 -46q-9 -1 -20.5 8t-25 26.5t-23 31.5t-22.5 35t-17 27v101q4 6 16.5 26
t22.5 34.5t22.5 31.5t24.5 26.5t21 9.5zM93 312q-18 1 -51 -51v-94q47 72 71 79q-1 65 -20 66zM93 312z" />
    <glyph glyph-name="uniE015" unicode="&#xe015;" 
d="M123 419v-46h-31v79zM33 419l31 33v-79h-31v46zM119 357q20 0 25 -46l-26 -64q20 2 26 -45l-30 -74q0 72 -21 74q-17 2 -51 -50v-57q36 -55 53 -50q19 6 19 75l30 -74q-3 -23 -9 -34t-15 -12t-20.5 8t-25 26.5t-23 31.5t-22.5 35t-17 27v101q3 5 9.5 15t12.5 19.5
t13.5 21t14.5 21t15 19.5t15 16.5t14 11t13 4.5zM93 312q-18 1 -51 -51v-94q47 72 71 79q-1 65 -20 66zM93 312z" />
    <glyph glyph-name="uniE016" unicode="&#xe016;" horiz-adv-x="227" 
d="M42 477q0 -135 72 -25q71 -110 71 25l30 -74q-12 -99 -92 20l-9 14q-74 -113 -95 -65q-5 11 -7 31zM154 357q20 0 26 -46l-27 -64q21 2 27 -45l-31 -74q0 72 -20 74q-18 2 -51 -50v-57q35 -55 53 -50q18 6 18 75l31 -74q-3 -23 -9 -34t-15 -12t-21 8t-25 26.5t-23 31.5
t-23 35t-17 27v101q4 6 17 26t22.5 34.5t22.5 31.5t24.5 26.5t20.5 9.5zM128 312q-17 1 -50 -51v-94q47 72 71 79q-1 65 -21 66zM128 312z" />
    <glyph glyph-name="uniE017" unicode="&#xe017;" horiz-adv-x="257" 
d="M220 493q20 0 26 -46l-31 -74q0 69 -18 74q-18 6 -53 -49q-4 -6 -17.5 -27.5t-23.5 -36.5t-23.5 -32t-25.5 -25.5t-21 -6.5q-17 4 -22 45l31 74q0 -58 13 -71q17 -17 58 47q4 6 16.5 26t22.5 34.5t23 31.5t24.5 26.5t20.5 9.5zM169 357q20 0 26 -46l-27 -64q21 2 27 -45
l-31 -74q0 72 -20 74q-18 2 -51 -50v-57q35 -55 53 -50q18 6 18 75l31 -74q-6 -45 -24 -46q-9 -1 -21 8t-25 26.5t-23 31.5t-23 35t-17 27v101q4 6 17 26t22.5 34.5t22.5 31.5t24.5 26.5t20.5 9.5zM143 312q-17 1 -50 -51v-94q47 72 71 79q-1 65 -21 66zM143 312z" />
    <glyph glyph-name="uniE018" unicode="&#xe018;" horiz-adv-x="125" 
d="M12 446q71 -110 71 25l30 -74q-12 -99 -92 20q-5 6 -9 14v15zM47 302l31 32v-334h-31v302zM47 302z" />
    <glyph glyph-name="uniE019" unicode="&#xe019;" horiz-adv-x="125" 
d="M113 446v-15q-73 -112 -94 -65q-5 11 -7 31l30 74q0 -135 71 -25zM47 302l31 32v-334h-31v302zM47 302z" />
    <glyph glyph-name="uniE01A" unicode="&#xe01a;" horiz-adv-x="56" 
d="M13 127v230h30v-263zM13 46l30 32v-78h-30v46z" />
    <glyph glyph-name="uniE01B" unicode="&#xe01b;" horiz-adv-x="258" 
d="M119 411q20 1 26 -45l-31 -74q0 70 -20 74q-18 4 -52 -50v-32q0 -55 14 -62.5t58 21.5v34l31 32v-70q55 85 80 79q17 -4 22 -45l-31 -74q0 73 -21 75q-17 1 -50 -50v-129q33 -52 50 -50q21 2 21 74l31 -73q-3 -23 -9 -34t-14 -12q-9 -1 -21 7.5t-25.5 26t-23.5 32
t-23 35.5t-17 27v37q-42 28 -57 22.5t-15 -50.5v-42q34 -54 52 -50q20 4 20 74l31 -73q-6 -44 -23 -46q-9 -1 -21 7.5t-25.5 26t-23.5 31.5t-23.5 35.5t-17.5 27.5v8v4q0 14 0.5 20.5t1.5 16t3.5 12.5t7.5 7.5t12 4t18.5 -1t25.5 -4l34 -8.5v34q-20 -6 -34 -9t-25.5 -4
t-18.5 -1t-12 4.5t-7.5 7t-3.5 12.5t-1.5 16.5t-0.5 21.5v14q4 6 17 26.5t22.5 34.5t23 31t25 26.5t20.5 9.5zM119 411z" />
    <glyph glyph-name="uniE01C" unicode="&#xe01c;" 
d="M12 284q1 2 4 6q80 122 109 122q19 0 19 -46v0v-238q-1 -3 -5 -8q-16 -24 -26.5 -39t-29 -38.5t-33 -34.5t-23.5 -8q-15 4 -15 46v0v238zM114 292q-1 17 -3.5 31t-9 24t-14.5 10q-19 2 -45 -41v-196q0 -37 5 -54.5t14 -20.5q17 -5 53 50v197zM114 292z" />
    <glyph glyph-name="uniE01D" unicode="&#xe01d;" horiz-adv-x="56" 
d="M28 404l15 9v-413l-15 9l-15 -9v413zM28 404z" />
    <glyph glyph-name="uniE01E" unicode="&#xe01e;" horiz-adv-x="157" 
d="M39 413q7 0 17 -7.5t19 -18t20.5 -26t19 -27.5t17.5 -27.5t14 -21.5v-47q-43 30 -67 29q-27 -1 -33.5 -41.5t-1.5 -130.5q35 -55 53 -50q18 6 18 75l31 -74q-6 -45 -24 -46q-9 -1 -21 8t-25 26.5t-23 31.5t-23 35t-17 27q0 13 -0.5 31.5t-1 30.5t0 26.5t2 24t5 19
t9.5 15.5q23 23 87 6v37q-35 54 -52 50q-19 -5 -19 -75l-31 74q6 46 26 46zM39 413z" />
    <glyph glyph-name="uniE01F" unicode="&#xe01f;" 
d="M37 411q9 0 21 -9.5t24.5 -26.5t22.5 -31.5t22.5 -34.5t16.5 -26v-155q-3 -6 -17 -27.5t-24 -36t-23.5 -32t-25 -26t-20.5 -6.5q-17 4 -22 45l30 74q0 -69 19 -74q17 -5 53 50v83q-36 55 -53 50q-19 -5 -19 -74l-30 74q5 43 23 45q15 2 35 -20.5t44 -58.5v122
q-33 50 -50 50q-22 0 -22 -75l-30 74q5 46 25 46zM37 411z" />
    <glyph glyph-name="uniE020" unicode="&#xe020;" horiz-adv-x="158" 
d="M43 412v-237q0 -68 18 -74t53 50l1 229l30 33v-413h-30v136q-23 -36 -47.5 -60t-39.5 -20q-15 5 -15 45v279zM43 412z" />
    <glyph glyph-name="uniE021" unicode="&#xe021;" horiz-adv-x="157" 
d="M39 0q-20 0 -26 46l31 74q0 -78 23 -75q17 2 48 50v37q-64 -17 -87 6q-9 9 -12.5 26t-4 31t0.5 45t1 45q4 6 17 27t23 35.5t23.5 31.5t25 26t20.5 8q18 -2 24 -46l-31 -74q0 70 -19 75q-17 4 -52 -50q-5 -88 1 -128.5t31 -43.5q24 -3 70 29v-47q-4 -6 -17 -26
t-22.5 -34.5t-22.5 -31.5t-24.5 -26.5t-20.5 -9.5zM39 0z" />
    <glyph glyph-name="uniE022" unicode="&#xe022;" 
d="M30 0q-18 1 -18 44v1v240q3 5 18 28.5t25.5 38.5t24.5 33t26 24.5t21 1.5q13 -8 17 -44l-30 -74q0 71 -20 75q-17 3 -52 -50v-133q52 79 77 80q10 0 17.5 -11.5t7.5 -34.5v-98q-1 -2 -11 -16t-16 -22t-17 -22.5t-19.5 -23.5t-18 -18.5t-18 -14t-14.5 -4.5zM114 94v51
q0 76 -23 75q-17 -1 -49 -50v-52q0 -43 4.5 -60.5t16.5 -15.5q11 1 26 18.5t25 33.5zM114 94z" />
    <glyph glyph-name="uniE023" unicode="&#xe023;" horiz-adv-x="157" 
d="M11 33v142q46 -32 70 -29q25 4 31 44.5t1 127.5q-36 57 -54 50q-17 -8 -17 -74l-31 74q6 42 23 45q9 2 20.5 -6.5t25 -26t23.5 -32t23.5 -36t17.5 -27.5q0 -14 0.5 -36t1 -35t-0.5 -29.5t-4.5 -26t-10 -18t-17.5 -11.5q-24 -9 -71 4v-133zM11 33z" />
    <glyph glyph-name="uniE024" unicode="&#xe024;" horiz-adv-x="171" 
d="M125 425q2 0 3 -1q16 -4 16 -45v-91q-21 -31 -22 -33q13 10 22 8q16 -4 16 -45v-1v-90l-6 -9q-16 -24 -27 -39.5t-30 -39.5t-33.5 -34t-23.5 -5q-13 7 -13 45v0v90q19 28 22 33q-16 -12 -25 -7q-13 7 -13 45v0v91q2 2 5 7q80 122 109 121zM89 370q-22 0 -47 -41v-49
q0 -69 19 -74q11 -3 29 18l1 1q10 11 22 31v68q0 46 -24 46zM105 212q-21 0 -47 -44v-49q0 -36 5 -54.5t14 -20.5q17 -4 52 50v69q0 29 -6 39t-18 10zM104 212z" />
    <glyph glyph-name="uniE025" unicode="&#xe025;" 
d="M126 411q18 -1 18 -45v0v-240q-3 -6 -18 -29.5t-25.5 -38t-24.5 -32.5t-26 -24.5t-21 -1.5q-13 8 -17 43l30 74q0 -71 20 -74q17 -3 52 50v133q-52 -80 -77 -80q-10 0 -17.5 11.5t-7.5 34.5v98q1 2 11 16t16 22t17 22.5t19.5 23.5t18 18.5t18 14t14.5 4.5zM42 317v-52
q0 -75 23 -74q17 1 49 50v52q0 21 -1 35t-3.5 24t-6.5 14t-10 3q-8 -1 -19 -12t-18.5 -21t-13.5 -19zM42 317z" />
    <glyph glyph-name="uniE026" unicode="&#xe026;" 
d="M11 46l31 32v-78h-31v46zM11 129v72q30 -20 50 -26.5t31.5 1.5t16.5 27t5 52v46q-37 59 -54 53q-18 -7 -18 -74l-31 73q5 38 19 45q9 4 21 -3t26.5 -25t24.5 -32.5t25 -38t18 -28.5v-53q0 -43 -22 -59t-81 0v-63zM11 129z" />
    <glyph glyph-name="uniE027" unicode="&#xe027;" horiz-adv-x="157" 
d="M93 312q-21 0 -50 -51v-94q24 -7 71 -78v148q0 74 -21 75zM119 357q10 0 18 -11.5t8 -34.5v-311h-31v73q-71 111 -71 -24v-49h-31v229q4 6 14 21.5t17.5 27.5t18.5 27.5t20.5 26t19.5 18t17 7.5z" />
    <glyph glyph-name="uniE028" unicode="&#xe028;" horiz-adv-x="157" 
d="M102 185q-15 0 -59 -62v-26q3 -44 16 -50q18 -9 55 49v52q0 37 -12 37zM98 316q-17 0 -55 -54v-19q0 -72 21 -70q7 2 14 9q6 6 11 12q8 10 25 36v42q0 44 -16 44zM43 357v-82q58 83 84 82q18 -1 18 -46v-48q-26 -39 -35 -51q15 12 25 2.5t10 -42.5v-44q-2 -2 -6 -8
q-80 -120 -108 -120q-19 0 -19 46v1v43q24 36 34 50q-15 -11 -24.5 -1.5t-9.5 42.5v144z" />
    <glyph glyph-name="uniE029" unicode="&#xe029;" 
d="M119 357q20 0 25 -46l-30 -74q0 74 -22 75q-17 0 -50 -51v-166q33 -51 50 -50q22 0 22 75l30 -74q-5 -45 -24 -46q-9 -1 -20.5 8t-25 26.5t-23 31.5t-22.5 35t-17 27v101q4 6 16.5 26t22.5 34.5t22.5 31.5t24.5 26.5t21 9.5z" />
    <glyph glyph-name="uniE02A" unicode="&#xe02a;" horiz-adv-x="157" 
d="M86 271q-18 0 -43 -41v-109q0 -68 18 -74q17 -5 53 50v109q0 27 -7.5 46t-20.5 19zM114 357h31v-357h-31v85q-59 -85 -84 -84q-18 1 -18 47v149q72 109 102 125v35z" />
    <glyph glyph-name="uniE02B" unicode="&#xe02b;" 
d="M93 312q-18 1 -51 -50v-95q47 72 71 79q-1 65 -20 66zM119 357q20 0 25 -46l-26 -64q20 2 26 -45l-30 -74q0 72 -21 74q-17 2 -51 -50v-57q36 -55 53 -50q19 6 19 75l30 -74q-5 -45 -24 -46q-9 -1 -20.5 8t-25 26.5t-23 32t-22.5 35t-17 26.5v101q4 6 13.5 21.5
t17.5 27.5t19 27.5t20 26t19 18t18 7.5z" />
    <glyph glyph-name="uniE02C" unicode="&#xe02c;" 
d="M119 357q20 0 25 -46l-30 -74q0 76 -23 75q-17 -1 -49 -50v-134q25 37 45 59.5t35 20.5q17 -3 22 -46l-30 -74q0 70 -19 75q-18 4 -53 -50v-113h-30v229q4 6 16.5 26t22.5 34.5t22.5 31.5t24.5 26.5t21 9.5z" />
    <glyph glyph-name="uniE02D" unicode="&#xe02d;" 
d="M114 162q-51 -13 -72 -13v-53q72 -111 72 24v42zM119 357q20 0 25 -46l-30 -73q0 134 -72 24v-67q2 -13 4.5 -21t8.5 -10.5t13 -2t19 7t24.5 14.5t32.5 22v-159q0 -120 -129 74l-3 4v105q4 6 11.5 18t14.5 23t15.5 24t17 23.5t17 20t16.5 14.5t15 5z" />
    <glyph glyph-name="uniE02E" unicode="&#xe02e;" horiz-adv-x="158" 
d="M13 357h30l1 -189q24 -7 71 -79v268h30v-357h-30v74q-36 55 -53 49q-18 -5 -18 -74v-49h-31v357zM13 357z" />
    <glyph glyph-name="uniE02F" unicode="&#xe02f;" horiz-adv-x="56" 
d="M13 325l30 33v-358h-30v325z" />
    <glyph glyph-name="uniE030" unicode="&#xe030;" 
d="M144 128q-4 -6 -16.5 -26.5t-22.5 -35t-23 -31.5t-25 -26t-21 -9q-19 1 -24 46l30 74q0 -77 23 -75q17 2 49 50v261h30v-228z" />
    <glyph glyph-name="uniE031" unicode="&#xe031;" 
d="M12 357h30l1 -94q35 -55 52 -50q19 6 19 74v70h30v-143q0 -76 -51 -29q-24 23 -50 63v-54q9 -3 20 -13.5t23 -27t21.5 -30t21 -32t15.5 -24.5v-67h-31v100q-35 54 -53 50q-15 -5 -17 -53v-97h-31v357zM12 357z" />
    <glyph glyph-name="uniE032" unicode="&#xe032;" 
d="M12 128v228h30v-261q35 -53 52 -50q20 3 20 75l30 -74q-5 -47 -25 -46q-10 0 -21.5 9.5t-24.5 26.5t-22.5 31.5t-22 34.5t-16.5 26z" />
    <glyph glyph-name="uniE033" unicode="&#xe033;" horiz-adv-x="258" 
d="M12 0v230q0 28 42.5 79.5t69.5 47.5q20 -3 20 -45v-34q20 35 41 56t36 23q25 3 25 -45v-312h-31v238q3 64 -19 68q-21 4 -52 -43v-263h-30v238q0 71 -21 74q-17 2 -50 -49v-263h-31z" />
    <glyph glyph-name="uniE034" unicode="&#xe034;" horiz-adv-x="158" 
d="M145 0h-30v237q0 76 -23 75q-17 -1 -49 -51v-261h-30v357h30v-80q52 79 77 80q6 0 11.5 -4.5t9.5 -15.5t4 -26v-311z" />
    <glyph glyph-name="uniE035" unicode="&#xe035;" 
d="M114 238q0 17 -3 31t-9 24t-15 10q-19 3 -45 -41v-143q0 -64 17 -73t55 49v143zM12 230q1 2 4 7q79 119 109 121q19 1 19 -46v-184q-1 -3 -5 -9q-16 -23 -27 -38.5t-29 -39t-33 -34t-24 -7.5q-14 5 -14 46v184z" />
    <glyph glyph-name="uniE036" unicode="&#xe036;" horiz-adv-x="157" 
d="M64 311q-21 -1 -21 -75v-53q38 -51 55 -50q14 1 16 40v87q-33 52 -50 51zM30 356q10 1 24.5 -11t32 -34.5t27.5 -37t25 -37.5q4 -6 6 -8v-94q0 -39 -14 -45q-24 -11 -88 81v-137l-31 -33v310q0 45 18 46z" />
    <glyph glyph-name="uniE037" unicode="&#xe037;" horiz-adv-x="157" 
d="M93 311q-17 1 -50 -51v-87q2 -34 13 -39q17 -7 58 49v53q0 74 -21 75zM127 356q18 -1 18 -46v-310l-31 33v137q-62 -88 -86 -81q-16 4 -16 45v94q2 2 6 8q9 15 15.5 23.5t18 25.5t20.5 27.5t19.5 21.5t19.5 16.5t16 5.5z" />
    <glyph glyph-name="uniE038" unicode="&#xe038;" horiz-adv-x="157" 
d="M66 311q-23 0 -23 -72v-18q1 -2 4 -6q34 -54 49 -54q18 -1 18 68v34q-20 27 -30 37.5t-18 10.5zM30 357q5 0 11.5 -3t13 -9t13.5 -13t15 -17t14.5 -18t14.5 -19t12.5 -17.5t11.5 -16.5t9 -13v-59v-1q-5 -40 -21 -45q-25 -7 -81 80v-40q11 -3 27 -20.5t26.5 -33t27.5 -42
t20 -31.5v-39h-31v72q-14 22 -26.5 36.5t-23.5 13.5q-17 0 -20 -52v-70h-31v313q0 44 18 44z" />
    <glyph glyph-name="uniE039" unicode="&#xe039;" horiz-adv-x="159" 
d="M119 356q19 0 25 -46l-31 -74q0 74 -21 75q-17 1 -50 -50v-45q65 18 88 -3t16 -72l-2 -13q-4 -6 -17.5 -27.5t-23.5 -36t-23.5 -32t-25 -26t-20.5 -6.5q-17 3 -22 45l30 74q0 -67 17.5 -73.5t53.5 49.5l2 45q1 68 -43 63q-24 -4 -60 -29v54q3 6 16 26t22.5 34.5
t22.5 31.5t24.5 26.5t21.5 9.5z" />
    <glyph glyph-name="uniE03A" unicode="&#xe03a;" horiz-adv-x="258" 
d="M12 311q0 41 16 45q17 4 47 -30t54 -73q9 14 14.5 22.5t15.5 23t17 23t16 18t16.5 13.5t13.5 4q19 -2 24 -46l-30 -74q0 71 -20 75q-17 2 -52 -51v-261h-30v261q-37 57 -54.5 50t-17.5 -74z" />
    <glyph glyph-name="uniE03B" unicode="&#xe03b;" horiz-adv-x="158" 
d="M13 357h30v-237q0 -76 23 -75q17 1 49 50v262h30v-357h-30v80q-52 -79 -77 -80q-20 0 -25 46v311z" />
    <glyph glyph-name="uniE03C" unicode="&#xe03c;" horiz-adv-x="259" 
d="M38 357q9 -1 20.5 -10t24.5 -26t22.5 -31.5t22.5 -34.5t17 -26v-134q32 -49 49 -50q22 -1 22 75v236h31v-310q-6 -46 -26 -46q-9 0 -20.5 9.5t-24.5 26.5t-22.5 31.5t-22.5 34.5t-17 26v133q-33 52 -50 51q-21 -1 -21 -75l-31 74q6 46 26 46z" />
    <glyph glyph-name="uniE03D" unicode="&#xe03d;" horiz-adv-x="461" 
d="M138 357q3 0 7.5 -1.5t9.5 -5.5t9.5 -7.5t9.5 -10t9.5 -12t10.5 -13.5t10 -13.5t9.5 -14t8.5 -13.5t8 -14q15 23 23.5 36t23 32t26.5 28t21 9q18 -2 24 -46l-31 -74q0 72 -20 75q-17 2 -51 -51v-166q35 -54 52 -50q19 5 19 75v102q4 5 17 25.5t22.5 35t22.5 31.5t25 26.5
t21 8.5q19 0 25 -45l-31 -74q0 67 -17.5 74t-53.5 -50v-208q-6 -46 -26 -46q-9 0 -20.5 9.5t-25.5 28t-23 31.5t-23 35q-7 -12 -11.5 -19t-13 -19.5t-14 -20t-13.5 -17t-14.5 -15t-13 -9.5t-11.5 -4q-20 0 -26 46v208q-35 55 -52 50q-19 -5 -19 -74l-31 74q5 41 21 45
q9 2 21 -6t25.5 -25.5t24 -32t24 -36.5t17.5 -27v-102q0 -74 21 -75q17 -1 50 50v166q-35 55 -53 50t-18 -74l-31 74q6 45 25 46z" />
    <glyph glyph-name="uniE03E" unicode="&#xe03e;" horiz-adv-x="257" 
d="M221 335q8 0 14 -8.5t8.5 -19t2.5 -18.5l-31 -74q0 75 -22 75q-17 0 -49 -51v-60h60l-9 -15l9 -16h-60v-53q32 -50 49 -50q22 0 22 75l31 -74q-6 -43 -23 -46q-9 -1 -21 7.5t-26.5 27.5t-23.5 32.5t-23 36.5q-14 -22 -23 -35.5t-23 -32t-26 -27.5t-21 -9q-19 1 -25 46
l31 74q0 -68 17.5 -74.5t53.5 49.5v53h-60l9 16l-9 15h60v60q-36 56 -53.5 49.5t-17.5 -73.5l-31 74q6 45 25 45q9 1 21 -8.5t26 -28t23 -31.5t23 -35q18 29 30.5 47t31 37.5t30.5 19.5z" />
    <glyph glyph-name="uniE03F" unicode="&#xe03f;" horiz-adv-x="257" 
d="M138 357q9 0 20.5 -9t24.5 -26t23 -31.5t23 -35t17 -26.5v-229h-31v153q-52 -79 -76 -79q-20 -1 -26 45v139q-34 53 -51 50q-20 -4 -20 -75l-31 74q6 43 23 46q9 1 21 -7.5t25.5 -26t23 -32t23 -35.5t17.5 -27v-32q0 -62 15 -72q17 -13 56 48v92q-33 52 -50 51
q-21 -1 -21 -75l-31 74q6 45 25 46z" />
    <glyph glyph-name="uniE040" unicode="&#xe040;" horiz-adv-x="159" 
d="M40 356q10 0 21.5 -9.5t24.5 -26.5t22.5 -31.5t22.5 -34.5t16 -26v-54q-36 25 -60 29q-44 5 -43 -63l2 -45q36 -56 53.5 -49.5t17.5 73.5l30 -74q-5 -42 -22 -45q-9 -2 -20.5 6.5t-25 26t-23.5 32t-23.5 36t-17.5 27.5l-2 13q-7 51 16 72t88 3v45q-33 51 -50 50
q-21 -1 -21 -75l-31 74q6 46 25 46z" />
    <glyph glyph-name="uniE041" unicode="&#xe041;" horiz-adv-x="259" 
d="M43 537v-278q24 37 44 59.5t35 20.5q18 -3 23 -46l-26 -62q12 -1 19 -13t7 -33v-218q31 -48 48 -50q23 -2 23 75l31 -74q-6 -47 -26 -46q-9 1 -21 10.5t-24.5 26.5t-22.5 31t-22.5 34t-16.5 26q0 17 0.5 40t0.5 37v31.5t-1 27.5t-3 20t-5.5 14.5t-8.5 5.5q-16 3 -54 -40
v-136h-31v504zM92 294q-17 -1 -49 -50v-93q47 72 71 79q-2 65 -22 64zM92 294z" />
    <glyph glyph-name="uniE042" unicode="&#xe042;" horiz-adv-x="332" 
d="M86 304q-19 0 -44 -41v-143q0 -71 20 -75q17 -3 51 50v143q0 27 -7 46.5t-20 19.5zM125 358q19 0 19 -46v-184q-24 -35 -27 -40q1 -31 5.5 -46t12.5 -18q17 -6 53 50q4 6 13.5 21t17.5 27.5t19 28t20 26t19 18t18 7.5q20 0 25 -46l-30 -74q0 71 -20 75q-17 3 -51 -51
q-5 -6 -15 -22q-61 -97 -87 -105q-24 -6 -31 43v2l20 48q-56 -78 -79 -72q-15 4 -15 46v184q1 2 4 7q80 121 109 121z" />
    <glyph glyph-name="uniE043" unicode="&#xe043;" horiz-adv-x="260" 
d="M13 46v288h30v-214q0 -76 23 -75q17 1 49 50v239h30v-239q32 -49 49 -50q22 -1 22 75v214h31v-288q0 -23 -7.5 -34.5t-17.5 -11.5q-12 0 -30.5 19.5t-30.5 37t-31 47.5q-11 -17 -17.5 -27t-18 -26.5t-20 -26t-18.5 -17t-18 -7.5q-25 0 -25 46z" />
    <glyph glyph-name="uniFE56" unicode="&#xfe56;" 
d="M11 46l31 32v-78h-31v46zM11 129v72q30 -20 50 -26.5t31.5 1.5t16.5 27t5 52v46q-37 59 -54 53q-18 -7 -18 -74l-31 73q5 38 19 45q9 4 21 -3t26.5 -25t24.5 -32.5t25 -38t18 -28.5v-53q0 -43 -22 -59t-81 0v-63zM11 129z" />
    <glyph glyph-name="uniFE60" unicode="&#xfe60;" horiz-adv-x="258" 
d="M119 411q20 1 26 -45l-31 -74q0 70 -20 74q-18 4 -52 -50v-32q0 -55 14 -62.5t58 21.5v34l31 32v-70q55 85 80 79q17 -4 22 -45l-31 -74q0 73 -21 75q-17 1 -50 -50v-129q33 -52 50 -50q21 2 21 74l31 -73q-3 -23 -9 -34t-14 -12q-9 -1 -21 7.5t-25.5 26t-23.5 32
t-23 35.5t-17 27v37q-42 28 -57 22.5t-15 -50.5v-42q34 -54 52 -50q20 4 20 74l31 -73q-6 -44 -23 -46q-9 -1 -21 7.5t-25.5 26t-23.5 31.5t-23.5 35.5t-17.5 27.5v8v4q0 14 0.5 20.5t1.5 16t3.5 12.5t7.5 7.5t12 4t18.5 -1t25.5 -4l34 -8.5v34q-20 -6 -34 -9t-25.5 -4
t-18.5 -1t-12 4.5t-7.5 7t-3.5 12.5t-1.5 16.5t-0.5 21.5v14q4 6 17 26.5t22.5 34.5t23 31t25 26.5t20.5 9.5zM119 411z" />
    </font>
</defs>
</svg>
