<svg id="Calque_1" data-name="Calque 1" xmlns="http://www.w3.org/2000/svg" viewBox="0 0 1805 530.87"><title>GABRIEL3</title><path d="M294.07,445.64q-14.65,56.17-41.69,88.21t-64.26,32q-46.14,0-78.4-23.44t-50.49-81.2Q41,403.48,41,304.34q0-99.91,18.73-159.27t52.72-84.69Q146.44,35,195.56,35q45.16,0,76.55,26.14t47.76,74.94q16.38,48.84,17.86,116.74h-64.5q-5.72-31.26-23.32-50.38t-54.35-19.13q-32.25,0-51.85,12.11t-28.78,38.66q-9.18,26.53-9.18,70.26,0,39,9.55,64t30.4,37.07q20.84,12.1,54.83,12.1,35.22,0,57.69-14.45a119.83,119.83,0,0,0,37.09-37.87l14.89-46.82Q308.7,389.42,294.07,445.64Zm47.14-71.83H209v-82H341.21Zm0-82V550.24H292.58q0-40.59,6.58-112t16.25-146.37Z" transform="translate(-41 -35)"/><path d="M467.5,50.6h69L643.9,550.24H575.68L483.62,102.92h37l-91.3,447.32H361.06ZM416.64,357.42H586.35V474.51H416.64Z" transform="translate(-41 -35)"/><path d="M725.78,50.6V550.24h-62V50.6Zm94.28,0,2,146.79H686.58V50.6Zm2,212.35,10.42,74.94H686.58V263Zm10.42,140.53V550.24H691.54V403.48ZM820.06,50.6q32.76,0,53.22,12.89t30.52,42.16q10.05,29.25,10.05,77.66,0,53.9-13.28,79.64t-36.34,33.2q-23.09,7.38-64,7.4L822.05,263q13.14,0,19-7.81c3.89-5.18,5.82-13.54,5.82-25s-1.93-19.79-5.82-25-10.22-7.78-19-7.78ZM800.21,297.29l20.6-.76q36-.76,55.7,4.29T909,330.48q12.76,24.6,12.77,78.47,0,71-23.56,106.16t-65.75,35.13V403.48q13.14,0,19-7.81t5.83-25q0-17.2-5.83-25c-3.89-5.18-10.22-7.81-19-7.81Z" transform="translate(-41 -35)"/><path d="M1008.63,50.6V550.24h-62V50.6Zm129.77,0V206.76H1007.14V50.6Zm0,228.74-9.69,130.37H1007.14V279.34ZM1128,357.42q35.23,0,52.73,6.64t24.56,24.59q7.07,18,7.07,54.63v107h-62V466.7q0-25-3-36.28t-12.15-16q-9.18-4.73-29.52-4.7ZM1138.4,50.6q36.7,0,58.18,40.21T1218,222.35q0,68.72-12.53,101.11t-30.39,39.81q-17.86,7.43-46.4,7.43l9.69-91.36q8.17,0,12.9-8.19t4.7-29.29q0-19.49-4.7-27.32t-12.9-7.78Z" transform="translate(-41 -35)"/><path d="M1318,50.6V550.24h-62V50.6Z" transform="translate(-41 -35)"/><path d="M1418.5,50.6V550.24h-62V50.6Zm188.07,0V198.94h-192V50.6Zm-34.24,210.79v78.05h-157.8V261.39Zm34.74,140.54V550.24H1414.53V401.93Z" transform="translate(-41 -35)"/><path d="M1701.35,50.6V550.24h-62V50.6ZM1846,401.93V550.24H1663.88V401.93Z" transform="translate(-41 -35)"/></svg>